G75*
%MOIN*%
%OFA0B0*%
%FSLAX24Y24*%
%IPPOS*%
%LPD*%
%AMOC8*
5,1,8,0,0,1.08239X$1,22.5*
%
%ADD10C,0.0110*%
%ADD11C,0.0480*%
%ADD12OC8,0.0480*%
%ADD13C,0.0660*%
%ADD14OC8,0.0600*%
%ADD15C,0.0600*%
%ADD16OC8,0.0630*%
%ADD17C,0.0630*%
%ADD18OC8,0.0540*%
%ADD19R,0.0600X0.0600*%
%ADD20C,0.0380*%
%ADD21C,0.0100*%
%ADD22C,0.0337*%
%ADD23C,0.0500*%
%ADD24C,0.0320*%
%ADD25C,0.0120*%
%ADD26C,0.0160*%
%ADD27C,0.0240*%
D10*
X014015Y010392D02*
X014606Y010392D01*
X014606Y010687D01*
X014507Y010786D01*
X014310Y010786D01*
X014212Y010687D01*
X014212Y010392D01*
X014212Y010589D02*
X014015Y010786D01*
X014113Y011037D02*
X014310Y011037D01*
X014409Y011135D01*
X014409Y011332D01*
X014310Y011430D01*
X014212Y011430D01*
X014212Y011037D01*
X014113Y011037D02*
X014015Y011135D01*
X014015Y011332D01*
X014409Y011681D02*
X014015Y011878D01*
X014409Y012075D01*
X014310Y012970D02*
X014310Y013266D01*
X014212Y013364D01*
X014113Y013364D01*
X014015Y013266D01*
X014015Y012970D01*
X014606Y012970D01*
X014606Y013266D01*
X014507Y013364D01*
X014409Y013364D01*
X014310Y013266D01*
D11*
X012060Y019360D03*
X009060Y004860D03*
X009060Y001860D03*
X015060Y001860D03*
X015060Y004860D03*
D12*
X015060Y007360D03*
X015060Y008360D03*
X014060Y008360D03*
X014060Y007360D03*
X013060Y007360D03*
X013060Y008360D03*
X012060Y008360D03*
X012060Y007360D03*
X011060Y007360D03*
X011060Y008360D03*
X010060Y008360D03*
X010060Y007360D03*
X009060Y007360D03*
X009060Y008360D03*
X008060Y008360D03*
X008060Y007360D03*
X007060Y007360D03*
X007060Y008360D03*
X007060Y009360D03*
X007060Y010360D03*
X007060Y011360D03*
X007060Y012360D03*
X007060Y013360D03*
X007060Y014360D03*
X007060Y015360D03*
X007060Y016360D03*
X007060Y017360D03*
X007060Y018360D03*
X007060Y019360D03*
X008060Y019360D03*
X008060Y018360D03*
X009060Y018360D03*
X009060Y019360D03*
X010060Y019360D03*
X010060Y018360D03*
X011060Y018360D03*
X011060Y019360D03*
X012060Y018360D03*
X013060Y018360D03*
X013060Y019360D03*
X014060Y019360D03*
X014060Y018360D03*
X015060Y018360D03*
X015060Y019360D03*
X016060Y019360D03*
X016060Y018360D03*
X017060Y018360D03*
X017060Y019360D03*
X018060Y018360D03*
X018060Y017360D03*
X018060Y016360D03*
X018060Y015360D03*
X018060Y014360D03*
X018060Y013360D03*
X018060Y012360D03*
X018060Y011360D03*
X018060Y010360D03*
X018060Y009360D03*
X018060Y008360D03*
X017060Y008360D03*
X017060Y007360D03*
X016060Y007360D03*
X016060Y008360D03*
X017060Y009360D03*
X017060Y010360D03*
X017060Y011360D03*
X017060Y012360D03*
X017060Y013360D03*
X017060Y014360D03*
X017060Y015360D03*
X017060Y016360D03*
X017060Y017360D03*
X018560Y023060D03*
X014560Y023060D03*
X014060Y028260D03*
X015060Y028260D03*
X014060Y030360D03*
X013060Y030360D03*
X011660Y028260D03*
X010660Y028260D03*
X009060Y030360D03*
X018060Y030360D03*
X006060Y018360D03*
X006060Y017360D03*
X006060Y016360D03*
X006060Y015360D03*
X006060Y014360D03*
X006060Y013360D03*
X006060Y012360D03*
X006060Y011360D03*
X006060Y010360D03*
X006060Y009360D03*
X006060Y008360D03*
D13*
X004060Y023030D02*
X004060Y023690D01*
X003060Y023690D02*
X003060Y023030D01*
X002060Y023030D02*
X002060Y023690D01*
X020060Y023690D02*
X020060Y023030D01*
X021060Y023030D02*
X021060Y023690D01*
X022060Y023690D02*
X022060Y023030D01*
D14*
X021560Y020860D03*
X021560Y019860D03*
X021560Y018860D03*
X021560Y017860D03*
X021560Y016860D03*
X021560Y015860D03*
X021560Y014860D03*
X021560Y013860D03*
X021560Y012860D03*
X021560Y011860D03*
X021560Y010860D03*
X021560Y009860D03*
X021560Y008860D03*
X021560Y007860D03*
X021560Y006860D03*
X021560Y005860D03*
X021560Y004860D03*
X021560Y003860D03*
X021560Y002860D03*
X021560Y001860D03*
X022560Y001860D03*
X022560Y002860D03*
X022560Y003860D03*
X022560Y004860D03*
X022560Y005860D03*
X022560Y006860D03*
X022560Y007860D03*
X022560Y008860D03*
X022560Y009860D03*
X022560Y010860D03*
X022560Y011860D03*
X022560Y012860D03*
X022560Y013860D03*
X022560Y014860D03*
X022560Y015860D03*
X022560Y016860D03*
X022560Y017860D03*
X022560Y018860D03*
X022560Y019860D03*
X022560Y020860D03*
X018460Y021660D03*
X017460Y021660D03*
X009260Y021460D03*
X009260Y022460D03*
X008260Y022460D03*
X008260Y021460D03*
X007260Y021460D03*
X007260Y022460D03*
X006260Y022460D03*
X006260Y021460D03*
X005260Y021460D03*
X005260Y022460D03*
X002560Y020860D03*
X002560Y019860D03*
X002560Y018860D03*
X002560Y017860D03*
X002560Y016860D03*
X002560Y015860D03*
X002560Y014860D03*
X002560Y013860D03*
X002560Y012860D03*
X002560Y011860D03*
X002560Y010860D03*
X002560Y009860D03*
X002560Y008860D03*
X002560Y007860D03*
X002560Y006860D03*
X002560Y005860D03*
X002560Y004860D03*
X002560Y003860D03*
X002560Y002860D03*
X002560Y001860D03*
X001560Y001860D03*
X001560Y002860D03*
X001560Y003860D03*
X001560Y004860D03*
X001560Y005860D03*
X001560Y006860D03*
X001560Y007860D03*
X001560Y008860D03*
X001560Y009860D03*
X001560Y010860D03*
X001560Y011860D03*
X001560Y012860D03*
X001560Y013860D03*
X001560Y014860D03*
X001560Y015860D03*
X001560Y016860D03*
X001560Y017860D03*
X001560Y018860D03*
X001560Y019860D03*
X001560Y020860D03*
D15*
X006560Y029460D02*
X006560Y030060D01*
X007560Y030060D02*
X007560Y029460D01*
D16*
X007560Y026860D03*
X009960Y024160D03*
X013060Y024160D03*
D17*
X013060Y025160D03*
X009960Y025160D03*
X006560Y026860D03*
D18*
X010560Y021960D03*
X013560Y021960D03*
X017960Y004860D03*
X017960Y001860D03*
X006060Y001860D03*
X006060Y004860D03*
D19*
X016460Y021660D03*
D20*
X016860Y024260D03*
X015860Y025260D03*
X017860Y025260D03*
D21*
X013060Y019360D02*
X013060Y018960D01*
X012960Y018860D01*
X012760Y018860D01*
X012560Y018660D01*
X012560Y017960D01*
X012860Y017660D01*
X012860Y009260D01*
X012560Y008960D01*
X012560Y007060D01*
X014760Y004860D01*
X015060Y004860D01*
X015160Y009560D02*
X013460Y009560D01*
X013460Y014060D01*
X013560Y014060D02*
X015160Y014060D01*
X015160Y009560D01*
X009060Y017360D02*
X009560Y017860D01*
X009560Y021160D01*
X009260Y021460D01*
X008560Y020160D02*
X008560Y018060D01*
X008960Y017760D02*
X008060Y017760D01*
X007560Y018260D01*
X007560Y018560D01*
X007260Y018860D01*
X006660Y018860D01*
X006260Y019260D01*
X006260Y021460D01*
X007260Y021460D02*
X008560Y020160D01*
X007160Y017860D02*
X006860Y017860D01*
X006560Y018160D01*
X006560Y018660D01*
X005260Y019960D01*
X005260Y021460D01*
X007160Y017860D02*
X008410Y016610D01*
X008610Y016610D01*
X008660Y017360D02*
X008560Y017460D01*
X008660Y017360D02*
X009060Y017360D01*
X007860Y016560D02*
X007860Y013660D01*
X007560Y013360D01*
X007060Y013360D01*
D22*
X007860Y016560D03*
X008610Y016610D03*
X008560Y017460D03*
X008960Y017760D03*
X008560Y018060D03*
X009560Y016860D03*
X010260Y016260D03*
X010460Y014860D03*
X012060Y016260D03*
X013460Y014860D03*
X013960Y016260D03*
X014960Y016860D03*
X015960Y016360D03*
X012260Y009960D03*
X010560Y011860D03*
X008160Y009960D03*
X010360Y004060D03*
X010360Y002560D03*
X015460Y009060D03*
X010560Y017960D03*
X005260Y018860D03*
X005160Y017160D03*
X001060Y018360D03*
X001060Y009360D03*
X023060Y008360D03*
X023060Y018360D03*
D23*
X022060Y023360D02*
X022060Y024960D01*
X020460Y026560D01*
X014460Y026560D01*
X013060Y025160D01*
X009960Y025160D01*
X005160Y025160D01*
X004060Y024060D01*
X004060Y023360D01*
X002060Y023360D02*
X002060Y025460D01*
X003460Y026860D01*
X006560Y026860D01*
X006560Y029760D01*
D24*
X006760Y023160D02*
X005160Y023160D01*
X002860Y020860D01*
X002560Y020860D01*
X002960Y023260D02*
X003060Y023360D01*
X006260Y022660D02*
X006760Y023160D01*
X012360Y023160D01*
X013560Y021960D01*
X014560Y020960D01*
X015560Y020960D01*
X015560Y018260D01*
X015660Y018360D01*
X016060Y018360D01*
X015560Y018260D02*
X015560Y017960D01*
X015460Y017860D01*
X015460Y016860D01*
X014960Y016860D01*
X015460Y016860D02*
X015460Y015460D01*
X016060Y014860D01*
X016060Y009160D01*
X016560Y008660D01*
X016560Y007860D02*
X017060Y007360D01*
X017960Y006460D01*
X017960Y004860D01*
X019360Y001860D02*
X018760Y001260D01*
X012060Y001260D01*
X012060Y005460D01*
X011460Y004860D01*
X009060Y004860D01*
X009060Y008360D02*
X009060Y011860D01*
X009060Y016860D01*
X009560Y016860D01*
X011560Y018860D02*
X011060Y019360D01*
X011560Y018860D02*
X011560Y007860D01*
X012060Y007360D01*
X012060Y005460D01*
X012060Y001260D02*
X001960Y001260D01*
X001560Y001660D01*
X001560Y001860D01*
X001560Y002860D01*
X001560Y003860D01*
X014960Y021660D02*
X013760Y022860D01*
X013760Y023560D01*
X014060Y023860D01*
X014060Y024460D01*
X013360Y025160D01*
X013060Y025160D01*
X014960Y021660D02*
X016460Y021660D01*
X017460Y021660D02*
X017460Y020960D01*
X015560Y020960D01*
X017460Y020960D02*
X020460Y020960D01*
X021060Y021560D01*
X021860Y021560D01*
X022560Y020860D01*
X021060Y022660D02*
X021060Y023360D01*
X021060Y022660D02*
X020060Y021660D01*
X018460Y021660D01*
X006260Y022460D02*
X006260Y022660D01*
X021560Y003860D02*
X021560Y002860D01*
X021560Y001860D01*
X019360Y001860D01*
D25*
X000870Y000770D02*
X000870Y030846D01*
X023220Y030846D01*
X023220Y000770D01*
X000870Y000770D01*
X000870Y000797D02*
X023220Y000797D01*
X023220Y000916D02*
X000870Y000916D01*
X000870Y001034D02*
X001790Y001034D01*
X001801Y001023D02*
X001904Y000980D01*
X018816Y000980D01*
X018919Y001023D01*
X018997Y001101D01*
X019476Y001580D01*
X021246Y001580D01*
X021386Y001440D01*
X021734Y001440D01*
X021980Y001686D01*
X021980Y002034D01*
X021840Y002174D01*
X021840Y002546D01*
X021980Y002686D01*
X021980Y003034D01*
X021840Y003174D01*
X021840Y003546D01*
X021980Y003686D01*
X021980Y004034D01*
X021734Y004280D01*
X021386Y004280D01*
X021140Y004034D01*
X021140Y003686D01*
X021280Y003546D01*
X021280Y003174D01*
X021140Y003034D01*
X021140Y002686D01*
X021280Y002546D01*
X021280Y002174D01*
X021246Y002140D01*
X019304Y002140D01*
X019201Y002097D01*
X018644Y001540D01*
X018248Y001540D01*
X018390Y001682D01*
X018390Y001830D01*
X017990Y001830D01*
X017990Y001890D01*
X017930Y001890D01*
X017930Y002290D01*
X017782Y002290D01*
X017530Y002038D01*
X017530Y001890D01*
X017930Y001890D01*
X017930Y001830D01*
X017530Y001830D01*
X017530Y001682D01*
X017672Y001540D01*
X015301Y001540D01*
X015315Y001549D01*
X015371Y001605D01*
X015414Y001671D01*
X015445Y001743D01*
X015460Y001821D01*
X015460Y001840D01*
X015080Y001840D01*
X015080Y001880D01*
X015040Y001880D01*
X015040Y002260D01*
X015021Y002260D01*
X014943Y002245D01*
X014871Y002214D01*
X014805Y002171D01*
X014749Y002115D01*
X014706Y002049D01*
X014675Y001977D01*
X014660Y001899D01*
X014660Y001880D01*
X015040Y001880D01*
X015040Y001840D01*
X014660Y001840D01*
X014660Y001821D01*
X014675Y001743D01*
X014706Y001671D01*
X014749Y001605D01*
X014805Y001549D01*
X014819Y001540D01*
X012340Y001540D01*
X012340Y007131D01*
X012390Y007181D01*
X012390Y006990D01*
X014590Y004790D01*
X014690Y004690D01*
X014741Y004690D01*
X014755Y004656D01*
X014856Y004555D01*
X014988Y004500D01*
X015132Y004500D01*
X015264Y004555D01*
X015365Y004656D01*
X015420Y004788D01*
X015420Y004932D01*
X015365Y005064D01*
X015264Y005165D01*
X015132Y005220D01*
X014988Y005220D01*
X014856Y005165D01*
X014776Y005085D01*
X012730Y007130D01*
X012730Y007181D01*
X012911Y007000D01*
X013209Y007000D01*
X013420Y007211D01*
X013420Y007509D01*
X013209Y007720D01*
X012911Y007720D01*
X012730Y007539D01*
X012730Y008181D01*
X012911Y008000D01*
X013209Y008000D01*
X013420Y008211D01*
X013420Y008509D01*
X013209Y008720D01*
X012911Y008720D01*
X012730Y008539D01*
X012730Y008890D01*
X012930Y009090D01*
X013030Y009190D01*
X013030Y017730D01*
X012730Y018030D01*
X012730Y018181D01*
X012911Y018000D01*
X013209Y018000D01*
X013420Y018211D01*
X013420Y018509D01*
X013209Y018720D01*
X013060Y018720D01*
X013130Y018790D01*
X013230Y018890D01*
X013230Y019021D01*
X013420Y019211D01*
X013420Y019509D01*
X013209Y019720D01*
X012911Y019720D01*
X012700Y019509D01*
X012700Y019211D01*
X012881Y019030D01*
X012690Y019030D01*
X012590Y018930D01*
X012390Y018730D01*
X012390Y018539D01*
X012209Y018720D01*
X011911Y018720D01*
X011840Y018649D01*
X011840Y018916D01*
X011797Y019019D01*
X011420Y019396D01*
X011420Y019509D01*
X011209Y019720D01*
X010911Y019720D01*
X010700Y019509D01*
X010700Y019211D01*
X010911Y019000D01*
X011024Y019000D01*
X011280Y018744D01*
X011280Y018649D01*
X011209Y018720D01*
X010911Y018720D01*
X010700Y018509D01*
X010700Y018211D01*
X010911Y018000D01*
X011209Y018000D01*
X011280Y018071D01*
X011280Y008706D01*
X011226Y008760D01*
X011080Y008760D01*
X011080Y008380D01*
X011040Y008380D01*
X011040Y008760D01*
X010894Y008760D01*
X010660Y008526D01*
X010660Y008380D01*
X011040Y008380D01*
X011040Y008340D01*
X011080Y008340D01*
X011080Y007960D01*
X011226Y007960D01*
X011280Y008014D01*
X011280Y007804D01*
X011323Y007701D01*
X011401Y007623D01*
X011700Y007324D01*
X011700Y007211D01*
X011780Y007131D01*
X011780Y005576D01*
X011344Y005140D01*
X009289Y005140D01*
X009264Y005165D01*
X009132Y005220D01*
X008988Y005220D01*
X008856Y005165D01*
X008755Y005064D01*
X008700Y004932D01*
X008700Y004788D01*
X008755Y004656D01*
X008856Y004555D01*
X008988Y004500D01*
X009132Y004500D01*
X009264Y004555D01*
X009289Y004580D01*
X011516Y004580D01*
X011619Y004623D01*
X011780Y004784D01*
X011780Y001540D01*
X009228Y001540D01*
X009264Y001555D01*
X009365Y001656D01*
X009420Y001788D01*
X009420Y001932D01*
X009365Y002064D01*
X009264Y002165D01*
X009132Y002220D01*
X008988Y002220D01*
X008856Y002165D01*
X008755Y002064D01*
X008700Y001932D01*
X008700Y001788D01*
X008755Y001656D01*
X008856Y001555D01*
X008892Y001540D01*
X006348Y001540D01*
X006490Y001682D01*
X006490Y001830D01*
X006090Y001830D01*
X006090Y001890D01*
X006030Y001890D01*
X006030Y002290D01*
X005882Y002290D01*
X005630Y002038D01*
X005630Y001890D01*
X006030Y001890D01*
X006030Y001830D01*
X005630Y001830D01*
X005630Y001682D01*
X005772Y001540D01*
X002891Y001540D01*
X003020Y001669D01*
X003020Y001820D01*
X002600Y001820D01*
X002600Y001900D01*
X002520Y001900D01*
X002520Y002320D01*
X002369Y002320D01*
X002100Y002051D01*
X002100Y001900D01*
X002520Y001900D01*
X002520Y001820D01*
X002100Y001820D01*
X002100Y001669D01*
X002229Y001540D01*
X002076Y001540D01*
X001955Y001661D01*
X001980Y001686D01*
X001980Y002034D01*
X001840Y002174D01*
X001840Y002546D01*
X001980Y002686D01*
X001980Y003034D01*
X001840Y003174D01*
X001840Y003546D01*
X001980Y003686D01*
X001980Y004034D01*
X001734Y004280D01*
X001386Y004280D01*
X001140Y004034D01*
X001140Y003686D01*
X001280Y003546D01*
X001280Y003174D01*
X001140Y003034D01*
X001140Y002686D01*
X001280Y002546D01*
X001280Y002174D01*
X001140Y002034D01*
X001140Y001686D01*
X001321Y001505D01*
X001323Y001501D01*
X001401Y001423D01*
X001723Y001101D01*
X001801Y001023D01*
X001723Y001101D02*
X001723Y001101D01*
X001672Y001153D02*
X000870Y001153D01*
X000870Y001271D02*
X001553Y001271D01*
X001435Y001390D02*
X000870Y001390D01*
X000870Y001508D02*
X001318Y001508D01*
X001200Y001627D02*
X000870Y001627D01*
X000870Y001745D02*
X001140Y001745D01*
X001140Y001864D02*
X000870Y001864D01*
X000870Y001982D02*
X001140Y001982D01*
X001207Y002101D02*
X000870Y002101D01*
X000870Y002219D02*
X001280Y002219D01*
X001280Y002338D02*
X000870Y002338D01*
X000870Y002456D02*
X001280Y002456D01*
X001252Y002575D02*
X000870Y002575D01*
X000870Y002693D02*
X001140Y002693D01*
X001140Y002812D02*
X000870Y002812D01*
X000870Y002930D02*
X001140Y002930D01*
X001155Y003049D02*
X000870Y003049D01*
X000870Y003167D02*
X001273Y003167D01*
X001280Y003286D02*
X000870Y003286D01*
X000870Y003404D02*
X001280Y003404D01*
X001280Y003523D02*
X000870Y003523D01*
X000870Y003641D02*
X001185Y003641D01*
X001140Y003760D02*
X000870Y003760D01*
X000870Y003878D02*
X001140Y003878D01*
X001140Y003997D02*
X000870Y003997D01*
X000870Y004115D02*
X001221Y004115D01*
X001340Y004234D02*
X000870Y004234D01*
X000870Y004352D02*
X011780Y004352D01*
X011780Y004234D02*
X002837Y004234D01*
X002751Y004320D02*
X002600Y004320D01*
X002600Y003900D01*
X002520Y003900D01*
X002520Y004320D01*
X002369Y004320D01*
X002100Y004051D01*
X002100Y003900D01*
X002520Y003900D01*
X002520Y003820D01*
X002100Y003820D01*
X002100Y003669D01*
X002369Y003400D01*
X002520Y003400D01*
X002520Y003820D01*
X002600Y003820D01*
X002600Y003900D01*
X003020Y003900D01*
X003020Y004051D01*
X002751Y004320D01*
X002734Y004440D02*
X002980Y004686D01*
X002980Y005034D01*
X002734Y005280D01*
X002386Y005280D01*
X002140Y005034D01*
X002140Y004686D01*
X002386Y004440D01*
X002734Y004440D01*
X002764Y004471D02*
X005898Y004471D01*
X005898Y004470D02*
X006222Y004470D01*
X006372Y004620D01*
X007008Y004620D01*
X007096Y004657D01*
X007163Y004724D01*
X008763Y006324D01*
X008800Y006412D01*
X008800Y007111D01*
X008911Y007000D01*
X009209Y007000D01*
X009420Y007211D01*
X009420Y007509D01*
X009209Y007720D01*
X008911Y007720D01*
X008800Y007609D01*
X008800Y007761D01*
X009039Y008000D01*
X009209Y008000D01*
X009420Y008211D01*
X009420Y008509D01*
X009340Y008589D01*
X009340Y016580D01*
X009482Y016580D01*
X009503Y016572D01*
X009617Y016572D01*
X009723Y016615D01*
X009805Y016697D01*
X009848Y016803D01*
X009848Y016917D01*
X009805Y017023D01*
X009723Y017105D01*
X009617Y017148D01*
X009503Y017148D01*
X009482Y017140D01*
X009119Y017140D01*
X009069Y017190D01*
X009130Y017190D01*
X009230Y017290D01*
X009730Y017790D01*
X009730Y018181D01*
X009911Y018000D01*
X010209Y018000D01*
X010420Y018211D01*
X010420Y018509D01*
X010209Y018720D01*
X009911Y018720D01*
X009730Y018539D01*
X009730Y019181D01*
X009911Y019000D01*
X010209Y019000D01*
X010420Y019211D01*
X010420Y019509D01*
X010209Y019720D01*
X009911Y019720D01*
X009730Y019539D01*
X009730Y021230D01*
X009677Y021283D01*
X009680Y021286D01*
X009680Y021634D01*
X009434Y021880D01*
X009086Y021880D01*
X008840Y021634D01*
X008840Y021286D01*
X009086Y021040D01*
X009390Y021040D01*
X009390Y019596D01*
X009226Y019760D01*
X009080Y019760D01*
X009080Y019380D01*
X009040Y019380D01*
X009040Y019760D01*
X008894Y019760D01*
X008730Y019596D01*
X008730Y020230D01*
X008630Y020330D01*
X007677Y021283D01*
X007680Y021286D01*
X007680Y021634D01*
X007434Y021880D01*
X007086Y021880D01*
X006840Y021634D01*
X006840Y021286D01*
X007086Y021040D01*
X007434Y021040D01*
X007437Y021043D01*
X008390Y020090D01*
X008390Y019539D01*
X008209Y019720D01*
X007911Y019720D01*
X007700Y019509D01*
X007700Y019211D01*
X007911Y019000D01*
X008209Y019000D01*
X008390Y019181D01*
X008390Y018539D01*
X008209Y018720D01*
X007911Y018720D01*
X007730Y018539D01*
X007730Y018630D01*
X007630Y018730D01*
X007330Y019030D01*
X007239Y019030D01*
X007420Y019211D01*
X007420Y019509D01*
X007209Y019720D01*
X006911Y019720D01*
X006700Y019509D01*
X006700Y019211D01*
X006881Y019030D01*
X006730Y019030D01*
X006430Y019330D01*
X006430Y021040D01*
X006434Y021040D01*
X006680Y021286D01*
X006680Y021634D01*
X006434Y021880D01*
X006086Y021880D01*
X005840Y021634D01*
X005840Y021286D01*
X006086Y021040D01*
X006090Y021040D01*
X006090Y019370D01*
X005430Y020030D01*
X005430Y021040D01*
X005434Y021040D01*
X005680Y021286D01*
X005680Y021634D01*
X005434Y021880D01*
X005086Y021880D01*
X004840Y021634D01*
X004840Y021286D01*
X005086Y021040D01*
X005090Y021040D01*
X005090Y019890D01*
X006390Y018590D01*
X006390Y018539D01*
X006209Y018720D01*
X005911Y018720D01*
X005700Y018509D01*
X005700Y018211D01*
X005911Y018000D01*
X006209Y018000D01*
X006390Y018181D01*
X006390Y018090D01*
X006690Y017790D01*
X006790Y017690D01*
X006881Y017690D01*
X006700Y017509D01*
X006700Y017211D01*
X006911Y017000D01*
X007209Y017000D01*
X007420Y017211D01*
X007420Y017360D01*
X007941Y016839D01*
X007917Y016848D01*
X007803Y016848D01*
X007697Y016805D01*
X007615Y016723D01*
X007572Y016617D01*
X007572Y016503D01*
X007615Y016397D01*
X007690Y016322D01*
X007690Y013730D01*
X007490Y013530D01*
X007399Y013530D01*
X007209Y013720D01*
X006911Y013720D01*
X006700Y013509D01*
X006700Y013211D01*
X006911Y013000D01*
X007209Y013000D01*
X007399Y013190D01*
X007630Y013190D01*
X007730Y013290D01*
X007930Y013490D01*
X008030Y013590D01*
X008030Y016322D01*
X008105Y016397D01*
X008148Y016503D01*
X008148Y016617D01*
X008139Y016641D01*
X008240Y016540D01*
X008340Y016440D01*
X008372Y016440D01*
X008447Y016365D01*
X008553Y016322D01*
X008667Y016322D01*
X008773Y016365D01*
X008780Y016372D01*
X008780Y012060D01*
X007269Y012060D01*
X007420Y012211D01*
X007420Y012509D01*
X007209Y012720D01*
X006911Y012720D01*
X006700Y012509D01*
X006700Y012211D01*
X006851Y012060D01*
X006477Y012060D01*
X006360Y011943D01*
X006137Y011720D01*
X005911Y011720D01*
X005700Y011509D01*
X005700Y011211D01*
X005911Y011000D01*
X006209Y011000D01*
X006420Y011211D01*
X006420Y011437D01*
X006643Y011660D01*
X006851Y011660D01*
X006700Y011509D01*
X006700Y011211D01*
X006911Y011000D01*
X007209Y011000D01*
X007420Y011211D01*
X007420Y011509D01*
X007269Y011660D01*
X008780Y011660D01*
X008780Y008589D01*
X008700Y008509D01*
X008700Y008339D01*
X008424Y008063D01*
X008357Y007996D01*
X008320Y007908D01*
X008320Y007609D01*
X008209Y007720D01*
X007911Y007720D01*
X007700Y007509D01*
X007700Y007211D01*
X007911Y007000D01*
X008209Y007000D01*
X008320Y007111D01*
X008320Y006559D01*
X006861Y005100D01*
X006372Y005100D01*
X006222Y005250D01*
X005898Y005250D01*
X005670Y005022D01*
X005670Y004698D01*
X005898Y004470D01*
X005779Y004589D02*
X002883Y004589D01*
X002980Y004708D02*
X005670Y004708D01*
X005670Y004826D02*
X002980Y004826D01*
X002980Y004945D02*
X005670Y004945D01*
X005711Y005063D02*
X002951Y005063D01*
X002832Y005182D02*
X005830Y005182D01*
X006290Y005182D02*
X006942Y005182D01*
X007061Y005300D02*
X000870Y005300D01*
X000870Y005182D02*
X001288Y005182D01*
X001386Y005280D02*
X001140Y005034D01*
X001140Y004686D01*
X001386Y004440D01*
X001734Y004440D01*
X001980Y004686D01*
X001980Y005034D01*
X001734Y005280D01*
X001386Y005280D01*
X001386Y005440D02*
X001140Y005686D01*
X001140Y006034D01*
X001386Y006280D01*
X001734Y006280D01*
X001980Y006034D01*
X001980Y005686D01*
X001734Y005440D01*
X001386Y005440D01*
X001289Y005537D02*
X000870Y005537D01*
X000870Y005419D02*
X007179Y005419D01*
X007298Y005537D02*
X002831Y005537D01*
X002734Y005440D02*
X002980Y005686D01*
X002980Y006034D01*
X002734Y006280D01*
X002386Y006280D01*
X002140Y006034D01*
X002140Y005686D01*
X002386Y005440D01*
X002734Y005440D01*
X002949Y005656D02*
X007416Y005656D01*
X007535Y005774D02*
X002980Y005774D01*
X002980Y005893D02*
X007653Y005893D01*
X007772Y006011D02*
X002980Y006011D01*
X002884Y006130D02*
X007890Y006130D01*
X008009Y006248D02*
X002766Y006248D01*
X002734Y006440D02*
X002980Y006686D01*
X002980Y007034D01*
X002734Y007280D01*
X002386Y007280D01*
X002140Y007034D01*
X002140Y006686D01*
X002386Y006440D01*
X002734Y006440D01*
X002779Y006485D02*
X008246Y006485D01*
X008320Y006604D02*
X002897Y006604D01*
X002980Y006722D02*
X008320Y006722D01*
X008320Y006841D02*
X002980Y006841D01*
X002980Y006959D02*
X008320Y006959D01*
X008320Y007078D02*
X008287Y007078D01*
X007833Y007078D02*
X007287Y007078D01*
X007209Y007000D02*
X007420Y007211D01*
X007420Y007509D01*
X007209Y007720D01*
X006911Y007720D01*
X006700Y007509D01*
X006700Y007211D01*
X006911Y007000D01*
X007209Y007000D01*
X007405Y007196D02*
X007715Y007196D01*
X007700Y007315D02*
X007420Y007315D01*
X007420Y007433D02*
X007700Y007433D01*
X007742Y007552D02*
X007378Y007552D01*
X007259Y007670D02*
X007861Y007670D01*
X007911Y008000D02*
X008209Y008000D01*
X008420Y008211D01*
X008420Y008509D01*
X008209Y008720D01*
X007911Y008720D01*
X007700Y008509D01*
X007700Y008211D01*
X007911Y008000D01*
X007885Y008026D02*
X007235Y008026D01*
X007209Y008000D02*
X007420Y008211D01*
X007420Y008509D01*
X007209Y008720D01*
X006911Y008720D01*
X006700Y008509D01*
X006700Y008211D01*
X006911Y008000D01*
X007209Y008000D01*
X007353Y008144D02*
X007767Y008144D01*
X007700Y008263D02*
X007420Y008263D01*
X007420Y008381D02*
X007700Y008381D01*
X007700Y008500D02*
X007420Y008500D01*
X007311Y008618D02*
X007809Y008618D01*
X008311Y008618D02*
X008780Y008618D01*
X008780Y008737D02*
X006249Y008737D01*
X006226Y008760D02*
X006460Y008526D01*
X006460Y008380D01*
X006080Y008380D01*
X006080Y008340D01*
X006460Y008340D01*
X006460Y008194D01*
X006226Y007960D01*
X006080Y007960D01*
X006080Y008340D01*
X006040Y008340D01*
X006040Y007960D01*
X005894Y007960D01*
X005660Y008194D01*
X005660Y008340D01*
X006040Y008340D01*
X006040Y008380D01*
X006040Y008760D01*
X005894Y008760D01*
X005660Y008526D01*
X005660Y008380D01*
X006040Y008380D01*
X006080Y008380D01*
X006080Y008760D01*
X006226Y008760D01*
X006080Y008737D02*
X006040Y008737D01*
X006040Y008618D02*
X006080Y008618D01*
X006080Y008500D02*
X006040Y008500D01*
X006040Y008381D02*
X006080Y008381D01*
X006080Y008263D02*
X006040Y008263D01*
X006040Y008144D02*
X006080Y008144D01*
X006080Y008026D02*
X006040Y008026D01*
X005829Y008026D02*
X002980Y008026D01*
X002980Y008034D02*
X002734Y008280D01*
X002386Y008280D01*
X002140Y008034D01*
X002140Y007686D01*
X002386Y007440D01*
X002734Y007440D01*
X002980Y007686D01*
X002980Y008034D01*
X002980Y007907D02*
X008320Y007907D01*
X008320Y007789D02*
X002980Y007789D01*
X002964Y007670D02*
X006861Y007670D01*
X006742Y007552D02*
X002845Y007552D01*
X002818Y007196D02*
X006715Y007196D01*
X006700Y007315D02*
X000870Y007315D01*
X000870Y007433D02*
X006700Y007433D01*
X006833Y007078D02*
X002936Y007078D01*
X002302Y007196D02*
X001818Y007196D01*
X001734Y007280D02*
X001386Y007280D01*
X001140Y007034D01*
X001140Y006686D01*
X001386Y006440D01*
X001734Y006440D01*
X001980Y006686D01*
X001980Y007034D01*
X001734Y007280D01*
X001734Y007440D02*
X001980Y007686D01*
X001980Y008034D01*
X001734Y008280D01*
X001386Y008280D01*
X001140Y008034D01*
X001140Y007686D01*
X001386Y007440D01*
X001734Y007440D01*
X001845Y007552D02*
X002275Y007552D01*
X002156Y007670D02*
X001964Y007670D01*
X001980Y007789D02*
X002140Y007789D01*
X002140Y007907D02*
X001980Y007907D01*
X001980Y008026D02*
X002140Y008026D01*
X002250Y008144D02*
X001870Y008144D01*
X001751Y008263D02*
X002369Y008263D01*
X002386Y008440D02*
X002734Y008440D01*
X002980Y008686D01*
X002980Y009034D01*
X002734Y009280D01*
X002386Y009280D01*
X002140Y009034D01*
X002140Y008686D01*
X002386Y008440D01*
X002327Y008500D02*
X001793Y008500D01*
X001734Y008440D02*
X001980Y008686D01*
X001980Y009034D01*
X001734Y009280D01*
X001386Y009280D01*
X001140Y009034D01*
X001140Y008686D01*
X001386Y008440D01*
X001734Y008440D01*
X001912Y008618D02*
X002208Y008618D01*
X002140Y008737D02*
X001980Y008737D01*
X001980Y008855D02*
X002140Y008855D01*
X002140Y008974D02*
X001980Y008974D01*
X001922Y009092D02*
X002198Y009092D01*
X002317Y009211D02*
X001803Y009211D01*
X001734Y009440D02*
X001980Y009686D01*
X001980Y010034D01*
X001734Y010280D01*
X001386Y010280D01*
X001140Y010034D01*
X001140Y009686D01*
X001386Y009440D01*
X001734Y009440D01*
X001741Y009448D02*
X002379Y009448D01*
X002386Y009440D02*
X002734Y009440D01*
X002980Y009686D01*
X002980Y010034D01*
X002734Y010280D01*
X002386Y010280D01*
X002140Y010034D01*
X002140Y009686D01*
X002386Y009440D01*
X002260Y009566D02*
X001860Y009566D01*
X001978Y009685D02*
X002142Y009685D01*
X002140Y009803D02*
X001980Y009803D01*
X001980Y009922D02*
X002140Y009922D01*
X002146Y010040D02*
X001974Y010040D01*
X001855Y010159D02*
X002265Y010159D01*
X002383Y010277D02*
X001737Y010277D01*
X001734Y010440D02*
X001980Y010686D01*
X001980Y011034D01*
X001734Y011280D01*
X001386Y011280D01*
X001140Y011034D01*
X001140Y010686D01*
X001386Y010440D01*
X001734Y010440D01*
X001808Y010514D02*
X002312Y010514D01*
X002386Y010440D02*
X002734Y010440D01*
X002980Y010686D01*
X002980Y011034D01*
X002734Y011280D01*
X002386Y011280D01*
X002140Y011034D01*
X002140Y010686D01*
X002386Y010440D01*
X002194Y010633D02*
X001926Y010633D01*
X001980Y010751D02*
X002140Y010751D01*
X002140Y010870D02*
X001980Y010870D01*
X001980Y010988D02*
X002140Y010988D01*
X002213Y011107D02*
X001907Y011107D01*
X001789Y011225D02*
X002331Y011225D01*
X002386Y011440D02*
X002140Y011686D01*
X002140Y012034D01*
X002386Y012280D01*
X002734Y012280D01*
X002980Y012034D01*
X002980Y011686D01*
X002734Y011440D01*
X002386Y011440D01*
X002364Y011462D02*
X001756Y011462D01*
X001734Y011440D02*
X001980Y011686D01*
X001980Y012034D01*
X001734Y012280D01*
X001386Y012280D01*
X001140Y012034D01*
X001140Y011686D01*
X001386Y011440D01*
X001734Y011440D01*
X001874Y011581D02*
X002246Y011581D01*
X002140Y011699D02*
X001980Y011699D01*
X001980Y011818D02*
X002140Y011818D01*
X002140Y011936D02*
X001980Y011936D01*
X001959Y012055D02*
X002161Y012055D01*
X002279Y012173D02*
X001841Y012173D01*
X001734Y012440D02*
X001980Y012686D01*
X001980Y013034D01*
X001734Y013280D01*
X001386Y013280D01*
X001140Y013034D01*
X001140Y012686D01*
X001386Y012440D01*
X001734Y012440D01*
X001822Y012529D02*
X002298Y012529D01*
X002386Y012440D02*
X002734Y012440D01*
X002980Y012686D01*
X002980Y013034D01*
X002734Y013280D01*
X002386Y013280D01*
X002140Y013034D01*
X002140Y012686D01*
X002386Y012440D01*
X002179Y012647D02*
X001941Y012647D01*
X001980Y012766D02*
X002140Y012766D01*
X002140Y012884D02*
X001980Y012884D01*
X001980Y013003D02*
X002140Y013003D01*
X002227Y013121D02*
X001893Y013121D01*
X001774Y013240D02*
X002346Y013240D01*
X002386Y013440D02*
X002734Y013440D01*
X002980Y013686D01*
X002980Y014034D01*
X002734Y014280D01*
X002386Y014280D01*
X002140Y014034D01*
X002140Y013686D01*
X002386Y013440D01*
X002350Y013477D02*
X001770Y013477D01*
X001734Y013440D02*
X001980Y013686D01*
X001980Y014034D01*
X001734Y014280D01*
X001386Y014280D01*
X001140Y014034D01*
X001140Y013686D01*
X001386Y013440D01*
X001734Y013440D01*
X001889Y013595D02*
X002231Y013595D01*
X002140Y013714D02*
X001980Y013714D01*
X001980Y013832D02*
X002140Y013832D01*
X002140Y013951D02*
X001980Y013951D01*
X001945Y014069D02*
X002175Y014069D01*
X002294Y014188D02*
X001826Y014188D01*
X001734Y014440D02*
X001980Y014686D01*
X001980Y015034D01*
X001734Y015280D01*
X001386Y015280D01*
X001140Y015034D01*
X001140Y014686D01*
X001386Y014440D01*
X001734Y014440D01*
X001837Y014543D02*
X002283Y014543D01*
X002386Y014440D02*
X002734Y014440D01*
X002980Y014686D01*
X002980Y015034D01*
X002734Y015280D01*
X002386Y015280D01*
X002140Y015034D01*
X002140Y014686D01*
X002386Y014440D01*
X002165Y014662D02*
X001955Y014662D01*
X001980Y014780D02*
X002140Y014780D01*
X002140Y014899D02*
X001980Y014899D01*
X001980Y015017D02*
X002140Y015017D01*
X002242Y015136D02*
X001878Y015136D01*
X001760Y015254D02*
X002360Y015254D01*
X002386Y015440D02*
X002734Y015440D01*
X002980Y015686D01*
X002980Y016034D01*
X002734Y016280D01*
X002386Y016280D01*
X002140Y016034D01*
X002140Y015686D01*
X002386Y015440D01*
X002335Y015491D02*
X001785Y015491D01*
X001734Y015440D02*
X001980Y015686D01*
X001980Y016034D01*
X001734Y016280D01*
X001386Y016280D01*
X001140Y016034D01*
X001140Y015686D01*
X001386Y015440D01*
X001734Y015440D01*
X001904Y015610D02*
X002216Y015610D01*
X002140Y015728D02*
X001980Y015728D01*
X001980Y015847D02*
X002140Y015847D01*
X002140Y015965D02*
X001980Y015965D01*
X001930Y016084D02*
X002190Y016084D01*
X002308Y016202D02*
X001812Y016202D01*
X001734Y016440D02*
X001980Y016686D01*
X001980Y017034D01*
X001734Y017280D01*
X001386Y017280D01*
X001140Y017034D01*
X001140Y016686D01*
X001386Y016440D01*
X001734Y016440D01*
X001852Y016558D02*
X002268Y016558D01*
X002386Y016440D02*
X002734Y016440D01*
X002980Y016686D01*
X002980Y017034D01*
X002734Y017280D01*
X002386Y017280D01*
X002140Y017034D01*
X002140Y016686D01*
X002386Y016440D01*
X002150Y016676D02*
X001970Y016676D01*
X001980Y016795D02*
X002140Y016795D01*
X002140Y016913D02*
X001980Y016913D01*
X001980Y017032D02*
X002140Y017032D01*
X002256Y017150D02*
X001864Y017150D01*
X001745Y017269D02*
X002375Y017269D01*
X002386Y017440D02*
X002140Y017686D01*
X002140Y018034D01*
X002386Y018280D01*
X002734Y018280D01*
X002980Y018034D01*
X002980Y017686D01*
X002734Y017440D01*
X002386Y017440D01*
X002320Y017506D02*
X001800Y017506D01*
X001734Y017440D02*
X001980Y017686D01*
X001980Y018034D01*
X001734Y018280D01*
X001386Y018280D01*
X001140Y018034D01*
X001140Y017686D01*
X001386Y017440D01*
X001734Y017440D01*
X001918Y017624D02*
X002202Y017624D01*
X002140Y017743D02*
X001980Y017743D01*
X001980Y017861D02*
X002140Y017861D01*
X002140Y017980D02*
X001980Y017980D01*
X001916Y018098D02*
X002204Y018098D01*
X002323Y018217D02*
X001797Y018217D01*
X001734Y018440D02*
X001980Y018686D01*
X001980Y019034D01*
X001734Y019280D01*
X001386Y019280D01*
X001140Y019034D01*
X001140Y018686D01*
X001386Y018440D01*
X001734Y018440D01*
X001748Y018454D02*
X002372Y018454D01*
X002386Y018440D02*
X002734Y018440D01*
X002980Y018686D01*
X002980Y019034D01*
X002734Y019280D01*
X002386Y019280D01*
X002140Y019034D01*
X002140Y018686D01*
X002386Y018440D01*
X002254Y018572D02*
X001866Y018572D01*
X001980Y018691D02*
X002140Y018691D01*
X002140Y018809D02*
X001980Y018809D01*
X001980Y018928D02*
X002140Y018928D01*
X002152Y019046D02*
X001968Y019046D01*
X001849Y019165D02*
X002271Y019165D01*
X002386Y019440D02*
X002734Y019440D01*
X002980Y019686D01*
X002980Y020034D01*
X002734Y020280D01*
X002386Y020280D01*
X002140Y020034D01*
X002140Y019686D01*
X002386Y019440D01*
X002306Y019520D02*
X001814Y019520D01*
X001734Y019440D02*
X001980Y019686D01*
X001980Y020034D01*
X001734Y020280D01*
X001386Y020280D01*
X001140Y020034D01*
X001140Y019686D01*
X001386Y019440D01*
X001734Y019440D01*
X001933Y019639D02*
X002187Y019639D01*
X002140Y019757D02*
X001980Y019757D01*
X001980Y019876D02*
X002140Y019876D01*
X002140Y019994D02*
X001980Y019994D01*
X001901Y020113D02*
X002219Y020113D01*
X002337Y020231D02*
X001783Y020231D01*
X001751Y020400D02*
X001600Y020400D01*
X001600Y020820D01*
X001600Y020900D01*
X001520Y020900D01*
X001520Y021320D01*
X001369Y021320D01*
X001100Y021051D01*
X001100Y020900D01*
X001520Y020900D01*
X001520Y020820D01*
X001100Y020820D01*
X001100Y020669D01*
X001369Y020400D01*
X001520Y020400D01*
X001520Y020820D01*
X001600Y020820D01*
X002020Y020820D01*
X002020Y020669D01*
X001751Y020400D01*
X001819Y020468D02*
X002358Y020468D01*
X002386Y020440D02*
X002734Y020440D01*
X002874Y020580D01*
X002916Y020580D01*
X003019Y020623D01*
X004800Y022404D01*
X004800Y022269D01*
X005069Y022000D01*
X005220Y022000D01*
X005220Y022420D01*
X005300Y022420D01*
X005300Y022500D01*
X005720Y022500D01*
X005720Y022651D01*
X005491Y022880D01*
X006084Y022880D01*
X006023Y022819D01*
X006021Y022815D01*
X005840Y022634D01*
X005840Y022286D01*
X006086Y022040D01*
X006434Y022040D01*
X006680Y022286D01*
X006680Y022634D01*
X006655Y022659D01*
X006876Y022880D01*
X009029Y022880D01*
X008800Y022651D01*
X008800Y022500D01*
X009220Y022500D01*
X009220Y022420D01*
X009300Y022420D01*
X009300Y022500D01*
X009720Y022500D01*
X009720Y022651D01*
X009491Y022880D01*
X012244Y022880D01*
X013170Y021954D01*
X013170Y021798D01*
X013398Y021570D01*
X013554Y021570D01*
X014401Y020723D01*
X014504Y020680D01*
X015280Y020680D01*
X015280Y019649D01*
X015209Y019720D01*
X014911Y019720D01*
X014700Y019509D01*
X014700Y019211D01*
X014911Y019000D01*
X015209Y019000D01*
X015280Y019071D01*
X015280Y018649D01*
X015209Y018720D01*
X014911Y018720D01*
X014700Y018509D01*
X014700Y018211D01*
X014911Y018000D01*
X015209Y018000D01*
X015219Y018010D01*
X015180Y017916D01*
X015180Y017140D01*
X015038Y017140D01*
X015017Y017148D01*
X014903Y017148D01*
X014797Y017105D01*
X014715Y017023D01*
X014672Y016917D01*
X014672Y016803D01*
X014715Y016697D01*
X014797Y016615D01*
X014903Y016572D01*
X015017Y016572D01*
X015038Y016580D01*
X015180Y016580D01*
X015180Y015404D01*
X015223Y015301D01*
X015301Y015223D01*
X015780Y014744D01*
X015780Y009104D01*
X015823Y009001D01*
X015901Y008923D01*
X016104Y008720D01*
X015911Y008720D01*
X015700Y008509D01*
X015700Y008211D01*
X015911Y008000D01*
X016209Y008000D01*
X016320Y008111D01*
X016320Y008012D01*
X016280Y007916D01*
X016280Y007804D01*
X016323Y007701D01*
X016700Y007324D01*
X016700Y007211D01*
X016911Y007000D01*
X017024Y007000D01*
X017680Y006344D01*
X017680Y005132D01*
X017570Y005022D01*
X017570Y004698D01*
X017798Y004470D01*
X018122Y004470D01*
X018350Y004698D01*
X018350Y005022D01*
X018240Y005132D01*
X018240Y006516D01*
X018197Y006619D01*
X018119Y006697D01*
X017420Y007396D01*
X017420Y007509D01*
X017209Y007720D01*
X017096Y007720D01*
X016800Y008016D01*
X016800Y008111D01*
X016911Y008000D01*
X017209Y008000D01*
X017420Y008211D01*
X017420Y008509D01*
X017209Y008720D01*
X016911Y008720D01*
X016840Y008649D01*
X016840Y008716D01*
X016797Y008819D01*
X016340Y009276D01*
X016340Y014660D01*
X016851Y014660D01*
X016700Y014509D01*
X016700Y014211D01*
X016911Y014000D01*
X017209Y014000D01*
X017420Y014211D01*
X017420Y014509D01*
X017269Y014660D01*
X017377Y014660D01*
X017700Y014337D01*
X017700Y014211D01*
X017911Y014000D01*
X018209Y014000D01*
X018420Y014211D01*
X018420Y014509D01*
X018209Y014720D01*
X017911Y014720D01*
X017897Y014706D01*
X017543Y015060D01*
X017269Y015060D01*
X017420Y015211D01*
X017420Y015509D01*
X017209Y015720D01*
X016911Y015720D01*
X016700Y015509D01*
X016700Y015211D01*
X016851Y015060D01*
X016256Y015060D01*
X015740Y015576D01*
X015740Y017744D01*
X015797Y017801D01*
X015840Y017904D01*
X015840Y018071D01*
X015911Y018000D01*
X016209Y018000D01*
X016420Y018211D01*
X016420Y018509D01*
X016209Y018720D01*
X015911Y018720D01*
X015840Y018649D01*
X015840Y019071D01*
X015911Y019000D01*
X016209Y019000D01*
X016420Y019211D01*
X016420Y019509D01*
X016209Y019720D01*
X015911Y019720D01*
X015840Y019649D01*
X015840Y020680D01*
X020516Y020680D01*
X020619Y020723D01*
X020697Y020801D01*
X021176Y021280D01*
X021329Y021280D01*
X021100Y021051D01*
X021100Y020900D01*
X021520Y020900D01*
X021520Y020820D01*
X021600Y020820D01*
X021600Y020900D01*
X022020Y020900D01*
X022020Y021004D01*
X022140Y020884D01*
X022140Y020686D01*
X022386Y020440D01*
X022734Y020440D01*
X022980Y020686D01*
X022980Y021034D01*
X022734Y021280D01*
X022536Y021280D01*
X022097Y021719D01*
X022019Y021797D01*
X021916Y021840D01*
X021004Y021840D01*
X020901Y021797D01*
X020344Y021240D01*
X017740Y021240D01*
X017740Y021346D01*
X017880Y021486D01*
X017880Y021834D01*
X017634Y022080D01*
X017286Y022080D01*
X017040Y021834D01*
X017040Y021486D01*
X017180Y021346D01*
X017180Y021240D01*
X014676Y021240D01*
X013950Y021966D01*
X013950Y022122D01*
X013722Y022350D01*
X013566Y022350D01*
X012519Y023397D01*
X012416Y023440D01*
X005104Y023440D01*
X005001Y023397D01*
X004486Y022882D01*
X004510Y022940D01*
X004510Y023780D01*
X004449Y023926D01*
X005313Y024790D01*
X009717Y024790D01*
X009873Y024725D01*
X010047Y024725D01*
X010203Y024790D01*
X012817Y024790D01*
X012973Y024725D01*
X013147Y024725D01*
X013306Y024791D01*
X013320Y024804D01*
X013780Y024344D01*
X013780Y023976D01*
X013523Y023719D01*
X013480Y023616D01*
X013480Y022804D01*
X013523Y022701D01*
X013601Y022623D01*
X014801Y021423D01*
X014904Y021380D01*
X016040Y021380D01*
X016040Y021310D01*
X016110Y021240D01*
X016810Y021240D01*
X016880Y021310D01*
X016880Y022010D01*
X016810Y022080D01*
X016110Y022080D01*
X016040Y022010D01*
X016040Y021940D01*
X015076Y021940D01*
X014040Y022976D01*
X014040Y023444D01*
X014219Y023623D01*
X014297Y023701D01*
X014340Y023804D01*
X014340Y024516D01*
X014297Y024619D01*
X013670Y025246D01*
X014613Y026190D01*
X020307Y026190D01*
X021690Y024807D01*
X021690Y023956D01*
X021679Y023945D01*
X021610Y023780D01*
X021610Y022940D01*
X021679Y022775D01*
X021805Y022649D01*
X021970Y022580D01*
X022150Y022580D01*
X022315Y022649D01*
X022441Y022775D01*
X022510Y022940D01*
X022510Y023780D01*
X022441Y023945D01*
X022430Y023956D01*
X022430Y025034D01*
X022374Y025170D01*
X020774Y026770D01*
X020670Y026874D01*
X020534Y026930D01*
X014386Y026930D01*
X014250Y026874D01*
X012971Y025594D01*
X012817Y025530D01*
X010203Y025530D01*
X010047Y025595D01*
X009873Y025595D01*
X009827Y025576D01*
X009260Y026143D01*
X009260Y030051D01*
X009420Y030211D01*
X009420Y030509D01*
X009209Y030720D01*
X008911Y030720D01*
X008700Y030509D01*
X008700Y030211D01*
X008860Y030051D01*
X008860Y025977D01*
X009307Y025530D01*
X005086Y025530D01*
X004950Y025474D01*
X003850Y024374D01*
X003746Y024270D01*
X003690Y024134D01*
X003690Y023956D01*
X003679Y023945D01*
X003610Y023780D01*
X003610Y022940D01*
X003679Y022775D01*
X003805Y022649D01*
X003970Y022580D01*
X004150Y022580D01*
X004208Y022604D01*
X002809Y021205D01*
X002734Y021280D01*
X002386Y021280D01*
X002140Y021034D01*
X002140Y020686D01*
X002386Y020440D01*
X002239Y020587D02*
X001937Y020587D01*
X002020Y020705D02*
X002140Y020705D01*
X002140Y020824D02*
X001600Y020824D01*
X001600Y020900D02*
X002020Y020900D01*
X002020Y021051D01*
X001751Y021320D01*
X001600Y021320D01*
X001600Y020900D01*
X001600Y020942D02*
X001520Y020942D01*
X001520Y020824D02*
X000870Y020824D01*
X000870Y020942D02*
X001100Y020942D01*
X001110Y021061D02*
X000870Y021061D01*
X000870Y021179D02*
X001229Y021179D01*
X001347Y021298D02*
X000870Y021298D01*
X000870Y021416D02*
X003020Y021416D01*
X002902Y021298D02*
X001773Y021298D01*
X001891Y021179D02*
X002285Y021179D01*
X002167Y021061D02*
X002010Y021061D01*
X002020Y020942D02*
X002140Y020942D01*
X001600Y021061D02*
X001520Y021061D01*
X001520Y021179D02*
X001600Y021179D01*
X001600Y021298D02*
X001520Y021298D01*
X001520Y020705D02*
X001600Y020705D01*
X001600Y020587D02*
X001520Y020587D01*
X001520Y020468D02*
X001600Y020468D01*
X001301Y020468D02*
X000870Y020468D01*
X000870Y020350D02*
X005090Y020350D01*
X005090Y020468D02*
X002762Y020468D01*
X002931Y020587D02*
X005090Y020587D01*
X005090Y020705D02*
X003101Y020705D01*
X003220Y020824D02*
X005090Y020824D01*
X005090Y020942D02*
X003338Y020942D01*
X003457Y021061D02*
X005065Y021061D01*
X004947Y021179D02*
X003575Y021179D01*
X003694Y021298D02*
X004840Y021298D01*
X004840Y021416D02*
X003812Y021416D01*
X003931Y021535D02*
X004840Y021535D01*
X004859Y021653D02*
X004049Y021653D01*
X004168Y021772D02*
X004978Y021772D01*
X005061Y022009D02*
X004405Y022009D01*
X004523Y022127D02*
X004942Y022127D01*
X004824Y022246D02*
X004642Y022246D01*
X004760Y022364D02*
X004800Y022364D01*
X005220Y022364D02*
X005300Y022364D01*
X005300Y022420D02*
X005300Y022000D01*
X005451Y022000D01*
X005720Y022269D01*
X005720Y022420D01*
X005300Y022420D01*
X005300Y022483D02*
X005840Y022483D01*
X005840Y022601D02*
X005720Y022601D01*
X005651Y022720D02*
X005926Y022720D01*
X006042Y022838D02*
X005532Y022838D01*
X005720Y022364D02*
X005840Y022364D01*
X005880Y022246D02*
X005696Y022246D01*
X005578Y022127D02*
X005999Y022127D01*
X005978Y021772D02*
X005542Y021772D01*
X005661Y021653D02*
X005859Y021653D01*
X005840Y021535D02*
X005680Y021535D01*
X005680Y021416D02*
X005840Y021416D01*
X005840Y021298D02*
X005680Y021298D01*
X005573Y021179D02*
X005947Y021179D01*
X006065Y021061D02*
X005455Y021061D01*
X005430Y020942D02*
X006090Y020942D01*
X006090Y020824D02*
X005430Y020824D01*
X005430Y020705D02*
X006090Y020705D01*
X006090Y020587D02*
X005430Y020587D01*
X005430Y020468D02*
X006090Y020468D01*
X006090Y020350D02*
X005430Y020350D01*
X005430Y020231D02*
X006090Y020231D01*
X006090Y020113D02*
X005430Y020113D01*
X005466Y019994D02*
X006090Y019994D01*
X006090Y019876D02*
X005585Y019876D01*
X005703Y019757D02*
X006090Y019757D01*
X006090Y019639D02*
X005822Y019639D01*
X005940Y019520D02*
X006090Y019520D01*
X006090Y019402D02*
X006059Y019402D01*
X005815Y019165D02*
X002849Y019165D01*
X002968Y019046D02*
X005934Y019046D01*
X006052Y018928D02*
X002980Y018928D01*
X002980Y018809D02*
X006171Y018809D01*
X006239Y018691D02*
X006289Y018691D01*
X006357Y018572D02*
X006390Y018572D01*
X006390Y018098D02*
X006307Y018098D01*
X006500Y017980D02*
X002980Y017980D01*
X002980Y017861D02*
X006619Y017861D01*
X006737Y017743D02*
X002980Y017743D01*
X002918Y017624D02*
X005815Y017624D01*
X005911Y017720D02*
X005700Y017509D01*
X005700Y017211D01*
X005911Y017000D01*
X006209Y017000D01*
X006420Y017211D01*
X006420Y017509D01*
X006209Y017720D01*
X005911Y017720D01*
X005700Y017506D02*
X002800Y017506D01*
X002745Y017269D02*
X005700Y017269D01*
X005700Y017387D02*
X000870Y017387D01*
X000870Y017269D02*
X001375Y017269D01*
X001256Y017150D02*
X000870Y017150D01*
X000870Y017032D02*
X001140Y017032D01*
X001140Y016913D02*
X000870Y016913D01*
X000870Y016795D02*
X001140Y016795D01*
X001150Y016676D02*
X000870Y016676D01*
X000870Y016558D02*
X001268Y016558D01*
X001308Y016202D02*
X000870Y016202D01*
X000870Y016084D02*
X001190Y016084D01*
X001140Y015965D02*
X000870Y015965D01*
X000870Y015847D02*
X001140Y015847D01*
X001140Y015728D02*
X000870Y015728D01*
X000870Y015610D02*
X001216Y015610D01*
X001335Y015491D02*
X000870Y015491D01*
X000870Y015373D02*
X005700Y015373D01*
X005700Y015491D02*
X002785Y015491D01*
X002904Y015610D02*
X005800Y015610D01*
X005700Y015509D02*
X005911Y015720D01*
X006209Y015720D01*
X006420Y015509D01*
X006420Y015211D01*
X006209Y015000D01*
X005911Y015000D01*
X005700Y015211D01*
X005700Y015509D01*
X005700Y015254D02*
X002760Y015254D01*
X002878Y015136D02*
X005775Y015136D01*
X005894Y015017D02*
X002980Y015017D01*
X002980Y014899D02*
X007690Y014899D01*
X007690Y015017D02*
X007283Y015017D01*
X007226Y014960D02*
X007460Y015194D01*
X007460Y015340D01*
X007080Y015340D01*
X007080Y015380D01*
X007460Y015380D01*
X007460Y015526D01*
X007226Y015760D01*
X007080Y015760D01*
X007080Y015380D01*
X007040Y015380D01*
X007040Y015760D01*
X006894Y015760D01*
X006660Y015526D01*
X006660Y015380D01*
X007040Y015380D01*
X007040Y015340D01*
X007080Y015340D01*
X007080Y014960D01*
X007226Y014960D01*
X007080Y015017D02*
X007040Y015017D01*
X007040Y014960D02*
X007040Y015340D01*
X006660Y015340D01*
X006660Y015194D01*
X006894Y014960D01*
X007040Y014960D01*
X007040Y015136D02*
X007080Y015136D01*
X007080Y015254D02*
X007040Y015254D01*
X007040Y015373D02*
X006420Y015373D01*
X006420Y015491D02*
X006660Y015491D01*
X006744Y015610D02*
X006320Y015610D01*
X006420Y015254D02*
X006660Y015254D01*
X006719Y015136D02*
X006345Y015136D01*
X006226Y015017D02*
X006837Y015017D01*
X006911Y014720D02*
X006700Y014509D01*
X006700Y014211D01*
X006911Y014000D01*
X007209Y014000D01*
X007420Y014211D01*
X007420Y014509D01*
X007209Y014720D01*
X006911Y014720D01*
X006852Y014662D02*
X006268Y014662D01*
X006209Y014720D02*
X006420Y014509D01*
X006420Y014211D01*
X006209Y014000D01*
X005911Y014000D01*
X005700Y014211D01*
X005700Y014509D01*
X005911Y014720D01*
X006209Y014720D01*
X006386Y014543D02*
X006734Y014543D01*
X006700Y014425D02*
X006420Y014425D01*
X006420Y014306D02*
X006700Y014306D01*
X006723Y014188D02*
X006397Y014188D01*
X006278Y014069D02*
X006842Y014069D01*
X006904Y013714D02*
X006216Y013714D01*
X006209Y013720D02*
X005911Y013720D01*
X005700Y013509D01*
X005700Y013211D01*
X005911Y013000D01*
X006209Y013000D01*
X006420Y013211D01*
X006420Y013509D01*
X006209Y013720D01*
X006334Y013595D02*
X006786Y013595D01*
X006700Y013477D02*
X006420Y013477D01*
X006420Y013358D02*
X006700Y013358D01*
X006700Y013240D02*
X006420Y013240D01*
X006330Y013121D02*
X006790Y013121D01*
X006908Y013003D02*
X006212Y013003D01*
X006209Y012720D02*
X005911Y012720D01*
X005700Y012509D01*
X005700Y012211D01*
X005911Y012000D01*
X006209Y012000D01*
X006420Y012211D01*
X006420Y012509D01*
X006209Y012720D01*
X006282Y012647D02*
X006838Y012647D01*
X006719Y012529D02*
X006401Y012529D01*
X006420Y012410D02*
X006700Y012410D01*
X006700Y012292D02*
X006420Y012292D01*
X006382Y012173D02*
X006738Y012173D01*
X006472Y012055D02*
X006264Y012055D01*
X006353Y011936D02*
X002980Y011936D01*
X002980Y011818D02*
X006235Y011818D01*
X005890Y011699D02*
X002980Y011699D01*
X002874Y011581D02*
X005771Y011581D01*
X005700Y011462D02*
X002756Y011462D01*
X002789Y011225D02*
X005700Y011225D01*
X005700Y011344D02*
X000870Y011344D01*
X000870Y011462D02*
X001364Y011462D01*
X001246Y011581D02*
X000870Y011581D01*
X000870Y011699D02*
X001140Y011699D01*
X001140Y011818D02*
X000870Y011818D01*
X000870Y011936D02*
X001140Y011936D01*
X001161Y012055D02*
X000870Y012055D01*
X000870Y012173D02*
X001279Y012173D01*
X001298Y012529D02*
X000870Y012529D01*
X000870Y012647D02*
X001179Y012647D01*
X001140Y012766D02*
X000870Y012766D01*
X000870Y012884D02*
X001140Y012884D01*
X001140Y013003D02*
X000870Y013003D01*
X000870Y013121D02*
X001227Y013121D01*
X001346Y013240D02*
X000870Y013240D01*
X000870Y013358D02*
X005700Y013358D01*
X005700Y013240D02*
X002774Y013240D01*
X002893Y013121D02*
X005790Y013121D01*
X005908Y013003D02*
X002980Y013003D01*
X002980Y012884D02*
X008780Y012884D01*
X008780Y012766D02*
X002980Y012766D01*
X002941Y012647D02*
X005838Y012647D01*
X005719Y012529D02*
X002822Y012529D01*
X002841Y012173D02*
X005738Y012173D01*
X005700Y012292D02*
X000870Y012292D01*
X000870Y012410D02*
X005700Y012410D01*
X005856Y012055D02*
X002959Y012055D01*
X002907Y011107D02*
X005804Y011107D01*
X005911Y010720D02*
X005700Y010509D01*
X005700Y010211D01*
X005911Y010000D01*
X006209Y010000D01*
X006420Y010211D01*
X006420Y010509D01*
X006209Y010720D01*
X005911Y010720D01*
X005823Y010633D02*
X002926Y010633D01*
X002980Y010751D02*
X008780Y010751D01*
X008780Y010633D02*
X007297Y010633D01*
X007209Y010720D02*
X006911Y010720D01*
X006700Y010509D01*
X006700Y010211D01*
X006911Y010000D01*
X007209Y010000D01*
X007420Y010211D01*
X007420Y010509D01*
X007209Y010720D01*
X007415Y010514D02*
X008780Y010514D01*
X008780Y010396D02*
X007420Y010396D01*
X007420Y010277D02*
X008780Y010277D01*
X008780Y010159D02*
X007368Y010159D01*
X007249Y010040D02*
X008780Y010040D01*
X008780Y009922D02*
X002980Y009922D01*
X002974Y010040D02*
X005871Y010040D01*
X005752Y010159D02*
X002855Y010159D01*
X002737Y010277D02*
X005700Y010277D01*
X005700Y010396D02*
X000870Y010396D01*
X000870Y010514D02*
X001312Y010514D01*
X001194Y010633D02*
X000870Y010633D01*
X000870Y010751D02*
X001140Y010751D01*
X001140Y010870D02*
X000870Y010870D01*
X000870Y010988D02*
X001140Y010988D01*
X001213Y011107D02*
X000870Y011107D01*
X000870Y011225D02*
X001331Y011225D01*
X001383Y010277D02*
X000870Y010277D01*
X000870Y010159D02*
X001265Y010159D01*
X001146Y010040D02*
X000870Y010040D01*
X000870Y009922D02*
X001140Y009922D01*
X001140Y009803D02*
X000870Y009803D01*
X000870Y009685D02*
X001142Y009685D01*
X001260Y009566D02*
X000870Y009566D01*
X000870Y009448D02*
X001379Y009448D01*
X001317Y009211D02*
X000870Y009211D01*
X000870Y009329D02*
X005700Y009329D01*
X005700Y009211D02*
X005911Y009000D01*
X006209Y009000D01*
X006420Y009211D01*
X006420Y009509D01*
X006209Y009720D01*
X005911Y009720D01*
X005700Y009509D01*
X005700Y009211D01*
X002803Y009211D01*
X002922Y009092D02*
X005819Y009092D01*
X005871Y008737D02*
X002980Y008737D01*
X002980Y008855D02*
X008780Y008855D01*
X008780Y008974D02*
X002980Y008974D01*
X002912Y008618D02*
X005752Y008618D01*
X005660Y008500D02*
X002793Y008500D01*
X002751Y008263D02*
X005660Y008263D01*
X005660Y008381D02*
X000870Y008381D01*
X000870Y008263D02*
X001369Y008263D01*
X001250Y008144D02*
X000870Y008144D01*
X000870Y008026D02*
X001140Y008026D01*
X001140Y007907D02*
X000870Y007907D01*
X000870Y007789D02*
X001140Y007789D01*
X001156Y007670D02*
X000870Y007670D01*
X000870Y007552D02*
X001275Y007552D01*
X001302Y007196D02*
X000870Y007196D01*
X000870Y007078D02*
X001184Y007078D01*
X001140Y006959D02*
X000870Y006959D01*
X000870Y006841D02*
X001140Y006841D01*
X001140Y006722D02*
X000870Y006722D01*
X000870Y006604D02*
X001223Y006604D01*
X001341Y006485D02*
X000870Y006485D01*
X000870Y006367D02*
X008127Y006367D01*
X008450Y006011D02*
X011780Y006011D01*
X011780Y005893D02*
X008332Y005893D01*
X008213Y005774D02*
X011780Y005774D01*
X011780Y005656D02*
X008095Y005656D01*
X007976Y005537D02*
X011741Y005537D01*
X011623Y005419D02*
X007858Y005419D01*
X007739Y005300D02*
X011504Y005300D01*
X011386Y005182D02*
X009225Y005182D01*
X008895Y005182D02*
X007621Y005182D01*
X007502Y005063D02*
X008754Y005063D01*
X008705Y004945D02*
X007384Y004945D01*
X007265Y004826D02*
X008700Y004826D01*
X008734Y004708D02*
X007147Y004708D01*
X006341Y004589D02*
X008822Y004589D01*
X008569Y006130D02*
X011780Y006130D01*
X011780Y006248D02*
X008687Y006248D01*
X008781Y006367D02*
X011780Y006367D01*
X011780Y006485D02*
X008800Y006485D01*
X008800Y006604D02*
X011780Y006604D01*
X011780Y006722D02*
X008800Y006722D01*
X008800Y006841D02*
X011780Y006841D01*
X011780Y006959D02*
X008800Y006959D01*
X008800Y007078D02*
X008833Y007078D01*
X009287Y007078D02*
X009833Y007078D01*
X009911Y007000D02*
X009700Y007211D01*
X009700Y007509D01*
X009911Y007720D01*
X010209Y007720D01*
X010420Y007509D01*
X010420Y007211D01*
X010209Y007000D01*
X009911Y007000D01*
X009715Y007196D02*
X009405Y007196D01*
X009420Y007315D02*
X009700Y007315D01*
X009700Y007433D02*
X009420Y007433D01*
X009378Y007552D02*
X009742Y007552D01*
X009861Y007670D02*
X009259Y007670D01*
X009235Y008026D02*
X009885Y008026D01*
X009911Y008000D02*
X010209Y008000D01*
X010420Y008211D01*
X010420Y008509D01*
X010209Y008720D01*
X009911Y008720D01*
X009700Y008509D01*
X009700Y008211D01*
X009911Y008000D01*
X009767Y008144D02*
X009353Y008144D01*
X009420Y008263D02*
X009700Y008263D01*
X009700Y008381D02*
X009420Y008381D01*
X009420Y008500D02*
X009700Y008500D01*
X009809Y008618D02*
X009340Y008618D01*
X009340Y008737D02*
X010871Y008737D01*
X010752Y008618D02*
X010311Y008618D01*
X010420Y008500D02*
X010660Y008500D01*
X010660Y008381D02*
X010420Y008381D01*
X010420Y008263D02*
X010660Y008263D01*
X010660Y008194D02*
X010660Y008340D01*
X011040Y008340D01*
X011040Y007960D01*
X010894Y007960D01*
X010660Y008194D01*
X010710Y008144D02*
X010353Y008144D01*
X010235Y008026D02*
X010829Y008026D01*
X011040Y008026D02*
X011080Y008026D01*
X011080Y008144D02*
X011040Y008144D01*
X011040Y008263D02*
X011080Y008263D01*
X011080Y008381D02*
X011040Y008381D01*
X011040Y008500D02*
X011080Y008500D01*
X011080Y008618D02*
X011040Y008618D01*
X011040Y008737D02*
X011080Y008737D01*
X011249Y008737D02*
X011280Y008737D01*
X011280Y008855D02*
X009340Y008855D01*
X009340Y008974D02*
X011280Y008974D01*
X011280Y009092D02*
X009340Y009092D01*
X009340Y009211D02*
X011280Y009211D01*
X011280Y009329D02*
X009340Y009329D01*
X009340Y009448D02*
X011280Y009448D01*
X011280Y009566D02*
X009340Y009566D01*
X009340Y009685D02*
X011280Y009685D01*
X011280Y009803D02*
X009340Y009803D01*
X009340Y009922D02*
X011280Y009922D01*
X011280Y010040D02*
X009340Y010040D01*
X009340Y010159D02*
X011280Y010159D01*
X011280Y010277D02*
X009340Y010277D01*
X009340Y010396D02*
X011280Y010396D01*
X011280Y010514D02*
X009340Y010514D01*
X009340Y010633D02*
X011280Y010633D01*
X011280Y010751D02*
X009340Y010751D01*
X009340Y010870D02*
X011280Y010870D01*
X011280Y010988D02*
X009340Y010988D01*
X009340Y011107D02*
X011280Y011107D01*
X011280Y011225D02*
X009340Y011225D01*
X009340Y011344D02*
X011280Y011344D01*
X011280Y011462D02*
X009340Y011462D01*
X009340Y011581D02*
X011280Y011581D01*
X011280Y011699D02*
X009340Y011699D01*
X009340Y011818D02*
X011280Y011818D01*
X011280Y011936D02*
X009340Y011936D01*
X009340Y012055D02*
X011280Y012055D01*
X011280Y012173D02*
X009340Y012173D01*
X009340Y012292D02*
X011280Y012292D01*
X011280Y012410D02*
X009340Y012410D01*
X009340Y012529D02*
X011280Y012529D01*
X011280Y012647D02*
X009340Y012647D01*
X009340Y012766D02*
X011280Y012766D01*
X011280Y012884D02*
X009340Y012884D01*
X009340Y013003D02*
X011280Y013003D01*
X011280Y013121D02*
X009340Y013121D01*
X009340Y013240D02*
X011280Y013240D01*
X011280Y013358D02*
X009340Y013358D01*
X009340Y013477D02*
X011280Y013477D01*
X011280Y013595D02*
X009340Y013595D01*
X009340Y013714D02*
X011280Y013714D01*
X011280Y013832D02*
X009340Y013832D01*
X009340Y013951D02*
X011280Y013951D01*
X011280Y014069D02*
X009340Y014069D01*
X009340Y014188D02*
X011280Y014188D01*
X011280Y014306D02*
X009340Y014306D01*
X009340Y014425D02*
X011280Y014425D01*
X011280Y014543D02*
X009340Y014543D01*
X009340Y014662D02*
X011280Y014662D01*
X011280Y014780D02*
X009340Y014780D01*
X009340Y014899D02*
X011280Y014899D01*
X011280Y015017D02*
X009340Y015017D01*
X009340Y015136D02*
X011280Y015136D01*
X011280Y015254D02*
X009340Y015254D01*
X009340Y015373D02*
X011280Y015373D01*
X011280Y015491D02*
X009340Y015491D01*
X009340Y015610D02*
X011280Y015610D01*
X011280Y015728D02*
X009340Y015728D01*
X009340Y015847D02*
X011280Y015847D01*
X011280Y015965D02*
X009340Y015965D01*
X009340Y016084D02*
X011280Y016084D01*
X011280Y016202D02*
X009340Y016202D01*
X009340Y016321D02*
X011280Y016321D01*
X011280Y016439D02*
X009340Y016439D01*
X009340Y016558D02*
X011280Y016558D01*
X011280Y016676D02*
X009784Y016676D01*
X009845Y016795D02*
X011280Y016795D01*
X011280Y016913D02*
X009848Y016913D01*
X009796Y017032D02*
X011280Y017032D01*
X011280Y017150D02*
X009109Y017150D01*
X009209Y017269D02*
X011280Y017269D01*
X011280Y017387D02*
X009327Y017387D01*
X009446Y017506D02*
X011280Y017506D01*
X011280Y017624D02*
X009564Y017624D01*
X009683Y017743D02*
X011280Y017743D01*
X011280Y017861D02*
X009730Y017861D01*
X009730Y017980D02*
X011280Y017980D01*
X010813Y018098D02*
X010307Y018098D01*
X010420Y018217D02*
X010700Y018217D01*
X010700Y018335D02*
X010420Y018335D01*
X010420Y018454D02*
X010700Y018454D01*
X010763Y018572D02*
X010357Y018572D01*
X010239Y018691D02*
X010881Y018691D01*
X011096Y018928D02*
X009730Y018928D01*
X009730Y019046D02*
X009865Y019046D01*
X009746Y019165D02*
X009730Y019165D01*
X009390Y019124D02*
X009390Y018539D01*
X009209Y018720D01*
X008911Y018720D01*
X008730Y018539D01*
X008730Y019124D01*
X008894Y018960D01*
X009040Y018960D01*
X009040Y019340D01*
X009080Y019340D01*
X009080Y018960D01*
X009226Y018960D01*
X009390Y019124D01*
X009390Y019046D02*
X009312Y019046D01*
X009390Y018928D02*
X008730Y018928D01*
X008730Y019046D02*
X008808Y019046D01*
X009040Y019046D02*
X009080Y019046D01*
X009080Y019165D02*
X009040Y019165D01*
X009040Y019283D02*
X009080Y019283D01*
X009080Y019402D02*
X009040Y019402D01*
X009040Y019520D02*
X009080Y019520D01*
X009080Y019639D02*
X009040Y019639D01*
X009040Y019757D02*
X009080Y019757D01*
X009229Y019757D02*
X009390Y019757D01*
X009390Y019639D02*
X009347Y019639D01*
X009390Y019876D02*
X008730Y019876D01*
X008730Y019994D02*
X009390Y019994D01*
X009390Y020113D02*
X008730Y020113D01*
X008729Y020231D02*
X009390Y020231D01*
X009390Y020350D02*
X008611Y020350D01*
X008492Y020468D02*
X009390Y020468D01*
X009390Y020587D02*
X008374Y020587D01*
X008255Y020705D02*
X009390Y020705D01*
X009390Y020824D02*
X008137Y020824D01*
X008018Y020942D02*
X009390Y020942D01*
X009730Y020942D02*
X014182Y020942D01*
X014300Y020824D02*
X009730Y020824D01*
X009730Y020705D02*
X014444Y020705D01*
X014063Y021061D02*
X009730Y021061D01*
X009730Y021179D02*
X013945Y021179D01*
X013826Y021298D02*
X009680Y021298D01*
X009680Y021416D02*
X013708Y021416D01*
X013589Y021535D02*
X010743Y021535D01*
X010738Y021530D02*
X010990Y021782D01*
X010990Y021930D01*
X010590Y021930D01*
X010590Y021990D01*
X010990Y021990D01*
X010990Y022138D01*
X010738Y022390D01*
X010590Y022390D01*
X010590Y021990D01*
X010530Y021990D01*
X010530Y022390D01*
X010382Y022390D01*
X010130Y022138D01*
X010130Y021990D01*
X010530Y021990D01*
X010530Y021930D01*
X010590Y021930D01*
X010590Y021530D01*
X010738Y021530D01*
X010590Y021535D02*
X010530Y021535D01*
X010530Y021530D02*
X010530Y021930D01*
X010130Y021930D01*
X010130Y021782D01*
X010382Y021530D01*
X010530Y021530D01*
X010530Y021653D02*
X010590Y021653D01*
X010590Y021772D02*
X010530Y021772D01*
X010530Y021890D02*
X010590Y021890D01*
X010590Y022009D02*
X010530Y022009D01*
X010530Y022127D02*
X010590Y022127D01*
X010590Y022246D02*
X010530Y022246D01*
X010530Y022364D02*
X010590Y022364D01*
X010764Y022364D02*
X012760Y022364D01*
X012878Y022246D02*
X010883Y022246D01*
X010990Y022127D02*
X012997Y022127D01*
X013115Y022009D02*
X010990Y022009D01*
X010990Y021890D02*
X013170Y021890D01*
X013197Y021772D02*
X010980Y021772D01*
X010861Y021653D02*
X013315Y021653D01*
X013552Y022364D02*
X013860Y022364D01*
X013826Y022246D02*
X013978Y022246D01*
X013944Y022127D02*
X014097Y022127D01*
X014215Y022009D02*
X013950Y022009D01*
X014026Y021890D02*
X014334Y021890D01*
X014452Y021772D02*
X014144Y021772D01*
X014263Y021653D02*
X014571Y021653D01*
X014689Y021535D02*
X014381Y021535D01*
X014500Y021416D02*
X014817Y021416D01*
X014618Y021298D02*
X016053Y021298D01*
X016040Y022009D02*
X015007Y022009D01*
X014889Y022127D02*
X018320Y022127D01*
X018320Y022080D02*
X018286Y022080D01*
X018040Y021834D01*
X018040Y021486D01*
X018286Y021240D01*
X018634Y021240D01*
X018774Y021380D01*
X020116Y021380D01*
X020219Y021423D01*
X021219Y022423D01*
X021297Y022501D01*
X021340Y022604D01*
X021340Y022674D01*
X021441Y022775D01*
X021510Y022940D01*
X021510Y023780D01*
X021441Y023945D01*
X021315Y024071D01*
X021150Y024140D01*
X020970Y024140D01*
X020805Y024071D01*
X020679Y023945D01*
X020610Y023780D01*
X020610Y022940D01*
X020679Y022775D01*
X020729Y022725D01*
X019944Y021940D01*
X018800Y021940D01*
X018800Y022791D01*
X018920Y022911D01*
X018920Y023209D01*
X018709Y023420D01*
X018411Y023420D01*
X018200Y023209D01*
X018200Y022911D01*
X018320Y022791D01*
X018320Y022080D01*
X018215Y022009D02*
X017705Y022009D01*
X017824Y021890D02*
X018096Y021890D01*
X018040Y021772D02*
X017880Y021772D01*
X017880Y021653D02*
X018040Y021653D01*
X018040Y021535D02*
X017880Y021535D01*
X017810Y021416D02*
X018110Y021416D01*
X018228Y021298D02*
X017740Y021298D01*
X017180Y021298D02*
X016867Y021298D01*
X016880Y021416D02*
X017110Y021416D01*
X017040Y021535D02*
X016880Y021535D01*
X016880Y021653D02*
X017040Y021653D01*
X017040Y021772D02*
X016880Y021772D01*
X016880Y021890D02*
X017096Y021890D01*
X017215Y022009D02*
X016880Y022009D01*
X018200Y022957D02*
X014920Y022957D01*
X014920Y022911D02*
X014920Y023137D01*
X016060Y024277D01*
X016060Y025022D01*
X016123Y025084D01*
X016170Y025198D01*
X016170Y025322D01*
X016123Y025436D01*
X016036Y025523D01*
X015922Y025570D01*
X015798Y025570D01*
X015684Y025523D01*
X015597Y025436D01*
X015550Y025322D01*
X015550Y025198D01*
X015597Y025084D01*
X015660Y025022D01*
X015660Y024443D01*
X014637Y023420D01*
X014411Y023420D01*
X014200Y023209D01*
X014200Y022911D01*
X014411Y022700D01*
X014709Y022700D01*
X014920Y022911D01*
X014847Y022838D02*
X018273Y022838D01*
X018320Y022720D02*
X014729Y022720D01*
X014533Y022483D02*
X018320Y022483D01*
X018320Y022601D02*
X014415Y022601D01*
X014391Y022720D02*
X014296Y022720D01*
X014273Y022838D02*
X014178Y022838D01*
X014200Y022957D02*
X014059Y022957D01*
X014040Y023075D02*
X014200Y023075D01*
X014200Y023194D02*
X014040Y023194D01*
X014040Y023312D02*
X014303Y023312D01*
X014145Y023549D02*
X014766Y023549D01*
X014648Y023431D02*
X014040Y023431D01*
X014264Y023668D02*
X014885Y023668D01*
X015003Y023786D02*
X014332Y023786D01*
X014340Y023905D02*
X015122Y023905D01*
X015240Y024023D02*
X014340Y024023D01*
X014340Y024142D02*
X015359Y024142D01*
X015477Y024260D02*
X014340Y024260D01*
X014340Y024379D02*
X015596Y024379D01*
X015660Y024497D02*
X014340Y024497D01*
X014299Y024616D02*
X015660Y024616D01*
X015660Y024734D02*
X014182Y024734D01*
X014063Y024853D02*
X015660Y024853D01*
X015660Y024971D02*
X013945Y024971D01*
X013826Y025090D02*
X015595Y025090D01*
X015550Y025208D02*
X013708Y025208D01*
X013750Y025327D02*
X015552Y025327D01*
X015607Y025445D02*
X013868Y025445D01*
X013987Y025564D02*
X015783Y025564D01*
X015937Y025564D02*
X017684Y025564D01*
X017694Y025570D02*
X017637Y025532D01*
X017588Y025483D01*
X017550Y025426D01*
X017523Y025362D01*
X017510Y025294D01*
X017510Y025260D01*
X017860Y025260D01*
X018210Y025260D01*
X018210Y025294D01*
X018197Y025362D01*
X018170Y025426D01*
X018132Y025483D01*
X018083Y025532D01*
X018026Y025570D01*
X017962Y025597D01*
X017894Y025610D01*
X017860Y025610D01*
X017860Y025260D01*
X017860Y025260D01*
X017860Y025260D01*
X018210Y025260D01*
X018210Y025226D01*
X018197Y025158D01*
X018170Y025094D01*
X018132Y025037D01*
X018083Y024988D01*
X018026Y024950D01*
X017962Y024923D01*
X017894Y024910D01*
X017860Y024910D01*
X017860Y025260D01*
X017860Y025260D01*
X017860Y025260D01*
X017860Y025610D01*
X017826Y025610D01*
X017758Y025597D01*
X017694Y025570D01*
X017860Y025564D02*
X017860Y025564D01*
X017860Y025445D02*
X017860Y025445D01*
X017860Y025327D02*
X017860Y025327D01*
X017860Y025260D02*
X017510Y025260D01*
X017510Y025226D01*
X017523Y025158D01*
X017550Y025094D01*
X017588Y025037D01*
X017637Y024988D01*
X017694Y024950D01*
X017758Y024923D01*
X017826Y024910D01*
X017860Y024910D01*
X017860Y025260D01*
X017860Y025208D02*
X017860Y025208D01*
X017860Y025090D02*
X017860Y025090D01*
X017860Y024971D02*
X017860Y024971D01*
X018058Y024971D02*
X021526Y024971D01*
X021644Y024853D02*
X016060Y024853D01*
X016060Y024971D02*
X017662Y024971D01*
X017553Y025090D02*
X016125Y025090D01*
X016170Y025208D02*
X017513Y025208D01*
X017516Y025327D02*
X016168Y025327D01*
X016113Y025445D02*
X017563Y025445D01*
X018036Y025564D02*
X020933Y025564D01*
X020815Y025682D02*
X014105Y025682D01*
X014224Y025801D02*
X020696Y025801D01*
X020578Y025919D02*
X014342Y025919D01*
X014461Y026038D02*
X020459Y026038D01*
X020341Y026156D02*
X014579Y026156D01*
X014007Y026630D02*
X009260Y026630D01*
X009260Y026512D02*
X013888Y026512D01*
X013770Y026393D02*
X009260Y026393D01*
X009260Y026275D02*
X013651Y026275D01*
X013533Y026156D02*
X009260Y026156D01*
X009365Y026038D02*
X013414Y026038D01*
X013296Y025919D02*
X009484Y025919D01*
X009602Y025801D02*
X013177Y025801D01*
X013059Y025682D02*
X009721Y025682D01*
X010122Y025564D02*
X012898Y025564D01*
X012952Y024734D02*
X010068Y024734D01*
X009980Y024635D02*
X009980Y024180D01*
X009940Y024180D01*
X009940Y024635D01*
X009763Y024635D01*
X009485Y024357D01*
X009485Y024180D01*
X009940Y024180D01*
X009940Y024140D01*
X009485Y024140D01*
X009485Y023963D01*
X009763Y023685D01*
X009940Y023685D01*
X009940Y024140D01*
X009980Y024140D01*
X009980Y024180D01*
X010435Y024180D01*
X010435Y024357D01*
X010157Y024635D01*
X009980Y024635D01*
X009980Y024616D02*
X009940Y024616D01*
X009940Y024497D02*
X009980Y024497D01*
X009980Y024379D02*
X009940Y024379D01*
X009940Y024260D02*
X009980Y024260D01*
X009980Y024142D02*
X013040Y024142D01*
X013040Y024140D02*
X012585Y024140D01*
X012585Y023963D01*
X012863Y023685D01*
X013040Y023685D01*
X013040Y024140D01*
X013040Y024180D01*
X013040Y024635D01*
X012863Y024635D01*
X012585Y024357D01*
X012585Y024180D01*
X013040Y024180D01*
X013080Y024180D01*
X013080Y024635D01*
X013257Y024635D01*
X013535Y024357D01*
X013535Y024180D01*
X013080Y024180D01*
X013080Y024140D01*
X013535Y024140D01*
X013535Y023963D01*
X013257Y023685D01*
X013080Y023685D01*
X013080Y024140D01*
X013040Y024140D01*
X013080Y024142D02*
X013780Y024142D01*
X013780Y024260D02*
X013535Y024260D01*
X013513Y024379D02*
X013745Y024379D01*
X013627Y024497D02*
X013395Y024497D01*
X013508Y024616D02*
X013276Y024616D01*
X013168Y024734D02*
X013390Y024734D01*
X013080Y024616D02*
X013040Y024616D01*
X013040Y024497D02*
X013080Y024497D01*
X013080Y024379D02*
X013040Y024379D01*
X013040Y024260D02*
X013080Y024260D01*
X013080Y024023D02*
X013040Y024023D01*
X013040Y023905D02*
X013080Y023905D01*
X013080Y023786D02*
X013040Y023786D01*
X012762Y023786D02*
X010258Y023786D01*
X010157Y023685D02*
X009980Y023685D01*
X009980Y024140D01*
X010435Y024140D01*
X010435Y023963D01*
X010157Y023685D01*
X009980Y023786D02*
X009940Y023786D01*
X009940Y023905D02*
X009980Y023905D01*
X009980Y024023D02*
X009940Y024023D01*
X009940Y024142D02*
X004665Y024142D01*
X004783Y024260D02*
X009485Y024260D01*
X009507Y024379D02*
X004902Y024379D01*
X005020Y024497D02*
X009625Y024497D01*
X009744Y024616D02*
X005139Y024616D01*
X005257Y024734D02*
X009852Y024734D01*
X010176Y024616D02*
X012844Y024616D01*
X012725Y024497D02*
X010295Y024497D01*
X010413Y024379D02*
X012607Y024379D01*
X012585Y024260D02*
X010435Y024260D01*
X010435Y024023D02*
X012585Y024023D01*
X012644Y023905D02*
X010376Y023905D01*
X009662Y023786D02*
X004507Y023786D01*
X004510Y023668D02*
X013501Y023668D01*
X013480Y023549D02*
X004510Y023549D01*
X004510Y023431D02*
X005081Y023431D01*
X004916Y023312D02*
X004510Y023312D01*
X004510Y023194D02*
X004798Y023194D01*
X004679Y023075D02*
X004510Y023075D01*
X004510Y022957D02*
X004561Y022957D01*
X004205Y022601D02*
X004200Y022601D01*
X004087Y022483D02*
X000870Y022483D01*
X000870Y022601D02*
X001920Y022601D01*
X001970Y022580D02*
X001805Y022649D01*
X001679Y022775D01*
X001610Y022940D01*
X001610Y023780D01*
X001679Y023945D01*
X001690Y023956D01*
X001690Y025534D01*
X001746Y025670D01*
X001850Y025774D01*
X003250Y027174D01*
X003386Y027230D01*
X006190Y027230D01*
X006190Y029256D01*
X006140Y029376D01*
X006140Y030144D01*
X006204Y030298D01*
X006322Y030416D01*
X006476Y030480D01*
X006644Y030480D01*
X006798Y030416D01*
X006916Y030298D01*
X006980Y030144D01*
X006980Y029376D01*
X006930Y029256D01*
X006930Y027103D01*
X006995Y026947D01*
X006995Y026773D01*
X006929Y026614D01*
X006806Y026491D01*
X006647Y026425D01*
X006473Y026425D01*
X006317Y026490D01*
X003613Y026490D01*
X002430Y025307D01*
X002430Y023956D01*
X002441Y023945D01*
X002510Y023780D01*
X002510Y022940D01*
X002441Y022775D01*
X002315Y022649D01*
X002150Y022580D01*
X001970Y022580D01*
X002200Y022601D02*
X002823Y022601D01*
X002803Y022611D02*
X002872Y022576D01*
X002945Y022552D01*
X003010Y022542D01*
X003010Y023310D01*
X003110Y023310D01*
X003110Y023410D01*
X003550Y023410D01*
X003550Y023729D01*
X003538Y023805D01*
X003514Y023878D01*
X003479Y023947D01*
X003434Y024009D01*
X003379Y024064D01*
X003317Y024109D01*
X003248Y024144D01*
X003175Y024168D01*
X003110Y024178D01*
X003110Y023410D01*
X003010Y023410D01*
X003010Y024178D01*
X002945Y024168D01*
X002872Y024144D01*
X002803Y024109D01*
X002741Y024064D01*
X002686Y024009D01*
X002641Y023947D01*
X002606Y023878D01*
X002582Y023805D01*
X002570Y023729D01*
X002570Y023410D01*
X003010Y023410D01*
X003010Y023310D01*
X002570Y023310D01*
X002570Y022991D01*
X002582Y022915D01*
X002606Y022842D01*
X002641Y022773D01*
X002686Y022711D01*
X002741Y022656D01*
X002803Y022611D01*
X002680Y022720D02*
X002386Y022720D01*
X002468Y022838D02*
X002608Y022838D01*
X002576Y022957D02*
X002510Y022957D01*
X002510Y023075D02*
X002570Y023075D01*
X002570Y023194D02*
X002510Y023194D01*
X002510Y023312D02*
X003010Y023312D01*
X003110Y023312D02*
X003610Y023312D01*
X003550Y023310D02*
X003550Y022991D01*
X003538Y022915D01*
X003514Y022842D01*
X003479Y022773D01*
X003434Y022711D01*
X003379Y022656D01*
X003317Y022611D01*
X003248Y022576D01*
X003175Y022552D01*
X003110Y022542D01*
X003110Y023310D01*
X003550Y023310D01*
X003550Y023194D02*
X003610Y023194D01*
X003610Y023075D02*
X003550Y023075D01*
X003544Y022957D02*
X003610Y022957D01*
X003652Y022838D02*
X003512Y022838D01*
X003440Y022720D02*
X003734Y022720D01*
X003920Y022601D02*
X003297Y022601D01*
X003110Y022601D02*
X003010Y022601D01*
X003010Y022720D02*
X003110Y022720D01*
X003110Y022838D02*
X003010Y022838D01*
X003010Y022957D02*
X003110Y022957D01*
X003110Y023075D02*
X003010Y023075D01*
X003010Y023194D02*
X003110Y023194D01*
X003110Y023431D02*
X003010Y023431D01*
X003010Y023549D02*
X003110Y023549D01*
X003110Y023668D02*
X003010Y023668D01*
X003010Y023786D02*
X003110Y023786D01*
X003110Y023905D02*
X003010Y023905D01*
X003010Y024023D02*
X003110Y024023D01*
X003110Y024142D02*
X003010Y024142D01*
X002867Y024142D02*
X002430Y024142D01*
X002430Y024260D02*
X003742Y024260D01*
X003693Y024142D02*
X003253Y024142D01*
X003420Y024023D02*
X003690Y024023D01*
X003662Y023905D02*
X003501Y023905D01*
X003541Y023786D02*
X003613Y023786D01*
X003610Y023668D02*
X003550Y023668D01*
X003550Y023549D02*
X003610Y023549D01*
X003610Y023431D02*
X003550Y023431D01*
X003855Y024379D02*
X002430Y024379D01*
X002430Y024497D02*
X003974Y024497D01*
X004092Y024616D02*
X002430Y024616D01*
X002430Y024734D02*
X004211Y024734D01*
X004329Y024853D02*
X002430Y024853D01*
X002430Y024971D02*
X004448Y024971D01*
X004566Y025090D02*
X002430Y025090D01*
X002430Y025208D02*
X004685Y025208D01*
X004803Y025327D02*
X002450Y025327D01*
X002568Y025445D02*
X004922Y025445D01*
X004546Y024023D02*
X009485Y024023D01*
X009544Y023905D02*
X004458Y023905D01*
X003968Y022364D02*
X000870Y022364D01*
X000870Y022246D02*
X003850Y022246D01*
X003731Y022127D02*
X000870Y022127D01*
X000870Y022009D02*
X003613Y022009D01*
X003494Y021890D02*
X000870Y021890D01*
X000870Y021772D02*
X003376Y021772D01*
X003257Y021653D02*
X000870Y021653D01*
X000870Y021535D02*
X003139Y021535D01*
X004286Y021890D02*
X010130Y021890D01*
X010130Y022009D02*
X009459Y022009D01*
X009451Y022000D02*
X009720Y022269D01*
X009720Y022420D01*
X009300Y022420D01*
X009300Y022000D01*
X009451Y022000D01*
X009300Y022009D02*
X009220Y022009D01*
X009220Y022000D02*
X009220Y022420D01*
X008800Y022420D01*
X008800Y022269D01*
X009069Y022000D01*
X009220Y022000D01*
X009220Y022127D02*
X009300Y022127D01*
X009300Y022246D02*
X009220Y022246D01*
X009220Y022364D02*
X009300Y022364D01*
X009300Y022483D02*
X012641Y022483D01*
X012523Y022601D02*
X009720Y022601D01*
X009651Y022720D02*
X012404Y022720D01*
X012286Y022838D02*
X009532Y022838D01*
X009220Y022483D02*
X008680Y022483D01*
X008680Y022601D02*
X008800Y022601D01*
X008680Y022634D02*
X008434Y022880D01*
X008086Y022880D01*
X007840Y022634D01*
X007840Y022286D01*
X008086Y022040D01*
X008434Y022040D01*
X008680Y022286D01*
X008680Y022634D01*
X008594Y022720D02*
X008869Y022720D01*
X008988Y022838D02*
X008476Y022838D01*
X008044Y022838D02*
X007476Y022838D01*
X007434Y022880D02*
X007680Y022634D01*
X007680Y022286D01*
X007434Y022040D01*
X007086Y022040D01*
X006840Y022286D01*
X006840Y022634D01*
X007086Y022880D01*
X007434Y022880D01*
X007594Y022720D02*
X007926Y022720D01*
X007840Y022601D02*
X007680Y022601D01*
X007680Y022483D02*
X007840Y022483D01*
X007840Y022364D02*
X007680Y022364D01*
X007640Y022246D02*
X007880Y022246D01*
X007999Y022127D02*
X007521Y022127D01*
X007542Y021772D02*
X007978Y021772D01*
X008086Y021880D02*
X007840Y021634D01*
X007840Y021286D01*
X008086Y021040D01*
X008434Y021040D01*
X008680Y021286D01*
X008680Y021634D01*
X008434Y021880D01*
X008086Y021880D01*
X007859Y021653D02*
X007661Y021653D01*
X007680Y021535D02*
X007840Y021535D01*
X007840Y021416D02*
X007680Y021416D01*
X007680Y021298D02*
X007840Y021298D01*
X007781Y021179D02*
X007947Y021179D01*
X007900Y021061D02*
X008065Y021061D01*
X007775Y020705D02*
X006430Y020705D01*
X006430Y020587D02*
X007893Y020587D01*
X008012Y020468D02*
X006430Y020468D01*
X006430Y020350D02*
X008130Y020350D01*
X008249Y020231D02*
X006430Y020231D01*
X006430Y020113D02*
X008367Y020113D01*
X008390Y019994D02*
X006430Y019994D01*
X006430Y019876D02*
X008390Y019876D01*
X008390Y019757D02*
X006430Y019757D01*
X006430Y019639D02*
X006829Y019639D01*
X006711Y019520D02*
X006430Y019520D01*
X006430Y019402D02*
X006700Y019402D01*
X006700Y019283D02*
X006477Y019283D01*
X006596Y019165D02*
X006746Y019165D01*
X006714Y019046D02*
X006865Y019046D01*
X007255Y019046D02*
X007865Y019046D01*
X007746Y019165D02*
X007374Y019165D01*
X007420Y019283D02*
X007700Y019283D01*
X007700Y019402D02*
X007420Y019402D01*
X007409Y019520D02*
X007711Y019520D01*
X007829Y019639D02*
X007291Y019639D01*
X007433Y018928D02*
X008390Y018928D01*
X008390Y019046D02*
X008255Y019046D01*
X008374Y019165D02*
X008390Y019165D01*
X008390Y018809D02*
X007551Y018809D01*
X007670Y018691D02*
X007881Y018691D01*
X007763Y018572D02*
X007730Y018572D01*
X008239Y018691D02*
X008390Y018691D01*
X008390Y018572D02*
X008357Y018572D01*
X008730Y018572D02*
X008763Y018572D01*
X008730Y018691D02*
X008881Y018691D01*
X008730Y018809D02*
X009390Y018809D01*
X009390Y018691D02*
X009239Y018691D01*
X009357Y018572D02*
X009390Y018572D01*
X009730Y018572D02*
X009763Y018572D01*
X009730Y018691D02*
X009881Y018691D01*
X009730Y018809D02*
X011215Y018809D01*
X011239Y018691D02*
X011280Y018691D01*
X010865Y019046D02*
X010255Y019046D01*
X010374Y019165D02*
X010746Y019165D01*
X010700Y019283D02*
X010420Y019283D01*
X010420Y019402D02*
X010700Y019402D01*
X010711Y019520D02*
X010409Y019520D01*
X010291Y019639D02*
X010829Y019639D01*
X011291Y019639D02*
X011829Y019639D01*
X011856Y019665D02*
X011755Y019564D01*
X011700Y019432D01*
X011700Y019288D01*
X011755Y019156D01*
X011856Y019055D01*
X011988Y019000D01*
X012132Y019000D01*
X012264Y019055D01*
X012365Y019156D01*
X012420Y019288D01*
X012420Y019432D01*
X012365Y019564D01*
X012264Y019665D01*
X012132Y019720D01*
X011988Y019720D01*
X011856Y019665D01*
X011737Y019520D02*
X011409Y019520D01*
X011420Y019402D02*
X011700Y019402D01*
X011702Y019283D02*
X011533Y019283D01*
X011651Y019165D02*
X011751Y019165D01*
X011770Y019046D02*
X011877Y019046D01*
X011835Y018928D02*
X012587Y018928D01*
X012469Y018809D02*
X011840Y018809D01*
X011840Y018691D02*
X011881Y018691D01*
X012239Y018691D02*
X012390Y018691D01*
X012390Y018572D02*
X012357Y018572D01*
X012390Y018181D02*
X012390Y017890D01*
X012490Y017790D01*
X012690Y017590D01*
X012690Y009330D01*
X012390Y009030D01*
X012390Y008539D01*
X012209Y008720D01*
X011911Y008720D01*
X011840Y008649D01*
X011840Y018071D01*
X011911Y018000D01*
X012209Y018000D01*
X012390Y018181D01*
X012390Y018098D02*
X012307Y018098D01*
X012390Y017980D02*
X011840Y017980D01*
X011840Y017861D02*
X012419Y017861D01*
X012537Y017743D02*
X011840Y017743D01*
X011840Y017624D02*
X012656Y017624D01*
X012690Y017506D02*
X011840Y017506D01*
X011840Y017387D02*
X012690Y017387D01*
X012690Y017269D02*
X011840Y017269D01*
X011840Y017150D02*
X012690Y017150D01*
X012690Y017032D02*
X011840Y017032D01*
X011840Y016913D02*
X012690Y016913D01*
X012690Y016795D02*
X011840Y016795D01*
X011840Y016676D02*
X012690Y016676D01*
X012690Y016558D02*
X011840Y016558D01*
X011840Y016439D02*
X012690Y016439D01*
X012690Y016321D02*
X011840Y016321D01*
X011840Y016202D02*
X012690Y016202D01*
X012690Y016084D02*
X011840Y016084D01*
X011840Y015965D02*
X012690Y015965D01*
X012690Y015847D02*
X011840Y015847D01*
X011840Y015728D02*
X012690Y015728D01*
X012690Y015610D02*
X011840Y015610D01*
X011840Y015491D02*
X012690Y015491D01*
X012690Y015373D02*
X011840Y015373D01*
X011840Y015254D02*
X012690Y015254D01*
X012690Y015136D02*
X011840Y015136D01*
X011840Y015017D02*
X012690Y015017D01*
X012690Y014899D02*
X011840Y014899D01*
X011840Y014780D02*
X012690Y014780D01*
X012690Y014662D02*
X011840Y014662D01*
X011840Y014543D02*
X012690Y014543D01*
X012690Y014425D02*
X011840Y014425D01*
X011840Y014306D02*
X012690Y014306D01*
X012690Y014188D02*
X011840Y014188D01*
X011840Y014069D02*
X012690Y014069D01*
X012690Y013951D02*
X011840Y013951D01*
X011840Y013832D02*
X012690Y013832D01*
X012690Y013714D02*
X011840Y013714D01*
X011840Y013595D02*
X012690Y013595D01*
X012690Y013477D02*
X011840Y013477D01*
X011840Y013358D02*
X012690Y013358D01*
X012690Y013240D02*
X011840Y013240D01*
X011840Y013121D02*
X012690Y013121D01*
X012690Y013003D02*
X011840Y013003D01*
X011840Y012884D02*
X012690Y012884D01*
X012690Y012766D02*
X011840Y012766D01*
X011840Y012647D02*
X012690Y012647D01*
X012690Y012529D02*
X011840Y012529D01*
X011840Y012410D02*
X012690Y012410D01*
X012690Y012292D02*
X011840Y012292D01*
X011840Y012173D02*
X012690Y012173D01*
X012690Y012055D02*
X011840Y012055D01*
X011840Y011936D02*
X012690Y011936D01*
X012690Y011818D02*
X011840Y011818D01*
X011840Y011699D02*
X012690Y011699D01*
X012690Y011581D02*
X011840Y011581D01*
X011840Y011462D02*
X012690Y011462D01*
X012690Y011344D02*
X011840Y011344D01*
X011840Y011225D02*
X012690Y011225D01*
X012690Y011107D02*
X011840Y011107D01*
X011840Y010988D02*
X012690Y010988D01*
X012690Y010870D02*
X011840Y010870D01*
X011840Y010751D02*
X012690Y010751D01*
X012690Y010633D02*
X011840Y010633D01*
X011840Y010514D02*
X012690Y010514D01*
X012690Y010396D02*
X011840Y010396D01*
X011840Y010277D02*
X012690Y010277D01*
X012690Y010159D02*
X011840Y010159D01*
X011840Y010040D02*
X012690Y010040D01*
X012690Y009922D02*
X011840Y009922D01*
X011840Y009803D02*
X012690Y009803D01*
X012690Y009685D02*
X011840Y009685D01*
X011840Y009566D02*
X012690Y009566D01*
X012690Y009448D02*
X011840Y009448D01*
X011840Y009329D02*
X012689Y009329D01*
X012570Y009211D02*
X011840Y009211D01*
X011840Y009092D02*
X012452Y009092D01*
X012390Y008974D02*
X011840Y008974D01*
X011840Y008855D02*
X012390Y008855D01*
X012390Y008737D02*
X011840Y008737D01*
X012311Y008618D02*
X012390Y008618D01*
X012730Y008618D02*
X012809Y008618D01*
X012730Y008737D02*
X016088Y008737D01*
X015969Y008855D02*
X012730Y008855D01*
X012814Y008974D02*
X015851Y008974D01*
X015785Y009092D02*
X012932Y009092D01*
X013030Y009211D02*
X015780Y009211D01*
X015780Y009329D02*
X013030Y009329D01*
X013030Y009448D02*
X013332Y009448D01*
X013290Y009490D02*
X013390Y009390D01*
X013530Y009390D01*
X015230Y009390D01*
X015330Y009490D01*
X015330Y014130D01*
X015230Y014230D01*
X013390Y014230D01*
X013290Y014130D01*
X013290Y009490D01*
X013290Y009566D02*
X013030Y009566D01*
X013030Y009685D02*
X013290Y009685D01*
X013290Y009803D02*
X013030Y009803D01*
X013030Y009922D02*
X013290Y009922D01*
X013290Y010040D02*
X013030Y010040D01*
X013030Y010159D02*
X013290Y010159D01*
X013290Y010277D02*
X013030Y010277D01*
X013030Y010396D02*
X013290Y010396D01*
X013290Y010514D02*
X013030Y010514D01*
X013030Y010633D02*
X013290Y010633D01*
X013290Y010751D02*
X013030Y010751D01*
X013030Y010870D02*
X013290Y010870D01*
X013290Y010988D02*
X013030Y010988D01*
X013030Y011107D02*
X013290Y011107D01*
X013290Y011225D02*
X013030Y011225D01*
X013030Y011344D02*
X013290Y011344D01*
X013290Y011462D02*
X013030Y011462D01*
X013030Y011581D02*
X013290Y011581D01*
X013290Y011699D02*
X013030Y011699D01*
X013030Y011818D02*
X013290Y011818D01*
X013290Y011936D02*
X013030Y011936D01*
X013030Y012055D02*
X013290Y012055D01*
X013290Y012173D02*
X013030Y012173D01*
X013030Y012292D02*
X013290Y012292D01*
X013290Y012410D02*
X013030Y012410D01*
X013030Y012529D02*
X013290Y012529D01*
X013290Y012647D02*
X013030Y012647D01*
X013030Y012766D02*
X013290Y012766D01*
X013290Y012884D02*
X013030Y012884D01*
X013030Y013003D02*
X013290Y013003D01*
X013290Y013121D02*
X013030Y013121D01*
X013030Y013240D02*
X013290Y013240D01*
X013290Y013358D02*
X013030Y013358D01*
X013030Y013477D02*
X013290Y013477D01*
X013290Y013595D02*
X013030Y013595D01*
X013030Y013714D02*
X013290Y013714D01*
X013290Y013832D02*
X013030Y013832D01*
X013030Y013951D02*
X013290Y013951D01*
X013290Y014069D02*
X013030Y014069D01*
X013030Y014188D02*
X013347Y014188D01*
X013030Y014306D02*
X015780Y014306D01*
X015780Y014188D02*
X015273Y014188D01*
X015330Y014069D02*
X015780Y014069D01*
X015780Y013951D02*
X015330Y013951D01*
X015330Y013832D02*
X015780Y013832D01*
X015780Y013714D02*
X015330Y013714D01*
X015330Y013595D02*
X015780Y013595D01*
X015780Y013477D02*
X015330Y013477D01*
X015330Y013358D02*
X015780Y013358D01*
X015780Y013240D02*
X015330Y013240D01*
X015330Y013121D02*
X015780Y013121D01*
X015780Y013003D02*
X015330Y013003D01*
X015330Y012884D02*
X015780Y012884D01*
X015780Y012766D02*
X015330Y012766D01*
X015330Y012647D02*
X015780Y012647D01*
X015780Y012529D02*
X015330Y012529D01*
X015330Y012410D02*
X015780Y012410D01*
X015780Y012292D02*
X015330Y012292D01*
X015330Y012173D02*
X015780Y012173D01*
X015780Y012055D02*
X015330Y012055D01*
X015330Y011936D02*
X015780Y011936D01*
X015780Y011818D02*
X015330Y011818D01*
X015330Y011699D02*
X015780Y011699D01*
X015780Y011581D02*
X015330Y011581D01*
X015330Y011462D02*
X015780Y011462D01*
X015780Y011344D02*
X015330Y011344D01*
X015330Y011225D02*
X015780Y011225D01*
X015780Y011107D02*
X015330Y011107D01*
X015330Y010988D02*
X015780Y010988D01*
X015780Y010870D02*
X015330Y010870D01*
X015330Y010751D02*
X015780Y010751D01*
X015780Y010633D02*
X015330Y010633D01*
X015330Y010514D02*
X015780Y010514D01*
X015780Y010396D02*
X015330Y010396D01*
X015330Y010277D02*
X015780Y010277D01*
X015780Y010159D02*
X015330Y010159D01*
X015330Y010040D02*
X015780Y010040D01*
X015780Y009922D02*
X015330Y009922D01*
X015330Y009803D02*
X015780Y009803D01*
X015780Y009685D02*
X015330Y009685D01*
X015330Y009566D02*
X015780Y009566D01*
X015780Y009448D02*
X015288Y009448D01*
X015209Y008720D02*
X014911Y008720D01*
X014700Y008509D01*
X014700Y008211D01*
X014911Y008000D01*
X015209Y008000D01*
X015420Y008211D01*
X015420Y008509D01*
X015209Y008720D01*
X015311Y008618D02*
X015809Y008618D01*
X015700Y008500D02*
X015420Y008500D01*
X015420Y008381D02*
X015700Y008381D01*
X015700Y008263D02*
X015420Y008263D01*
X015353Y008144D02*
X015767Y008144D01*
X015885Y008026D02*
X015235Y008026D01*
X015209Y007720D02*
X014911Y007720D01*
X014700Y007509D01*
X014700Y007211D01*
X014911Y007000D01*
X015209Y007000D01*
X015420Y007211D01*
X015420Y007509D01*
X015209Y007720D01*
X015259Y007670D02*
X015861Y007670D01*
X015911Y007720D02*
X015700Y007509D01*
X015700Y007211D01*
X015911Y007000D01*
X016209Y007000D01*
X016420Y007211D01*
X016420Y007509D01*
X016209Y007720D01*
X015911Y007720D01*
X015742Y007552D02*
X015378Y007552D01*
X015420Y007433D02*
X015700Y007433D01*
X015700Y007315D02*
X015420Y007315D01*
X015405Y007196D02*
X015715Y007196D01*
X015833Y007078D02*
X015287Y007078D01*
X014833Y007078D02*
X014343Y007078D01*
X014460Y007194D02*
X014226Y006960D01*
X014080Y006960D01*
X014080Y007340D01*
X014080Y007380D01*
X014460Y007380D01*
X014460Y007526D01*
X014226Y007760D01*
X014080Y007760D01*
X014080Y007380D01*
X014040Y007380D01*
X014040Y007760D01*
X013894Y007760D01*
X013660Y007526D01*
X013660Y007380D01*
X014040Y007380D01*
X014040Y007340D01*
X014080Y007340D01*
X014460Y007340D01*
X014460Y007194D01*
X014460Y007196D02*
X014715Y007196D01*
X014700Y007315D02*
X014460Y007315D01*
X014460Y007433D02*
X014700Y007433D01*
X014742Y007552D02*
X014434Y007552D01*
X014316Y007670D02*
X014861Y007670D01*
X014885Y008026D02*
X014235Y008026D01*
X014209Y008000D02*
X014420Y008211D01*
X014420Y008509D01*
X014209Y008720D01*
X013911Y008720D01*
X013700Y008509D01*
X013700Y008211D01*
X013911Y008000D01*
X014209Y008000D01*
X014353Y008144D02*
X014767Y008144D01*
X014700Y008263D02*
X014420Y008263D01*
X014420Y008381D02*
X014700Y008381D01*
X014700Y008500D02*
X014420Y008500D01*
X014311Y008618D02*
X014809Y008618D01*
X014080Y007670D02*
X014040Y007670D01*
X014040Y007552D02*
X014080Y007552D01*
X014080Y007433D02*
X014040Y007433D01*
X014040Y007340D02*
X013660Y007340D01*
X013660Y007194D01*
X013894Y006960D01*
X014040Y006960D01*
X014040Y007340D01*
X014040Y007315D02*
X014080Y007315D01*
X014080Y007196D02*
X014040Y007196D01*
X014040Y007078D02*
X014080Y007078D01*
X013777Y007078D02*
X013287Y007078D01*
X013405Y007196D02*
X013660Y007196D01*
X013660Y007315D02*
X013420Y007315D01*
X013420Y007433D02*
X013660Y007433D01*
X013686Y007552D02*
X013378Y007552D01*
X013259Y007670D02*
X013804Y007670D01*
X013885Y008026D02*
X013235Y008026D01*
X013353Y008144D02*
X013767Y008144D01*
X013700Y008263D02*
X013420Y008263D01*
X013420Y008381D02*
X013700Y008381D01*
X013700Y008500D02*
X013420Y008500D01*
X013311Y008618D02*
X013809Y008618D01*
X012885Y008026D02*
X012730Y008026D01*
X012730Y008144D02*
X012767Y008144D01*
X012730Y007907D02*
X016280Y007907D01*
X016287Y007789D02*
X012730Y007789D01*
X012730Y007670D02*
X012861Y007670D01*
X012742Y007552D02*
X012730Y007552D01*
X012783Y007078D02*
X012833Y007078D01*
X012901Y006959D02*
X017065Y006959D01*
X017184Y006841D02*
X013020Y006841D01*
X013138Y006722D02*
X017302Y006722D01*
X017421Y006604D02*
X013257Y006604D01*
X013375Y006485D02*
X017539Y006485D01*
X017658Y006367D02*
X013494Y006367D01*
X013612Y006248D02*
X017680Y006248D01*
X017680Y006130D02*
X013731Y006130D01*
X013849Y006011D02*
X017680Y006011D01*
X017680Y005893D02*
X013968Y005893D01*
X014086Y005774D02*
X017680Y005774D01*
X017680Y005656D02*
X014205Y005656D01*
X014323Y005537D02*
X017680Y005537D01*
X017680Y005419D02*
X014442Y005419D01*
X014560Y005300D02*
X017680Y005300D01*
X017680Y005182D02*
X015225Y005182D01*
X015366Y005063D02*
X017611Y005063D01*
X017570Y004945D02*
X015415Y004945D01*
X015420Y004826D02*
X017570Y004826D01*
X017570Y004708D02*
X015386Y004708D01*
X015298Y004589D02*
X017679Y004589D01*
X017798Y004471D02*
X012340Y004471D01*
X012340Y004589D02*
X014822Y004589D01*
X014672Y004708D02*
X012340Y004708D01*
X012340Y004826D02*
X014554Y004826D01*
X014435Y004945D02*
X012340Y004945D01*
X012340Y005063D02*
X014317Y005063D01*
X014198Y005182D02*
X012340Y005182D01*
X012340Y005300D02*
X014080Y005300D01*
X013961Y005419D02*
X012340Y005419D01*
X012340Y005537D02*
X013843Y005537D01*
X013724Y005656D02*
X012340Y005656D01*
X012340Y005774D02*
X013606Y005774D01*
X013487Y005893D02*
X012340Y005893D01*
X012340Y006011D02*
X013369Y006011D01*
X013250Y006130D02*
X012340Y006130D01*
X012340Y006248D02*
X013132Y006248D01*
X013013Y006367D02*
X012340Y006367D01*
X012340Y006485D02*
X012895Y006485D01*
X012776Y006604D02*
X012340Y006604D01*
X012340Y006722D02*
X012658Y006722D01*
X012539Y006841D02*
X012340Y006841D01*
X012340Y006959D02*
X012421Y006959D01*
X012390Y007078D02*
X012340Y007078D01*
X011780Y007078D02*
X011287Y007078D01*
X011209Y007000D02*
X011420Y007211D01*
X011420Y007509D01*
X011209Y007720D01*
X010911Y007720D01*
X010700Y007509D01*
X010700Y007211D01*
X010911Y007000D01*
X011209Y007000D01*
X011405Y007196D02*
X011715Y007196D01*
X011700Y007315D02*
X011420Y007315D01*
X011420Y007433D02*
X011591Y007433D01*
X011473Y007552D02*
X011378Y007552D01*
X011354Y007670D02*
X011259Y007670D01*
X011287Y007789D02*
X008828Y007789D01*
X008800Y007670D02*
X008861Y007670D01*
X008946Y007907D02*
X011280Y007907D01*
X010861Y007670D02*
X010259Y007670D01*
X010378Y007552D02*
X010742Y007552D01*
X010700Y007433D02*
X010420Y007433D01*
X010420Y007315D02*
X010700Y007315D01*
X010715Y007196D02*
X010405Y007196D01*
X010287Y007078D02*
X010833Y007078D01*
X011703Y004708D02*
X011780Y004708D01*
X011780Y004589D02*
X011537Y004589D01*
X011780Y004471D02*
X006222Y004471D01*
X006238Y002290D02*
X006090Y002290D01*
X006090Y001890D01*
X006490Y001890D01*
X006490Y002038D01*
X006238Y002290D01*
X006309Y002219D02*
X008986Y002219D01*
X009134Y002219D02*
X011780Y002219D01*
X011780Y002101D02*
X009329Y002101D01*
X009399Y001982D02*
X011780Y001982D01*
X011780Y001864D02*
X009420Y001864D01*
X009402Y001745D02*
X011780Y001745D01*
X011780Y001627D02*
X009336Y001627D01*
X008784Y001627D02*
X006435Y001627D01*
X006490Y001745D02*
X008718Y001745D01*
X008700Y001864D02*
X006090Y001864D01*
X006030Y001864D02*
X002600Y001864D01*
X002600Y001900D02*
X003020Y001900D01*
X003020Y002051D01*
X002751Y002320D01*
X002600Y002320D01*
X002600Y001900D01*
X002600Y001982D02*
X002520Y001982D01*
X002520Y001864D02*
X001980Y001864D01*
X001980Y001982D02*
X002100Y001982D01*
X002150Y002101D02*
X001913Y002101D01*
X001840Y002219D02*
X002268Y002219D01*
X002369Y002400D02*
X002100Y002669D01*
X002100Y002820D01*
X002520Y002820D01*
X002520Y002900D01*
X002520Y003320D01*
X002369Y003320D01*
X002100Y003051D01*
X002100Y002900D01*
X002520Y002900D01*
X002600Y002900D01*
X002600Y003320D01*
X002751Y003320D01*
X003020Y003051D01*
X003020Y002900D01*
X002600Y002900D01*
X002600Y002820D01*
X003020Y002820D01*
X003020Y002669D01*
X002751Y002400D01*
X002600Y002400D01*
X002600Y002820D01*
X002520Y002820D01*
X002520Y002400D01*
X002369Y002400D01*
X002313Y002456D02*
X001840Y002456D01*
X001840Y002338D02*
X011780Y002338D01*
X011780Y002456D02*
X002807Y002456D01*
X002925Y002575D02*
X011780Y002575D01*
X011780Y002693D02*
X003020Y002693D01*
X003020Y002812D02*
X011780Y002812D01*
X011780Y002930D02*
X003020Y002930D01*
X003020Y003049D02*
X011780Y003049D01*
X011780Y003167D02*
X002904Y003167D01*
X002785Y003286D02*
X011780Y003286D01*
X011780Y003404D02*
X002755Y003404D01*
X002751Y003400D02*
X003020Y003669D01*
X003020Y003820D01*
X002600Y003820D01*
X002600Y003400D01*
X002751Y003400D01*
X002600Y003404D02*
X002520Y003404D01*
X002520Y003286D02*
X002600Y003286D01*
X002600Y003167D02*
X002520Y003167D01*
X002520Y003049D02*
X002600Y003049D01*
X002600Y002930D02*
X002520Y002930D01*
X002520Y002812D02*
X002600Y002812D01*
X002600Y002693D02*
X002520Y002693D01*
X002520Y002575D02*
X002600Y002575D01*
X002600Y002456D02*
X002520Y002456D01*
X002520Y002219D02*
X002600Y002219D01*
X002600Y002101D02*
X002520Y002101D01*
X002852Y002219D02*
X005811Y002219D01*
X005692Y002101D02*
X002970Y002101D01*
X003020Y001982D02*
X005630Y001982D01*
X005630Y001745D02*
X003020Y001745D01*
X002977Y001627D02*
X005685Y001627D01*
X006030Y001982D02*
X006090Y001982D01*
X006090Y002101D02*
X006030Y002101D01*
X006030Y002219D02*
X006090Y002219D01*
X006428Y002101D02*
X008791Y002101D01*
X008721Y001982D02*
X006490Y001982D01*
X002992Y003641D02*
X011780Y003641D01*
X011780Y003523D02*
X002873Y003523D01*
X002600Y003523D02*
X002520Y003523D01*
X002520Y003641D02*
X002600Y003641D01*
X002600Y003760D02*
X002520Y003760D01*
X002520Y003878D02*
X001980Y003878D01*
X001980Y003760D02*
X002100Y003760D01*
X002128Y003641D02*
X001935Y003641D01*
X001840Y003523D02*
X002247Y003523D01*
X002365Y003404D02*
X001840Y003404D01*
X001840Y003286D02*
X002335Y003286D01*
X002216Y003167D02*
X001847Y003167D01*
X001965Y003049D02*
X002100Y003049D01*
X002100Y002930D02*
X001980Y002930D01*
X001980Y002812D02*
X002100Y002812D01*
X002100Y002693D02*
X001980Y002693D01*
X001868Y002575D02*
X002195Y002575D01*
X002100Y001745D02*
X001980Y001745D01*
X001989Y001627D02*
X002143Y001627D01*
X003020Y003760D02*
X011780Y003760D01*
X011780Y003878D02*
X002600Y003878D01*
X002600Y003997D02*
X002520Y003997D01*
X002520Y004115D02*
X002600Y004115D01*
X002600Y004234D02*
X002520Y004234D01*
X002283Y004234D02*
X001780Y004234D01*
X001899Y004115D02*
X002164Y004115D01*
X002100Y003997D02*
X001980Y003997D01*
X001764Y004471D02*
X002356Y004471D01*
X002237Y004589D02*
X001883Y004589D01*
X001980Y004708D02*
X002140Y004708D01*
X002140Y004826D02*
X001980Y004826D01*
X001980Y004945D02*
X002140Y004945D01*
X002169Y005063D02*
X001951Y005063D01*
X001832Y005182D02*
X002288Y005182D01*
X002289Y005537D02*
X001831Y005537D01*
X001949Y005656D02*
X002171Y005656D01*
X002140Y005774D02*
X001980Y005774D01*
X001980Y005893D02*
X002140Y005893D01*
X002140Y006011D02*
X001980Y006011D01*
X001884Y006130D02*
X002236Y006130D01*
X002354Y006248D02*
X001766Y006248D01*
X001779Y006485D02*
X002341Y006485D01*
X002223Y006604D02*
X001897Y006604D01*
X001980Y006722D02*
X002140Y006722D01*
X002140Y006841D02*
X001980Y006841D01*
X001980Y006959D02*
X002140Y006959D01*
X002184Y007078D02*
X001936Y007078D01*
X001354Y006248D02*
X000870Y006248D01*
X000870Y006130D02*
X001236Y006130D01*
X001140Y006011D02*
X000870Y006011D01*
X000870Y005893D02*
X001140Y005893D01*
X001140Y005774D02*
X000870Y005774D01*
X000870Y005656D02*
X001171Y005656D01*
X001169Y005063D02*
X000870Y005063D01*
X000870Y004945D02*
X001140Y004945D01*
X001140Y004826D02*
X000870Y004826D01*
X000870Y004708D02*
X001140Y004708D01*
X001237Y004589D02*
X000870Y004589D01*
X000870Y004471D02*
X001356Y004471D01*
X002956Y004115D02*
X011780Y004115D01*
X011780Y003997D02*
X003020Y003997D01*
X002870Y008144D02*
X005710Y008144D01*
X006291Y008026D02*
X006885Y008026D01*
X006767Y008144D02*
X006410Y008144D01*
X006460Y008263D02*
X006700Y008263D01*
X006700Y008381D02*
X006460Y008381D01*
X006460Y008500D02*
X006700Y008500D01*
X006809Y008618D02*
X006368Y008618D01*
X006301Y009092D02*
X006819Y009092D01*
X006911Y009000D02*
X007209Y009000D01*
X007420Y009211D01*
X007420Y009509D01*
X007209Y009720D01*
X006911Y009720D01*
X006700Y009509D01*
X006700Y009211D01*
X006911Y009000D01*
X006700Y009211D02*
X006420Y009211D01*
X006420Y009329D02*
X006700Y009329D01*
X006700Y009448D02*
X006420Y009448D01*
X006363Y009566D02*
X006757Y009566D01*
X006875Y009685D02*
X006245Y009685D01*
X006249Y010040D02*
X006871Y010040D01*
X006752Y010159D02*
X006368Y010159D01*
X006420Y010277D02*
X006700Y010277D01*
X006700Y010396D02*
X006420Y010396D01*
X006415Y010514D02*
X006705Y010514D01*
X006823Y010633D02*
X006297Y010633D01*
X006316Y011107D02*
X006804Y011107D01*
X006700Y011225D02*
X006420Y011225D01*
X006420Y011344D02*
X006700Y011344D01*
X006700Y011462D02*
X006445Y011462D01*
X006563Y011581D02*
X006771Y011581D01*
X007349Y011581D02*
X008780Y011581D01*
X008780Y011462D02*
X007420Y011462D01*
X007420Y011344D02*
X008780Y011344D01*
X008780Y011225D02*
X007420Y011225D01*
X007316Y011107D02*
X008780Y011107D01*
X008780Y010988D02*
X002980Y010988D01*
X002980Y010870D02*
X008780Y010870D01*
X008780Y009803D02*
X002980Y009803D01*
X002978Y009685D02*
X005875Y009685D01*
X005757Y009566D02*
X002860Y009566D01*
X002741Y009448D02*
X005700Y009448D01*
X005705Y010514D02*
X002808Y010514D01*
X001208Y008618D02*
X000870Y008618D01*
X000870Y008500D02*
X001327Y008500D01*
X001140Y008737D02*
X000870Y008737D01*
X000870Y008855D02*
X001140Y008855D01*
X001140Y008974D02*
X000870Y008974D01*
X000870Y009092D02*
X001198Y009092D01*
X001350Y013477D02*
X000870Y013477D01*
X000870Y013595D02*
X001231Y013595D01*
X001140Y013714D02*
X000870Y013714D01*
X000870Y013832D02*
X001140Y013832D01*
X001140Y013951D02*
X000870Y013951D01*
X000870Y014069D02*
X001175Y014069D01*
X001294Y014188D02*
X000870Y014188D01*
X000870Y014306D02*
X005700Y014306D01*
X005700Y014425D02*
X000870Y014425D01*
X000870Y014543D02*
X001283Y014543D01*
X001165Y014662D02*
X000870Y014662D01*
X000870Y014780D02*
X001140Y014780D01*
X001140Y014899D02*
X000870Y014899D01*
X000870Y015017D02*
X001140Y015017D01*
X001242Y015136D02*
X000870Y015136D01*
X000870Y015254D02*
X001360Y015254D01*
X000870Y016321D02*
X005700Y016321D01*
X005700Y016211D02*
X005911Y016000D01*
X006209Y016000D01*
X006420Y016211D01*
X006420Y016509D01*
X006209Y016720D01*
X005911Y016720D01*
X005700Y016509D01*
X005700Y016211D01*
X005709Y016202D02*
X002812Y016202D01*
X002930Y016084D02*
X005827Y016084D01*
X005700Y016439D02*
X000870Y016439D01*
X000870Y017506D02*
X001320Y017506D01*
X001202Y017624D02*
X000870Y017624D01*
X000870Y017743D02*
X001140Y017743D01*
X001140Y017861D02*
X000870Y017861D01*
X000870Y017980D02*
X001140Y017980D01*
X001204Y018098D02*
X000870Y018098D01*
X000870Y018217D02*
X001323Y018217D01*
X001372Y018454D02*
X000870Y018454D01*
X000870Y018572D02*
X001254Y018572D01*
X001140Y018691D02*
X000870Y018691D01*
X000870Y018809D02*
X001140Y018809D01*
X001140Y018928D02*
X000870Y018928D01*
X000870Y019046D02*
X001152Y019046D01*
X001271Y019165D02*
X000870Y019165D01*
X000870Y019283D02*
X005697Y019283D01*
X005578Y019402D02*
X000870Y019402D01*
X000870Y019520D02*
X001306Y019520D01*
X001187Y019639D02*
X000870Y019639D01*
X000870Y019757D02*
X001140Y019757D01*
X001140Y019876D02*
X000870Y019876D01*
X000870Y019994D02*
X001140Y019994D01*
X001219Y020113D02*
X000870Y020113D01*
X000870Y020231D02*
X001337Y020231D01*
X001183Y020587D02*
X000870Y020587D01*
X000870Y020705D02*
X001100Y020705D01*
X000870Y022720D02*
X001734Y022720D01*
X001652Y022838D02*
X000870Y022838D01*
X000870Y022957D02*
X001610Y022957D01*
X001610Y023075D02*
X000870Y023075D01*
X000870Y023194D02*
X001610Y023194D01*
X001610Y023312D02*
X000870Y023312D01*
X000870Y023431D02*
X001610Y023431D01*
X001610Y023549D02*
X000870Y023549D01*
X000870Y023668D02*
X001610Y023668D01*
X001613Y023786D02*
X000870Y023786D01*
X000870Y023905D02*
X001662Y023905D01*
X001690Y024023D02*
X000870Y024023D01*
X000870Y024142D02*
X001690Y024142D01*
X001690Y024260D02*
X000870Y024260D01*
X000870Y024379D02*
X001690Y024379D01*
X001690Y024497D02*
X000870Y024497D01*
X000870Y024616D02*
X001690Y024616D01*
X001690Y024734D02*
X000870Y024734D01*
X000870Y024853D02*
X001690Y024853D01*
X001690Y024971D02*
X000870Y024971D01*
X000870Y025090D02*
X001690Y025090D01*
X001690Y025208D02*
X000870Y025208D01*
X000870Y025327D02*
X001690Y025327D01*
X001690Y025445D02*
X000870Y025445D01*
X000870Y025564D02*
X001702Y025564D01*
X001759Y025682D02*
X000870Y025682D01*
X000870Y025801D02*
X001877Y025801D01*
X001996Y025919D02*
X000870Y025919D01*
X000870Y026038D02*
X002114Y026038D01*
X002233Y026156D02*
X000870Y026156D01*
X000870Y026275D02*
X002351Y026275D01*
X002470Y026393D02*
X000870Y026393D01*
X000870Y026512D02*
X002588Y026512D01*
X002707Y026630D02*
X000870Y026630D01*
X000870Y026749D02*
X002825Y026749D01*
X002944Y026867D02*
X000870Y026867D01*
X000870Y026986D02*
X003062Y026986D01*
X003181Y027104D02*
X000870Y027104D01*
X000870Y027223D02*
X003368Y027223D01*
X003516Y026393D02*
X007355Y026393D01*
X007363Y026385D02*
X007540Y026385D01*
X007540Y026840D01*
X007580Y026840D01*
X007580Y026880D01*
X008035Y026880D01*
X008035Y027057D01*
X007757Y027335D01*
X007580Y027335D01*
X007580Y026880D01*
X007540Y026880D01*
X007540Y027335D01*
X007363Y027335D01*
X007085Y027057D01*
X007085Y026880D01*
X007540Y026880D01*
X007540Y026840D01*
X007085Y026840D01*
X007085Y026663D01*
X007363Y026385D01*
X007540Y026393D02*
X007580Y026393D01*
X007580Y026385D02*
X007757Y026385D01*
X008035Y026663D01*
X008035Y026840D01*
X007580Y026840D01*
X007580Y026385D01*
X007580Y026512D02*
X007540Y026512D01*
X007540Y026630D02*
X007580Y026630D01*
X007580Y026749D02*
X007540Y026749D01*
X007540Y026867D02*
X006995Y026867D01*
X006985Y026749D02*
X007085Y026749D01*
X007118Y026630D02*
X006936Y026630D01*
X006827Y026512D02*
X007237Y026512D01*
X007580Y026867D02*
X008860Y026867D01*
X008860Y026749D02*
X008035Y026749D01*
X008002Y026630D02*
X008860Y026630D01*
X008860Y026512D02*
X007883Y026512D01*
X007765Y026393D02*
X008860Y026393D01*
X008860Y026275D02*
X003398Y026275D01*
X003279Y026156D02*
X008860Y026156D01*
X008860Y026038D02*
X003161Y026038D01*
X003042Y025919D02*
X008918Y025919D01*
X009037Y025801D02*
X002924Y025801D01*
X002805Y025682D02*
X009155Y025682D01*
X009274Y025564D02*
X002687Y025564D01*
X002700Y024023D02*
X002430Y024023D01*
X002458Y023905D02*
X002619Y023905D01*
X002579Y023786D02*
X002507Y023786D01*
X002510Y023668D02*
X002570Y023668D01*
X002570Y023549D02*
X002510Y023549D01*
X002510Y023431D02*
X002570Y023431D01*
X005220Y022246D02*
X005300Y022246D01*
X005300Y022127D02*
X005220Y022127D01*
X005220Y022009D02*
X005300Y022009D01*
X005459Y022009D02*
X009061Y022009D01*
X008942Y022127D02*
X008521Y022127D01*
X008640Y022246D02*
X008824Y022246D01*
X008800Y022364D02*
X008680Y022364D01*
X008542Y021772D02*
X008978Y021772D01*
X008859Y021653D02*
X008661Y021653D01*
X008680Y021535D02*
X008840Y021535D01*
X008840Y021416D02*
X008680Y021416D01*
X008680Y021298D02*
X008840Y021298D01*
X008947Y021179D02*
X008573Y021179D01*
X008455Y021061D02*
X009065Y021061D01*
X009542Y021772D02*
X010140Y021772D01*
X010259Y021653D02*
X009661Y021653D01*
X009680Y021535D02*
X010377Y021535D01*
X010130Y022127D02*
X009578Y022127D01*
X009696Y022246D02*
X010237Y022246D01*
X010356Y022364D02*
X009720Y022364D01*
X009730Y020587D02*
X015280Y020587D01*
X015280Y020468D02*
X009730Y020468D01*
X009730Y020350D02*
X015280Y020350D01*
X015280Y020231D02*
X009730Y020231D01*
X009730Y020113D02*
X015280Y020113D01*
X015280Y019994D02*
X009730Y019994D01*
X009730Y019876D02*
X015280Y019876D01*
X015280Y019757D02*
X009730Y019757D01*
X009730Y019639D02*
X009829Y019639D01*
X008891Y019757D02*
X008730Y019757D01*
X008730Y019639D02*
X008773Y019639D01*
X008390Y019639D02*
X008291Y019639D01*
X007656Y020824D02*
X006430Y020824D01*
X006430Y020942D02*
X007538Y020942D01*
X007065Y021061D02*
X006455Y021061D01*
X006573Y021179D02*
X006947Y021179D01*
X006840Y021298D02*
X006680Y021298D01*
X006680Y021416D02*
X006840Y021416D01*
X006840Y021535D02*
X006680Y021535D01*
X006661Y021653D02*
X006859Y021653D01*
X006978Y021772D02*
X006542Y021772D01*
X006521Y022127D02*
X006999Y022127D01*
X006880Y022246D02*
X006640Y022246D01*
X006680Y022364D02*
X006840Y022364D01*
X006840Y022483D02*
X006680Y022483D01*
X006680Y022601D02*
X006840Y022601D01*
X006926Y022720D02*
X006716Y022720D01*
X006834Y022838D02*
X007044Y022838D01*
X005090Y020231D02*
X002783Y020231D01*
X002901Y020113D02*
X005090Y020113D01*
X005090Y019994D02*
X002980Y019994D01*
X002980Y019876D02*
X005104Y019876D01*
X005223Y019757D02*
X002980Y019757D01*
X002933Y019639D02*
X005341Y019639D01*
X005460Y019520D02*
X002814Y019520D01*
X002980Y018691D02*
X005881Y018691D01*
X005763Y018572D02*
X002866Y018572D01*
X002748Y018454D02*
X005700Y018454D01*
X005700Y018335D02*
X000870Y018335D01*
X002797Y018217D02*
X005700Y018217D01*
X005813Y018098D02*
X002916Y018098D01*
X002864Y017150D02*
X005761Y017150D01*
X005879Y017032D02*
X002980Y017032D01*
X002980Y016913D02*
X007867Y016913D01*
X007748Y017032D02*
X007241Y017032D01*
X007359Y017150D02*
X007630Y017150D01*
X007511Y017269D02*
X007420Y017269D01*
X007687Y016795D02*
X002980Y016795D01*
X002970Y016676D02*
X005867Y016676D01*
X005748Y016558D02*
X002852Y016558D01*
X002980Y015965D02*
X007690Y015965D01*
X007690Y015847D02*
X002980Y015847D01*
X002980Y015728D02*
X006862Y015728D01*
X007040Y015728D02*
X007080Y015728D01*
X007080Y015610D02*
X007040Y015610D01*
X007040Y015491D02*
X007080Y015491D01*
X007080Y015373D02*
X007690Y015373D01*
X007690Y015491D02*
X007460Y015491D01*
X007376Y015610D02*
X007690Y015610D01*
X007690Y015728D02*
X007258Y015728D01*
X007209Y016000D02*
X007420Y016211D01*
X007420Y016509D01*
X007209Y016720D01*
X006911Y016720D01*
X006700Y016509D01*
X006700Y016211D01*
X006911Y016000D01*
X007209Y016000D01*
X007293Y016084D02*
X007690Y016084D01*
X007690Y016202D02*
X007411Y016202D01*
X007420Y016321D02*
X007690Y016321D01*
X007598Y016439D02*
X007420Y016439D01*
X007372Y016558D02*
X007572Y016558D01*
X007596Y016676D02*
X007253Y016676D01*
X006867Y016676D02*
X006253Y016676D01*
X006372Y016558D02*
X006748Y016558D01*
X006700Y016439D02*
X006420Y016439D01*
X006420Y016321D02*
X006700Y016321D01*
X006709Y016202D02*
X006411Y016202D01*
X006293Y016084D02*
X006827Y016084D01*
X006879Y017032D02*
X006241Y017032D01*
X006359Y017150D02*
X006761Y017150D01*
X006700Y017269D02*
X006420Y017269D01*
X006420Y017387D02*
X006700Y017387D01*
X006700Y017506D02*
X006420Y017506D01*
X006305Y017624D02*
X006815Y017624D01*
X008148Y016558D02*
X008222Y016558D01*
X008122Y016439D02*
X008373Y016439D01*
X008030Y016321D02*
X008780Y016321D01*
X008780Y016202D02*
X008030Y016202D01*
X008030Y016084D02*
X008780Y016084D01*
X008780Y015965D02*
X008030Y015965D01*
X008030Y015847D02*
X008780Y015847D01*
X008780Y015728D02*
X008030Y015728D01*
X008030Y015610D02*
X008780Y015610D01*
X008780Y015491D02*
X008030Y015491D01*
X008030Y015373D02*
X008780Y015373D01*
X008780Y015254D02*
X008030Y015254D01*
X008030Y015136D02*
X008780Y015136D01*
X008780Y015017D02*
X008030Y015017D01*
X008030Y014899D02*
X008780Y014899D01*
X008780Y014780D02*
X008030Y014780D01*
X008030Y014662D02*
X008780Y014662D01*
X008780Y014543D02*
X008030Y014543D01*
X008030Y014425D02*
X008780Y014425D01*
X008780Y014306D02*
X008030Y014306D01*
X008030Y014188D02*
X008780Y014188D01*
X008780Y014069D02*
X008030Y014069D01*
X008030Y013951D02*
X008780Y013951D01*
X008780Y013832D02*
X008030Y013832D01*
X008030Y013714D02*
X008780Y013714D01*
X008780Y013595D02*
X008030Y013595D01*
X007917Y013477D02*
X008780Y013477D01*
X008780Y013358D02*
X007798Y013358D01*
X007680Y013240D02*
X008780Y013240D01*
X008780Y013121D02*
X007330Y013121D01*
X007212Y013003D02*
X008780Y013003D01*
X008780Y012647D02*
X007282Y012647D01*
X007401Y012529D02*
X008780Y012529D01*
X008780Y012410D02*
X007420Y012410D01*
X007420Y012292D02*
X008780Y012292D01*
X008780Y012173D02*
X007382Y012173D01*
X007334Y013595D02*
X007555Y013595D01*
X007673Y013714D02*
X007216Y013714D01*
X007278Y014069D02*
X007690Y014069D01*
X007690Y013951D02*
X002980Y013951D01*
X002980Y013832D02*
X007690Y013832D01*
X007690Y014188D02*
X007397Y014188D01*
X007420Y014306D02*
X007690Y014306D01*
X007690Y014425D02*
X007420Y014425D01*
X007386Y014543D02*
X007690Y014543D01*
X007690Y014662D02*
X007268Y014662D01*
X007401Y015136D02*
X007690Y015136D01*
X007690Y015254D02*
X007460Y015254D01*
X007690Y014780D02*
X002980Y014780D01*
X002955Y014662D02*
X005852Y014662D01*
X005734Y014543D02*
X002837Y014543D01*
X002826Y014188D02*
X005723Y014188D01*
X005842Y014069D02*
X002945Y014069D01*
X002980Y013714D02*
X005904Y013714D01*
X005786Y013595D02*
X002889Y013595D01*
X002770Y013477D02*
X005700Y013477D01*
X007245Y009685D02*
X008780Y009685D01*
X008780Y009566D02*
X007363Y009566D01*
X007420Y009448D02*
X008780Y009448D01*
X008780Y009329D02*
X007420Y009329D01*
X007420Y009211D02*
X008780Y009211D01*
X008780Y009092D02*
X007301Y009092D01*
X008353Y008144D02*
X008505Y008144D01*
X008420Y008263D02*
X008623Y008263D01*
X008700Y008381D02*
X008420Y008381D01*
X008420Y008500D02*
X008700Y008500D01*
X008386Y008026D02*
X008235Y008026D01*
X008259Y007670D02*
X008320Y007670D01*
X012340Y004352D02*
X023220Y004352D01*
X023220Y004234D02*
X022837Y004234D01*
X022751Y004320D02*
X023020Y004051D01*
X023020Y003900D01*
X022600Y003900D01*
X022520Y003900D01*
X022520Y004320D01*
X022369Y004320D01*
X022100Y004051D01*
X022100Y003900D01*
X022520Y003900D01*
X022520Y003820D01*
X022100Y003820D01*
X022100Y003669D01*
X022369Y003400D01*
X022520Y003400D01*
X022520Y003820D01*
X022600Y003820D01*
X022600Y003900D01*
X022600Y004320D01*
X022751Y004320D01*
X022734Y004440D02*
X022386Y004440D01*
X022140Y004686D01*
X022140Y005034D01*
X022386Y005280D01*
X022734Y005280D01*
X022980Y005034D01*
X022980Y004686D01*
X022734Y004440D01*
X022764Y004471D02*
X023220Y004471D01*
X023220Y004589D02*
X022883Y004589D01*
X022980Y004708D02*
X023220Y004708D01*
X023220Y004826D02*
X022980Y004826D01*
X022980Y004945D02*
X023220Y004945D01*
X023220Y005063D02*
X022951Y005063D01*
X022832Y005182D02*
X023220Y005182D01*
X023220Y005300D02*
X018240Y005300D01*
X018240Y005182D02*
X021288Y005182D01*
X021386Y005280D02*
X021140Y005034D01*
X021140Y004686D01*
X021386Y004440D01*
X021734Y004440D01*
X021980Y004686D01*
X021980Y005034D01*
X021734Y005280D01*
X021386Y005280D01*
X021386Y005440D02*
X021140Y005686D01*
X021140Y006034D01*
X021386Y006280D01*
X021734Y006280D01*
X021980Y006034D01*
X021980Y005686D01*
X021734Y005440D01*
X021386Y005440D01*
X021289Y005537D02*
X018240Y005537D01*
X018240Y005419D02*
X023220Y005419D01*
X023220Y005537D02*
X022831Y005537D01*
X022734Y005440D02*
X022980Y005686D01*
X022980Y006034D01*
X022734Y006280D01*
X022386Y006280D01*
X022140Y006034D01*
X022140Y005686D01*
X022386Y005440D01*
X022734Y005440D01*
X022949Y005656D02*
X023220Y005656D01*
X023220Y005774D02*
X022980Y005774D01*
X022980Y005893D02*
X023220Y005893D01*
X023220Y006011D02*
X022980Y006011D01*
X022884Y006130D02*
X023220Y006130D01*
X023220Y006248D02*
X022766Y006248D01*
X022734Y006440D02*
X022386Y006440D01*
X022140Y006686D01*
X022140Y007034D01*
X022386Y007280D01*
X022734Y007280D01*
X022980Y007034D01*
X022980Y006686D01*
X022734Y006440D01*
X022779Y006485D02*
X023220Y006485D01*
X023220Y006367D02*
X018240Y006367D01*
X018240Y006485D02*
X021341Y006485D01*
X021386Y006440D02*
X021140Y006686D01*
X021140Y007034D01*
X021386Y007280D01*
X021734Y007280D01*
X021980Y007034D01*
X021980Y006686D01*
X021734Y006440D01*
X021386Y006440D01*
X021354Y006248D02*
X018240Y006248D01*
X018240Y006130D02*
X021236Y006130D01*
X021140Y006011D02*
X018240Y006011D01*
X018240Y005893D02*
X021140Y005893D01*
X021140Y005774D02*
X018240Y005774D01*
X018240Y005656D02*
X021171Y005656D01*
X021169Y005063D02*
X018309Y005063D01*
X018350Y004945D02*
X021140Y004945D01*
X021140Y004826D02*
X018350Y004826D01*
X018350Y004708D02*
X021140Y004708D01*
X021237Y004589D02*
X018241Y004589D01*
X018122Y004471D02*
X021356Y004471D01*
X021340Y004234D02*
X012340Y004234D01*
X012340Y004115D02*
X021221Y004115D01*
X021140Y003997D02*
X012340Y003997D01*
X012340Y003878D02*
X021140Y003878D01*
X021140Y003760D02*
X012340Y003760D01*
X012340Y003641D02*
X021185Y003641D01*
X021280Y003523D02*
X012340Y003523D01*
X012340Y003404D02*
X021280Y003404D01*
X021280Y003286D02*
X012340Y003286D01*
X012340Y003167D02*
X021273Y003167D01*
X021155Y003049D02*
X012340Y003049D01*
X012340Y002930D02*
X021140Y002930D01*
X021140Y002812D02*
X012340Y002812D01*
X012340Y002693D02*
X021140Y002693D01*
X021252Y002575D02*
X012340Y002575D01*
X012340Y002456D02*
X021280Y002456D01*
X021280Y002338D02*
X012340Y002338D01*
X012340Y002219D02*
X014881Y002219D01*
X015040Y002219D02*
X015080Y002219D01*
X015080Y002260D02*
X015080Y001880D01*
X015460Y001880D01*
X015460Y001899D01*
X015445Y001977D01*
X015414Y002049D01*
X015371Y002115D01*
X015315Y002171D01*
X015249Y002214D01*
X015177Y002245D01*
X015099Y002260D01*
X015080Y002260D01*
X015080Y002101D02*
X015040Y002101D01*
X015040Y001982D02*
X015080Y001982D01*
X015080Y001864D02*
X017930Y001864D01*
X017990Y001864D02*
X018968Y001864D01*
X019086Y001982D02*
X018390Y001982D01*
X018390Y002038D02*
X018138Y002290D01*
X017990Y002290D01*
X017990Y001890D01*
X018390Y001890D01*
X018390Y002038D01*
X018328Y002101D02*
X019209Y002101D01*
X018849Y001745D02*
X018390Y001745D01*
X018335Y001627D02*
X018731Y001627D01*
X019167Y001271D02*
X023220Y001271D01*
X023220Y001153D02*
X019048Y001153D01*
X018930Y001034D02*
X023220Y001034D01*
X023220Y001390D02*
X019285Y001390D01*
X019404Y001508D02*
X021318Y001508D01*
X021802Y001508D02*
X022261Y001508D01*
X022369Y001400D02*
X022100Y001669D01*
X022100Y001820D01*
X022520Y001820D01*
X022520Y001900D01*
X022520Y002320D01*
X022369Y002320D01*
X022100Y002051D01*
X022100Y001900D01*
X022520Y001900D01*
X022600Y001900D01*
X022600Y002320D01*
X022751Y002320D01*
X023020Y002051D01*
X023020Y001900D01*
X022600Y001900D01*
X022600Y001820D01*
X023020Y001820D01*
X023020Y001669D01*
X022751Y001400D01*
X022600Y001400D01*
X022600Y001820D01*
X022520Y001820D01*
X022520Y001400D01*
X022369Y001400D01*
X022520Y001508D02*
X022600Y001508D01*
X022600Y001627D02*
X022520Y001627D01*
X022520Y001745D02*
X022600Y001745D01*
X022600Y001864D02*
X023220Y001864D01*
X023220Y001982D02*
X023020Y001982D01*
X022970Y002101D02*
X023220Y002101D01*
X023220Y002219D02*
X022852Y002219D01*
X022751Y002400D02*
X023020Y002669D01*
X023020Y002820D01*
X022600Y002820D01*
X022600Y002900D01*
X022520Y002900D01*
X022520Y003320D01*
X022369Y003320D01*
X022100Y003051D01*
X022100Y002900D01*
X022520Y002900D01*
X022520Y002820D01*
X022100Y002820D01*
X022100Y002669D01*
X022369Y002400D01*
X022520Y002400D01*
X022520Y002820D01*
X022600Y002820D01*
X022600Y002400D01*
X022751Y002400D01*
X022807Y002456D02*
X023220Y002456D01*
X023220Y002338D02*
X021840Y002338D01*
X021840Y002456D02*
X022313Y002456D01*
X022195Y002575D02*
X021868Y002575D01*
X021980Y002693D02*
X022100Y002693D01*
X022100Y002812D02*
X021980Y002812D01*
X021980Y002930D02*
X022100Y002930D01*
X022100Y003049D02*
X021965Y003049D01*
X021847Y003167D02*
X022216Y003167D01*
X022335Y003286D02*
X021840Y003286D01*
X021840Y003404D02*
X022365Y003404D01*
X022520Y003404D02*
X022600Y003404D01*
X022600Y003400D02*
X022751Y003400D01*
X023020Y003669D01*
X023020Y003820D01*
X022600Y003820D01*
X022600Y003400D01*
X022600Y003320D02*
X022600Y002900D01*
X023020Y002900D01*
X023020Y003051D01*
X022751Y003320D01*
X022600Y003320D01*
X022600Y003286D02*
X022520Y003286D01*
X022520Y003167D02*
X022600Y003167D01*
X022600Y003049D02*
X022520Y003049D01*
X022520Y002930D02*
X022600Y002930D01*
X022600Y002812D02*
X022520Y002812D01*
X022520Y002693D02*
X022600Y002693D01*
X022600Y002575D02*
X022520Y002575D01*
X022520Y002456D02*
X022600Y002456D01*
X022600Y002219D02*
X022520Y002219D01*
X022520Y002101D02*
X022600Y002101D01*
X022600Y001982D02*
X022520Y001982D01*
X022520Y001864D02*
X021980Y001864D01*
X021980Y001982D02*
X022100Y001982D01*
X022150Y002101D02*
X021913Y002101D01*
X021840Y002219D02*
X022268Y002219D01*
X022100Y001745D02*
X021980Y001745D01*
X021920Y001627D02*
X022143Y001627D01*
X022859Y001508D02*
X023220Y001508D01*
X023220Y001627D02*
X022977Y001627D01*
X023020Y001745D02*
X023220Y001745D01*
X023220Y002575D02*
X022925Y002575D01*
X023020Y002693D02*
X023220Y002693D01*
X023220Y002812D02*
X023020Y002812D01*
X023020Y002930D02*
X023220Y002930D01*
X023220Y003049D02*
X023020Y003049D01*
X022904Y003167D02*
X023220Y003167D01*
X023220Y003286D02*
X022785Y003286D01*
X022755Y003404D02*
X023220Y003404D01*
X023220Y003523D02*
X022873Y003523D01*
X022992Y003641D02*
X023220Y003641D01*
X023220Y003760D02*
X023020Y003760D01*
X023220Y003878D02*
X022600Y003878D01*
X022520Y003878D02*
X021980Y003878D01*
X021980Y003760D02*
X022100Y003760D01*
X022128Y003641D02*
X021935Y003641D01*
X021840Y003523D02*
X022247Y003523D01*
X022520Y003523D02*
X022600Y003523D01*
X022600Y003641D02*
X022520Y003641D01*
X022520Y003760D02*
X022600Y003760D01*
X022600Y003997D02*
X022520Y003997D01*
X022520Y004115D02*
X022600Y004115D01*
X022600Y004234D02*
X022520Y004234D01*
X022283Y004234D02*
X021780Y004234D01*
X021899Y004115D02*
X022164Y004115D01*
X022100Y003997D02*
X021980Y003997D01*
X021764Y004471D02*
X022356Y004471D01*
X022237Y004589D02*
X021883Y004589D01*
X021980Y004708D02*
X022140Y004708D01*
X022140Y004826D02*
X021980Y004826D01*
X021980Y004945D02*
X022140Y004945D01*
X022169Y005063D02*
X021951Y005063D01*
X021832Y005182D02*
X022288Y005182D01*
X022289Y005537D02*
X021831Y005537D01*
X021949Y005656D02*
X022171Y005656D01*
X022140Y005774D02*
X021980Y005774D01*
X021980Y005893D02*
X022140Y005893D01*
X022140Y006011D02*
X021980Y006011D01*
X021884Y006130D02*
X022236Y006130D01*
X022354Y006248D02*
X021766Y006248D01*
X021779Y006485D02*
X022341Y006485D01*
X022223Y006604D02*
X021897Y006604D01*
X021980Y006722D02*
X022140Y006722D01*
X022140Y006841D02*
X021980Y006841D01*
X021980Y006959D02*
X022140Y006959D01*
X022184Y007078D02*
X021936Y007078D01*
X021818Y007196D02*
X022302Y007196D01*
X022386Y007440D02*
X022734Y007440D01*
X022980Y007686D01*
X022980Y008034D01*
X022734Y008280D01*
X022386Y008280D01*
X022140Y008034D01*
X022140Y007686D01*
X022386Y007440D01*
X022275Y007552D02*
X021845Y007552D01*
X021734Y007440D02*
X021980Y007686D01*
X021980Y008034D01*
X021734Y008280D01*
X021386Y008280D01*
X021140Y008034D01*
X021140Y007686D01*
X021386Y007440D01*
X021734Y007440D01*
X021964Y007670D02*
X022156Y007670D01*
X022140Y007789D02*
X021980Y007789D01*
X021980Y007907D02*
X022140Y007907D01*
X022140Y008026D02*
X021980Y008026D01*
X021870Y008144D02*
X022250Y008144D01*
X022369Y008263D02*
X021751Y008263D01*
X021734Y008440D02*
X021980Y008686D01*
X021980Y009034D01*
X021734Y009280D01*
X021386Y009280D01*
X021140Y009034D01*
X021140Y008686D01*
X021386Y008440D01*
X021734Y008440D01*
X021793Y008500D02*
X022327Y008500D01*
X022386Y008440D02*
X022140Y008686D01*
X022140Y009034D01*
X022386Y009280D01*
X022734Y009280D01*
X022980Y009034D01*
X022980Y008686D01*
X022734Y008440D01*
X022386Y008440D01*
X022208Y008618D02*
X021912Y008618D01*
X021980Y008737D02*
X022140Y008737D01*
X022140Y008855D02*
X021980Y008855D01*
X021980Y008974D02*
X022140Y008974D01*
X022198Y009092D02*
X021922Y009092D01*
X021803Y009211D02*
X022317Y009211D01*
X022386Y009440D02*
X022140Y009686D01*
X022140Y010034D01*
X022386Y010280D01*
X022734Y010280D01*
X022980Y010034D01*
X022980Y009686D01*
X022734Y009440D01*
X022386Y009440D01*
X022379Y009448D02*
X021741Y009448D01*
X021734Y009440D02*
X021980Y009686D01*
X021980Y010034D01*
X021734Y010280D01*
X021386Y010280D01*
X021140Y010034D01*
X021140Y009686D01*
X021386Y009440D01*
X021734Y009440D01*
X021860Y009566D02*
X022260Y009566D01*
X022142Y009685D02*
X021978Y009685D01*
X021980Y009803D02*
X022140Y009803D01*
X022140Y009922D02*
X021980Y009922D01*
X021974Y010040D02*
X022146Y010040D01*
X022265Y010159D02*
X021855Y010159D01*
X021737Y010277D02*
X022383Y010277D01*
X022386Y010440D02*
X022140Y010686D01*
X022140Y011034D01*
X022386Y011280D01*
X022734Y011280D01*
X022980Y011034D01*
X022980Y010686D01*
X022734Y010440D01*
X022386Y010440D01*
X022312Y010514D02*
X021808Y010514D01*
X021734Y010440D02*
X021980Y010686D01*
X021980Y011034D01*
X021734Y011280D01*
X021386Y011280D01*
X021140Y011034D01*
X021140Y010686D01*
X021386Y010440D01*
X021734Y010440D01*
X021926Y010633D02*
X022194Y010633D01*
X022140Y010751D02*
X021980Y010751D01*
X021980Y010870D02*
X022140Y010870D01*
X022140Y010988D02*
X021980Y010988D01*
X021907Y011107D02*
X022213Y011107D01*
X022331Y011225D02*
X021789Y011225D01*
X021734Y011440D02*
X021386Y011440D01*
X021140Y011686D01*
X021140Y012034D01*
X021386Y012280D01*
X021734Y012280D01*
X021980Y012034D01*
X021980Y011686D01*
X021734Y011440D01*
X021756Y011462D02*
X022364Y011462D01*
X022386Y011440D02*
X022734Y011440D01*
X022980Y011686D01*
X022980Y012034D01*
X022734Y012280D01*
X022386Y012280D01*
X022140Y012034D01*
X022140Y011686D01*
X022386Y011440D01*
X022246Y011581D02*
X021874Y011581D01*
X021980Y011699D02*
X022140Y011699D01*
X022140Y011818D02*
X021980Y011818D01*
X021980Y011936D02*
X022140Y011936D01*
X022161Y012055D02*
X021959Y012055D01*
X021841Y012173D02*
X022279Y012173D01*
X022386Y012440D02*
X022734Y012440D01*
X022980Y012686D01*
X022980Y013034D01*
X022734Y013280D01*
X022386Y013280D01*
X022140Y013034D01*
X022140Y012686D01*
X022386Y012440D01*
X022298Y012529D02*
X021822Y012529D01*
X021734Y012440D02*
X021980Y012686D01*
X021980Y013034D01*
X021734Y013280D01*
X021386Y013280D01*
X021140Y013034D01*
X021140Y012686D01*
X021386Y012440D01*
X021734Y012440D01*
X021941Y012647D02*
X022179Y012647D01*
X022140Y012766D02*
X021980Y012766D01*
X021980Y012884D02*
X022140Y012884D01*
X022140Y013003D02*
X021980Y013003D01*
X021893Y013121D02*
X022227Y013121D01*
X022346Y013240D02*
X021774Y013240D01*
X021734Y013440D02*
X021386Y013440D01*
X021140Y013686D01*
X021140Y014034D01*
X021386Y014280D01*
X021734Y014280D01*
X021980Y014034D01*
X021980Y013686D01*
X021734Y013440D01*
X021770Y013477D02*
X022350Y013477D01*
X022386Y013440D02*
X022734Y013440D01*
X022980Y013686D01*
X022980Y014034D01*
X022734Y014280D01*
X022386Y014280D01*
X022140Y014034D01*
X022140Y013686D01*
X022386Y013440D01*
X022231Y013595D02*
X021889Y013595D01*
X021980Y013714D02*
X022140Y013714D01*
X022140Y013832D02*
X021980Y013832D01*
X021980Y013951D02*
X022140Y013951D01*
X022175Y014069D02*
X021945Y014069D01*
X021826Y014188D02*
X022294Y014188D01*
X022386Y014440D02*
X022734Y014440D01*
X022980Y014686D01*
X022980Y015034D01*
X022734Y015280D01*
X022386Y015280D01*
X022140Y015034D01*
X022140Y014686D01*
X022386Y014440D01*
X022283Y014543D02*
X021837Y014543D01*
X021734Y014440D02*
X021980Y014686D01*
X021980Y015034D01*
X021734Y015280D01*
X021386Y015280D01*
X021140Y015034D01*
X021140Y014686D01*
X021386Y014440D01*
X021734Y014440D01*
X021955Y014662D02*
X022165Y014662D01*
X022140Y014780D02*
X021980Y014780D01*
X021980Y014899D02*
X022140Y014899D01*
X022140Y015017D02*
X021980Y015017D01*
X021878Y015136D02*
X022242Y015136D01*
X022360Y015254D02*
X021760Y015254D01*
X021734Y015440D02*
X021980Y015686D01*
X021980Y016034D01*
X021734Y016280D01*
X021386Y016280D01*
X021140Y016034D01*
X021140Y015686D01*
X021386Y015440D01*
X021734Y015440D01*
X021785Y015491D02*
X022335Y015491D01*
X022386Y015440D02*
X022140Y015686D01*
X022140Y016034D01*
X022386Y016280D01*
X022734Y016280D01*
X022980Y016034D01*
X022980Y015686D01*
X022734Y015440D01*
X022386Y015440D01*
X022216Y015610D02*
X021904Y015610D01*
X021980Y015728D02*
X022140Y015728D01*
X022140Y015847D02*
X021980Y015847D01*
X021980Y015965D02*
X022140Y015965D01*
X022190Y016084D02*
X021930Y016084D01*
X021812Y016202D02*
X022308Y016202D01*
X022386Y016440D02*
X022140Y016686D01*
X022140Y017034D01*
X022386Y017280D01*
X022734Y017280D01*
X022980Y017034D01*
X022980Y016686D01*
X022734Y016440D01*
X022386Y016440D01*
X022268Y016558D02*
X021852Y016558D01*
X021734Y016440D02*
X021386Y016440D01*
X021140Y016686D01*
X021140Y017034D01*
X021386Y017280D01*
X021734Y017280D01*
X021980Y017034D01*
X021980Y016686D01*
X021734Y016440D01*
X021970Y016676D02*
X022150Y016676D01*
X022140Y016795D02*
X021980Y016795D01*
X021980Y016913D02*
X022140Y016913D01*
X022140Y017032D02*
X021980Y017032D01*
X021864Y017150D02*
X022256Y017150D01*
X022375Y017269D02*
X021745Y017269D01*
X021734Y017440D02*
X021386Y017440D01*
X021140Y017686D01*
X021140Y018034D01*
X021386Y018280D01*
X021734Y018280D01*
X021980Y018034D01*
X021980Y017686D01*
X021734Y017440D01*
X021800Y017506D02*
X022320Y017506D01*
X022386Y017440D02*
X022140Y017686D01*
X022140Y018034D01*
X022386Y018280D01*
X022734Y018280D01*
X022980Y018034D01*
X022980Y017686D01*
X022734Y017440D01*
X022386Y017440D01*
X022202Y017624D02*
X021918Y017624D01*
X021980Y017743D02*
X022140Y017743D01*
X022140Y017861D02*
X021980Y017861D01*
X021980Y017980D02*
X022140Y017980D01*
X022204Y018098D02*
X021916Y018098D01*
X021797Y018217D02*
X022323Y018217D01*
X022386Y018440D02*
X022734Y018440D01*
X022980Y018686D01*
X022980Y019034D01*
X022734Y019280D01*
X022386Y019280D01*
X022140Y019034D01*
X022140Y018686D01*
X022386Y018440D01*
X022372Y018454D02*
X021748Y018454D01*
X021734Y018440D02*
X021980Y018686D01*
X021980Y019034D01*
X021734Y019280D01*
X021386Y019280D01*
X021140Y019034D01*
X021140Y018686D01*
X021386Y018440D01*
X021734Y018440D01*
X021866Y018572D02*
X022254Y018572D01*
X022140Y018691D02*
X021980Y018691D01*
X021980Y018809D02*
X022140Y018809D01*
X022140Y018928D02*
X021980Y018928D01*
X021968Y019046D02*
X022152Y019046D01*
X022271Y019165D02*
X021849Y019165D01*
X021734Y019440D02*
X021386Y019440D01*
X021140Y019686D01*
X021140Y020034D01*
X021386Y020280D01*
X021734Y020280D01*
X021980Y020034D01*
X021980Y019686D01*
X021734Y019440D01*
X021814Y019520D02*
X022306Y019520D01*
X022386Y019440D02*
X022140Y019686D01*
X022140Y020034D01*
X022386Y020280D01*
X022734Y020280D01*
X022980Y020034D01*
X022980Y019686D01*
X022734Y019440D01*
X022386Y019440D01*
X022187Y019639D02*
X021933Y019639D01*
X021980Y019757D02*
X022140Y019757D01*
X022140Y019876D02*
X021980Y019876D01*
X021980Y019994D02*
X022140Y019994D01*
X022219Y020113D02*
X021901Y020113D01*
X021783Y020231D02*
X022337Y020231D01*
X022358Y020468D02*
X021819Y020468D01*
X021751Y020400D02*
X022020Y020669D01*
X022020Y020820D01*
X021600Y020820D01*
X021600Y020400D01*
X021751Y020400D01*
X021600Y020468D02*
X021520Y020468D01*
X021520Y020400D02*
X021520Y020820D01*
X021100Y020820D01*
X021100Y020669D01*
X021369Y020400D01*
X021520Y020400D01*
X021520Y020587D02*
X021600Y020587D01*
X021600Y020705D02*
X021520Y020705D01*
X021520Y020824D02*
X020720Y020824D01*
X020838Y020942D02*
X021100Y020942D01*
X021110Y021061D02*
X020957Y021061D01*
X021075Y021179D02*
X021229Y021179D01*
X021100Y020705D02*
X020576Y020705D01*
X020402Y021298D02*
X018692Y021298D01*
X018800Y022009D02*
X020013Y022009D01*
X020131Y022127D02*
X018800Y022127D01*
X018800Y022246D02*
X020250Y022246D01*
X020368Y022364D02*
X018800Y022364D01*
X018800Y022483D02*
X020487Y022483D01*
X020605Y022601D02*
X020200Y022601D01*
X020150Y022580D02*
X020315Y022649D01*
X020441Y022775D01*
X020510Y022940D01*
X020510Y023780D01*
X020441Y023945D01*
X020315Y024071D01*
X020150Y024140D01*
X019970Y024140D01*
X019805Y024071D01*
X019718Y023985D01*
X019243Y024460D01*
X017098Y024460D01*
X017036Y024523D01*
X016922Y024570D01*
X016798Y024570D01*
X016684Y024523D01*
X016597Y024436D01*
X016550Y024322D01*
X016550Y024198D01*
X016597Y024084D01*
X016684Y023997D01*
X016798Y023950D01*
X016922Y023950D01*
X017036Y023997D01*
X017098Y024060D01*
X019077Y024060D01*
X019610Y023527D01*
X019610Y022940D01*
X019679Y022775D01*
X019805Y022649D01*
X019970Y022580D01*
X020150Y022580D01*
X019920Y022601D02*
X018800Y022601D01*
X018800Y022720D02*
X019734Y022720D01*
X019652Y022838D02*
X018847Y022838D01*
X018920Y022957D02*
X019610Y022957D01*
X019610Y023075D02*
X018920Y023075D01*
X018920Y023194D02*
X019610Y023194D01*
X019610Y023312D02*
X018817Y023312D01*
X018303Y023312D02*
X015095Y023312D01*
X015213Y023431D02*
X019610Y023431D01*
X019588Y023549D02*
X015332Y023549D01*
X015450Y023668D02*
X019470Y023668D01*
X019351Y023786D02*
X015569Y023786D01*
X015687Y023905D02*
X019233Y023905D01*
X019114Y024023D02*
X017061Y024023D01*
X016659Y024023D02*
X015806Y024023D01*
X015924Y024142D02*
X016574Y024142D01*
X016550Y024260D02*
X016043Y024260D01*
X016060Y024379D02*
X016574Y024379D01*
X016659Y024497D02*
X016060Y024497D01*
X016060Y024616D02*
X021690Y024616D01*
X021690Y024734D02*
X016060Y024734D01*
X017061Y024497D02*
X021690Y024497D01*
X021690Y024379D02*
X019324Y024379D01*
X019443Y024260D02*
X021690Y024260D01*
X021690Y024142D02*
X019561Y024142D01*
X019680Y024023D02*
X019757Y024023D01*
X020363Y024023D02*
X020757Y024023D01*
X020662Y023905D02*
X020458Y023905D01*
X020507Y023786D02*
X020613Y023786D01*
X020610Y023668D02*
X020510Y023668D01*
X020510Y023549D02*
X020610Y023549D01*
X020610Y023431D02*
X020510Y023431D01*
X020510Y023312D02*
X020610Y023312D01*
X020610Y023194D02*
X020510Y023194D01*
X020510Y023075D02*
X020610Y023075D01*
X020610Y022957D02*
X020510Y022957D01*
X020468Y022838D02*
X020652Y022838D01*
X020724Y022720D02*
X020386Y022720D01*
X020805Y022009D02*
X023220Y022009D01*
X023220Y022127D02*
X020923Y022127D01*
X021042Y022246D02*
X023220Y022246D01*
X023220Y022364D02*
X021160Y022364D01*
X021279Y022483D02*
X023220Y022483D01*
X023220Y022601D02*
X022200Y022601D01*
X022386Y022720D02*
X023220Y022720D01*
X023220Y022838D02*
X022468Y022838D01*
X022510Y022957D02*
X023220Y022957D01*
X023220Y023075D02*
X022510Y023075D01*
X022510Y023194D02*
X023220Y023194D01*
X023220Y023312D02*
X022510Y023312D01*
X022510Y023431D02*
X023220Y023431D01*
X023220Y023549D02*
X022510Y023549D01*
X022510Y023668D02*
X023220Y023668D01*
X023220Y023786D02*
X022507Y023786D01*
X022458Y023905D02*
X023220Y023905D01*
X023220Y024023D02*
X022430Y024023D01*
X022430Y024142D02*
X023220Y024142D01*
X023220Y024260D02*
X022430Y024260D01*
X022430Y024379D02*
X023220Y024379D01*
X023220Y024497D02*
X022430Y024497D01*
X022430Y024616D02*
X023220Y024616D01*
X023220Y024734D02*
X022430Y024734D01*
X022430Y024853D02*
X023220Y024853D01*
X023220Y024971D02*
X022430Y024971D01*
X022407Y025090D02*
X023220Y025090D01*
X023220Y025208D02*
X022335Y025208D01*
X022217Y025327D02*
X023220Y025327D01*
X023220Y025445D02*
X022098Y025445D01*
X021980Y025564D02*
X023220Y025564D01*
X023220Y025682D02*
X021861Y025682D01*
X021743Y025801D02*
X023220Y025801D01*
X023220Y025919D02*
X021624Y025919D01*
X021506Y026038D02*
X023220Y026038D01*
X023220Y026156D02*
X021387Y026156D01*
X021269Y026275D02*
X023220Y026275D01*
X023220Y026393D02*
X021150Y026393D01*
X021032Y026512D02*
X023220Y026512D01*
X023220Y026630D02*
X020913Y026630D01*
X020795Y026749D02*
X023220Y026749D01*
X023220Y026867D02*
X020676Y026867D01*
X021052Y025445D02*
X018157Y025445D01*
X018204Y025327D02*
X021170Y025327D01*
X021289Y025208D02*
X018207Y025208D01*
X018167Y025090D02*
X021407Y025090D01*
X021363Y024023D02*
X021690Y024023D01*
X021662Y023905D02*
X021458Y023905D01*
X021507Y023786D02*
X021613Y023786D01*
X021610Y023668D02*
X021510Y023668D01*
X021510Y023549D02*
X021610Y023549D01*
X021610Y023431D02*
X021510Y023431D01*
X021510Y023312D02*
X021610Y023312D01*
X021610Y023194D02*
X021510Y023194D01*
X021510Y023075D02*
X021610Y023075D01*
X021610Y022957D02*
X021510Y022957D01*
X021468Y022838D02*
X021652Y022838D01*
X021734Y022720D02*
X021386Y022720D01*
X021339Y022601D02*
X021920Y022601D01*
X022044Y021772D02*
X023220Y021772D01*
X023220Y021890D02*
X020686Y021890D01*
X020568Y021772D02*
X020876Y021772D01*
X020757Y021653D02*
X020449Y021653D01*
X020331Y021535D02*
X020639Y021535D01*
X020520Y021416D02*
X020203Y021416D01*
X021183Y020587D02*
X015840Y020587D01*
X015840Y020468D02*
X021301Y020468D01*
X021337Y020231D02*
X015840Y020231D01*
X015840Y020113D02*
X021219Y020113D01*
X021140Y019994D02*
X015840Y019994D01*
X015840Y019876D02*
X021140Y019876D01*
X021140Y019757D02*
X015840Y019757D01*
X016291Y019639D02*
X016829Y019639D01*
X016911Y019720D02*
X016700Y019509D01*
X016700Y019211D01*
X016911Y019000D01*
X017209Y019000D01*
X017420Y019211D01*
X017420Y019509D01*
X017209Y019720D01*
X016911Y019720D01*
X016711Y019520D02*
X016409Y019520D01*
X016420Y019402D02*
X016700Y019402D01*
X016700Y019283D02*
X016420Y019283D01*
X016374Y019165D02*
X016746Y019165D01*
X016865Y019046D02*
X016255Y019046D01*
X016239Y018691D02*
X016881Y018691D01*
X016911Y018720D02*
X016700Y018509D01*
X016700Y018211D01*
X016911Y018000D01*
X017209Y018000D01*
X017420Y018211D01*
X017420Y018509D01*
X017209Y018720D01*
X016911Y018720D01*
X016763Y018572D02*
X016357Y018572D01*
X016420Y018454D02*
X016700Y018454D01*
X016700Y018335D02*
X016420Y018335D01*
X016420Y018217D02*
X016700Y018217D01*
X016813Y018098D02*
X016307Y018098D01*
X015840Y017980D02*
X021140Y017980D01*
X021140Y017861D02*
X015822Y017861D01*
X015740Y017743D02*
X017877Y017743D01*
X017894Y017760D02*
X017660Y017526D01*
X017660Y017380D01*
X018040Y017380D01*
X018040Y017760D01*
X017894Y017760D01*
X018040Y017743D02*
X018080Y017743D01*
X018080Y017760D02*
X018226Y017760D01*
X018460Y017526D01*
X018460Y017380D01*
X018080Y017380D01*
X018080Y017340D01*
X018460Y017340D01*
X018460Y017194D01*
X018226Y016960D01*
X018080Y016960D01*
X018080Y017340D01*
X018040Y017340D01*
X018040Y016960D01*
X017894Y016960D01*
X017660Y017194D01*
X017660Y017340D01*
X018040Y017340D01*
X018040Y017380D01*
X018080Y017380D01*
X018080Y017760D01*
X018080Y017624D02*
X018040Y017624D01*
X018040Y017506D02*
X018080Y017506D01*
X018080Y017387D02*
X018040Y017387D01*
X018040Y017269D02*
X018080Y017269D01*
X018080Y017150D02*
X018040Y017150D01*
X018040Y017032D02*
X018080Y017032D01*
X018297Y017032D02*
X021140Y017032D01*
X021140Y016913D02*
X015740Y016913D01*
X015740Y016795D02*
X021140Y016795D01*
X021150Y016676D02*
X018253Y016676D01*
X018209Y016720D02*
X017911Y016720D01*
X017700Y016509D01*
X017700Y016211D01*
X017911Y016000D01*
X018209Y016000D01*
X018420Y016211D01*
X018420Y016509D01*
X018209Y016720D01*
X018372Y016558D02*
X021268Y016558D01*
X021308Y016202D02*
X018411Y016202D01*
X018420Y016321D02*
X023220Y016321D01*
X023220Y016439D02*
X018420Y016439D01*
X018293Y016084D02*
X021190Y016084D01*
X021140Y015965D02*
X015740Y015965D01*
X015740Y015847D02*
X021140Y015847D01*
X021140Y015728D02*
X015740Y015728D01*
X015740Y015610D02*
X016800Y015610D01*
X016700Y015491D02*
X015825Y015491D01*
X015943Y015373D02*
X016700Y015373D01*
X016700Y015254D02*
X016062Y015254D01*
X016180Y015136D02*
X016775Y015136D01*
X016734Y014543D02*
X016340Y014543D01*
X016340Y014425D02*
X016700Y014425D01*
X016700Y014306D02*
X016340Y014306D01*
X016340Y014188D02*
X016723Y014188D01*
X016842Y014069D02*
X016340Y014069D01*
X016340Y013951D02*
X021140Y013951D01*
X021140Y013832D02*
X016340Y013832D01*
X016340Y013714D02*
X016904Y013714D01*
X016911Y013720D02*
X016700Y013509D01*
X016700Y013211D01*
X016911Y013000D01*
X017209Y013000D01*
X017420Y013211D01*
X017420Y013509D01*
X017209Y013720D01*
X016911Y013720D01*
X016786Y013595D02*
X016340Y013595D01*
X016340Y013477D02*
X016700Y013477D01*
X016700Y013358D02*
X016340Y013358D01*
X016340Y013240D02*
X016700Y013240D01*
X016790Y013121D02*
X016340Y013121D01*
X016340Y013003D02*
X016908Y013003D01*
X016911Y012720D02*
X016700Y012509D01*
X016700Y012211D01*
X016911Y012000D01*
X017209Y012000D01*
X017420Y012211D01*
X017420Y012509D01*
X017209Y012720D01*
X016911Y012720D01*
X016838Y012647D02*
X016340Y012647D01*
X016340Y012529D02*
X016719Y012529D01*
X016700Y012410D02*
X016340Y012410D01*
X016340Y012292D02*
X016700Y012292D01*
X016738Y012173D02*
X016340Y012173D01*
X016340Y012055D02*
X016856Y012055D01*
X016911Y011720D02*
X016700Y011509D01*
X016700Y011211D01*
X016911Y011000D01*
X017209Y011000D01*
X017420Y011211D01*
X017420Y011509D01*
X017209Y011720D01*
X016911Y011720D01*
X016890Y011699D02*
X016340Y011699D01*
X016340Y011581D02*
X016771Y011581D01*
X016700Y011462D02*
X016340Y011462D01*
X016340Y011344D02*
X016700Y011344D01*
X016700Y011225D02*
X016340Y011225D01*
X016340Y011107D02*
X016804Y011107D01*
X016894Y010760D02*
X016660Y010526D01*
X016660Y010380D01*
X017040Y010380D01*
X017040Y010760D01*
X016894Y010760D01*
X016885Y010751D02*
X016340Y010751D01*
X016340Y010633D02*
X016767Y010633D01*
X016660Y010514D02*
X016340Y010514D01*
X016340Y010396D02*
X016660Y010396D01*
X016660Y010340D02*
X016660Y010194D01*
X016894Y009960D01*
X017040Y009960D01*
X017040Y010340D01*
X017080Y010340D01*
X017080Y010380D01*
X017460Y010380D01*
X017460Y010526D01*
X017226Y010760D01*
X017080Y010760D01*
X017080Y010380D01*
X017040Y010380D01*
X017040Y010340D01*
X016660Y010340D01*
X016660Y010277D02*
X016340Y010277D01*
X016340Y010159D02*
X016696Y010159D01*
X016814Y010040D02*
X016340Y010040D01*
X016340Y009922D02*
X021140Y009922D01*
X021146Y010040D02*
X018249Y010040D01*
X018209Y010000D02*
X018420Y010211D01*
X018420Y010509D01*
X018209Y010720D01*
X017911Y010720D01*
X017700Y010509D01*
X017700Y010211D01*
X017911Y010000D01*
X018209Y010000D01*
X018368Y010159D02*
X021265Y010159D01*
X021383Y010277D02*
X018420Y010277D01*
X018420Y010396D02*
X023220Y010396D01*
X023220Y010514D02*
X022808Y010514D01*
X022926Y010633D02*
X023220Y010633D01*
X023220Y010751D02*
X022980Y010751D01*
X022980Y010870D02*
X023220Y010870D01*
X023220Y010988D02*
X022980Y010988D01*
X022907Y011107D02*
X023220Y011107D01*
X023220Y011225D02*
X022789Y011225D01*
X022756Y011462D02*
X023220Y011462D01*
X023220Y011344D02*
X018420Y011344D01*
X018420Y011462D02*
X021364Y011462D01*
X021246Y011581D02*
X018349Y011581D01*
X018420Y011509D02*
X018209Y011720D01*
X017911Y011720D01*
X017700Y011509D01*
X017700Y011211D01*
X017911Y011000D01*
X018209Y011000D01*
X018420Y011211D01*
X018420Y011509D01*
X018230Y011699D02*
X021140Y011699D01*
X021140Y011818D02*
X016340Y011818D01*
X016340Y011936D02*
X021140Y011936D01*
X021161Y012055D02*
X018264Y012055D01*
X018209Y012000D02*
X018420Y012211D01*
X018420Y012509D01*
X018209Y012720D01*
X017911Y012720D01*
X017700Y012509D01*
X017700Y012211D01*
X017911Y012000D01*
X018209Y012000D01*
X018382Y012173D02*
X021279Y012173D01*
X021298Y012529D02*
X018401Y012529D01*
X018420Y012410D02*
X023220Y012410D01*
X023220Y012292D02*
X018420Y012292D01*
X018282Y012647D02*
X021179Y012647D01*
X021140Y012766D02*
X016340Y012766D01*
X016340Y012884D02*
X021140Y012884D01*
X021140Y013003D02*
X018212Y013003D01*
X018209Y013000D02*
X018420Y013211D01*
X018420Y013509D01*
X018209Y013720D01*
X017911Y013720D01*
X017700Y013509D01*
X017700Y013211D01*
X017911Y013000D01*
X018209Y013000D01*
X018330Y013121D02*
X021227Y013121D01*
X021346Y013240D02*
X018420Y013240D01*
X018420Y013358D02*
X023220Y013358D01*
X023220Y013240D02*
X022774Y013240D01*
X022893Y013121D02*
X023220Y013121D01*
X023220Y013003D02*
X022980Y013003D01*
X022980Y012884D02*
X023220Y012884D01*
X023220Y012766D02*
X022980Y012766D01*
X022941Y012647D02*
X023220Y012647D01*
X023220Y012529D02*
X022822Y012529D01*
X022841Y012173D02*
X023220Y012173D01*
X023220Y012055D02*
X022959Y012055D01*
X022980Y011936D02*
X023220Y011936D01*
X023220Y011818D02*
X022980Y011818D01*
X022980Y011699D02*
X023220Y011699D01*
X023220Y011581D02*
X022874Y011581D01*
X022737Y010277D02*
X023220Y010277D01*
X023220Y010159D02*
X022855Y010159D01*
X022974Y010040D02*
X023220Y010040D01*
X023220Y009922D02*
X022980Y009922D01*
X022980Y009803D02*
X023220Y009803D01*
X023220Y009685D02*
X022978Y009685D01*
X022860Y009566D02*
X023220Y009566D01*
X023220Y009448D02*
X022741Y009448D01*
X022803Y009211D02*
X023220Y009211D01*
X023220Y009329D02*
X018420Y009329D01*
X018420Y009211D02*
X018209Y009000D01*
X017911Y009000D01*
X017700Y009211D01*
X017700Y009509D01*
X017911Y009720D01*
X018209Y009720D01*
X018420Y009509D01*
X018420Y009211D01*
X021317Y009211D01*
X021198Y009092D02*
X018301Y009092D01*
X018420Y009448D02*
X021379Y009448D01*
X021260Y009566D02*
X018363Y009566D01*
X018245Y009685D02*
X021142Y009685D01*
X021140Y009803D02*
X016340Y009803D01*
X016340Y009685D02*
X016875Y009685D01*
X016911Y009720D02*
X016700Y009509D01*
X016700Y009211D01*
X016911Y009000D01*
X017209Y009000D01*
X017420Y009211D01*
X017420Y009509D01*
X017209Y009720D01*
X016911Y009720D01*
X016757Y009566D02*
X016340Y009566D01*
X016340Y009448D02*
X016700Y009448D01*
X016700Y009329D02*
X016340Y009329D01*
X016405Y009211D02*
X016700Y009211D01*
X016819Y009092D02*
X016524Y009092D01*
X016642Y008974D02*
X021140Y008974D01*
X021140Y008855D02*
X016761Y008855D01*
X016831Y008737D02*
X021140Y008737D01*
X021208Y008618D02*
X018311Y008618D01*
X018209Y008720D02*
X018420Y008509D01*
X018420Y008211D01*
X018209Y008000D01*
X017911Y008000D01*
X017700Y008211D01*
X017700Y008509D01*
X017911Y008720D01*
X018209Y008720D01*
X018420Y008500D02*
X021327Y008500D01*
X021369Y008263D02*
X018420Y008263D01*
X018420Y008381D02*
X023220Y008381D01*
X023220Y008263D02*
X022751Y008263D01*
X022870Y008144D02*
X023220Y008144D01*
X023220Y008026D02*
X022980Y008026D01*
X022980Y007907D02*
X023220Y007907D01*
X023220Y007789D02*
X022980Y007789D01*
X022964Y007670D02*
X023220Y007670D01*
X023220Y007552D02*
X022845Y007552D01*
X022818Y007196D02*
X023220Y007196D01*
X023220Y007078D02*
X022936Y007078D01*
X022980Y006959D02*
X023220Y006959D01*
X023220Y006841D02*
X022980Y006841D01*
X022980Y006722D02*
X023220Y006722D01*
X023220Y006604D02*
X022897Y006604D01*
X023220Y007315D02*
X017501Y007315D01*
X017420Y007433D02*
X023220Y007433D01*
X023220Y008500D02*
X022793Y008500D01*
X022912Y008618D02*
X023220Y008618D01*
X023220Y008737D02*
X022980Y008737D01*
X022980Y008855D02*
X023220Y008855D01*
X023220Y008974D02*
X022980Y008974D01*
X022922Y009092D02*
X023220Y009092D01*
X021250Y008144D02*
X018353Y008144D01*
X018235Y008026D02*
X021140Y008026D01*
X021140Y007907D02*
X016909Y007907D01*
X016885Y008026D02*
X016800Y008026D01*
X017027Y007789D02*
X021140Y007789D01*
X021156Y007670D02*
X017259Y007670D01*
X017378Y007552D02*
X021275Y007552D01*
X021302Y007196D02*
X017620Y007196D01*
X017738Y007078D02*
X021184Y007078D01*
X021140Y006959D02*
X017857Y006959D01*
X017975Y006841D02*
X021140Y006841D01*
X021140Y006722D02*
X018094Y006722D01*
X018204Y006604D02*
X021223Y006604D01*
X022956Y004115D02*
X023220Y004115D01*
X023220Y003997D02*
X023020Y003997D01*
X021280Y002219D02*
X018209Y002219D01*
X017990Y002219D02*
X017930Y002219D01*
X017930Y002101D02*
X017990Y002101D01*
X017990Y001982D02*
X017930Y001982D01*
X017711Y002219D02*
X015239Y002219D01*
X015380Y002101D02*
X017592Y002101D01*
X017530Y001982D02*
X015442Y001982D01*
X015445Y001745D02*
X017530Y001745D01*
X017585Y001627D02*
X015385Y001627D01*
X015040Y001864D02*
X012340Y001864D01*
X012340Y001982D02*
X014678Y001982D01*
X014740Y002101D02*
X012340Y002101D01*
X012340Y001745D02*
X014675Y001745D01*
X014735Y001627D02*
X012340Y001627D01*
X014679Y005182D02*
X014895Y005182D01*
X016287Y007078D02*
X016833Y007078D01*
X016715Y007196D02*
X016405Y007196D01*
X016420Y007315D02*
X016700Y007315D01*
X016591Y007433D02*
X016420Y007433D01*
X016378Y007552D02*
X016473Y007552D01*
X016354Y007670D02*
X016259Y007670D01*
X016235Y008026D02*
X016320Y008026D01*
X017235Y008026D02*
X017885Y008026D01*
X017767Y008144D02*
X017353Y008144D01*
X017420Y008263D02*
X017700Y008263D01*
X017700Y008381D02*
X017420Y008381D01*
X017420Y008500D02*
X017700Y008500D01*
X017809Y008618D02*
X017311Y008618D01*
X017301Y009092D02*
X017819Y009092D01*
X017700Y009211D02*
X017420Y009211D01*
X017420Y009329D02*
X017700Y009329D01*
X017700Y009448D02*
X017420Y009448D01*
X017363Y009566D02*
X017757Y009566D01*
X017875Y009685D02*
X017245Y009685D01*
X017226Y009960D02*
X017460Y010194D01*
X017460Y010340D01*
X017080Y010340D01*
X017080Y009960D01*
X017226Y009960D01*
X017306Y010040D02*
X017871Y010040D01*
X017752Y010159D02*
X017424Y010159D01*
X017460Y010277D02*
X017700Y010277D01*
X017700Y010396D02*
X017460Y010396D01*
X017460Y010514D02*
X017705Y010514D01*
X017823Y010633D02*
X017353Y010633D01*
X017235Y010751D02*
X021140Y010751D01*
X021140Y010870D02*
X016340Y010870D01*
X016340Y010988D02*
X021140Y010988D01*
X021213Y011107D02*
X018316Y011107D01*
X018420Y011225D02*
X021331Y011225D01*
X021194Y010633D02*
X018297Y010633D01*
X018415Y010514D02*
X021312Y010514D01*
X021350Y013477D02*
X018420Y013477D01*
X018334Y013595D02*
X021231Y013595D01*
X021140Y013714D02*
X018216Y013714D01*
X017904Y013714D02*
X017216Y013714D01*
X017334Y013595D02*
X017786Y013595D01*
X017700Y013477D02*
X017420Y013477D01*
X017420Y013358D02*
X017700Y013358D01*
X017700Y013240D02*
X017420Y013240D01*
X017330Y013121D02*
X017790Y013121D01*
X017908Y013003D02*
X017212Y013003D01*
X017282Y012647D02*
X017838Y012647D01*
X017719Y012529D02*
X017401Y012529D01*
X017420Y012410D02*
X017700Y012410D01*
X017700Y012292D02*
X017420Y012292D01*
X017382Y012173D02*
X017738Y012173D01*
X017856Y012055D02*
X017264Y012055D01*
X017230Y011699D02*
X017890Y011699D01*
X017771Y011581D02*
X017349Y011581D01*
X017420Y011462D02*
X017700Y011462D01*
X017700Y011344D02*
X017420Y011344D01*
X017420Y011225D02*
X017700Y011225D01*
X017804Y011107D02*
X017316Y011107D01*
X017080Y010751D02*
X017040Y010751D01*
X017040Y010633D02*
X017080Y010633D01*
X017080Y010514D02*
X017040Y010514D01*
X017040Y010396D02*
X017080Y010396D01*
X017080Y010277D02*
X017040Y010277D01*
X017040Y010159D02*
X017080Y010159D01*
X017080Y010040D02*
X017040Y010040D01*
X017278Y014069D02*
X017842Y014069D01*
X017723Y014188D02*
X017397Y014188D01*
X017420Y014306D02*
X017700Y014306D01*
X017613Y014425D02*
X017420Y014425D01*
X017386Y014543D02*
X017494Y014543D01*
X017823Y014780D02*
X021140Y014780D01*
X021140Y014899D02*
X017704Y014899D01*
X017586Y015017D02*
X017894Y015017D01*
X017911Y015000D02*
X018209Y015000D01*
X018420Y015211D01*
X018420Y015509D01*
X018209Y015720D01*
X017911Y015720D01*
X017700Y015509D01*
X017700Y015211D01*
X017911Y015000D01*
X017775Y015136D02*
X017345Y015136D01*
X017420Y015254D02*
X017700Y015254D01*
X017700Y015373D02*
X017420Y015373D01*
X017420Y015491D02*
X017700Y015491D01*
X017800Y015610D02*
X017320Y015610D01*
X017209Y016000D02*
X017420Y016211D01*
X017420Y016509D01*
X017209Y016720D01*
X016911Y016720D01*
X016700Y016509D01*
X016700Y016211D01*
X016911Y016000D01*
X017209Y016000D01*
X017293Y016084D02*
X017827Y016084D01*
X017709Y016202D02*
X017411Y016202D01*
X017420Y016321D02*
X017700Y016321D01*
X017700Y016439D02*
X017420Y016439D01*
X017372Y016558D02*
X017748Y016558D01*
X017867Y016676D02*
X017253Y016676D01*
X017209Y017000D02*
X016911Y017000D01*
X016700Y017211D01*
X016700Y017509D01*
X016911Y017720D01*
X017209Y017720D01*
X017420Y017509D01*
X017420Y017211D01*
X017209Y017000D01*
X017241Y017032D02*
X017823Y017032D01*
X017704Y017150D02*
X017359Y017150D01*
X017420Y017269D02*
X017660Y017269D01*
X017660Y017387D02*
X017420Y017387D01*
X017420Y017506D02*
X017660Y017506D01*
X017758Y017624D02*
X017305Y017624D01*
X017307Y018098D02*
X017813Y018098D01*
X017911Y018000D02*
X018209Y018000D01*
X018420Y018211D01*
X018420Y018509D01*
X018209Y018720D01*
X017911Y018720D01*
X017700Y018509D01*
X017700Y018211D01*
X017911Y018000D01*
X017700Y018217D02*
X017420Y018217D01*
X017420Y018335D02*
X017700Y018335D01*
X017700Y018454D02*
X017420Y018454D01*
X017357Y018572D02*
X017763Y018572D01*
X017881Y018691D02*
X017239Y018691D01*
X017255Y019046D02*
X021152Y019046D01*
X021140Y018928D02*
X015840Y018928D01*
X015840Y019046D02*
X015865Y019046D01*
X015840Y018809D02*
X021140Y018809D01*
X021140Y018691D02*
X018239Y018691D01*
X018357Y018572D02*
X021254Y018572D01*
X021372Y018454D02*
X018420Y018454D01*
X018420Y018335D02*
X023220Y018335D01*
X023220Y018217D02*
X022797Y018217D01*
X022916Y018098D02*
X023220Y018098D01*
X023220Y017980D02*
X022980Y017980D01*
X022980Y017861D02*
X023220Y017861D01*
X023220Y017743D02*
X022980Y017743D01*
X022918Y017624D02*
X023220Y017624D01*
X023220Y017506D02*
X022800Y017506D01*
X022745Y017269D02*
X023220Y017269D01*
X023220Y017387D02*
X018460Y017387D01*
X018460Y017269D02*
X021375Y017269D01*
X021256Y017150D02*
X018416Y017150D01*
X018460Y017506D02*
X021320Y017506D01*
X021202Y017624D02*
X018362Y017624D01*
X018243Y017743D02*
X021140Y017743D01*
X021204Y018098D02*
X018307Y018098D01*
X018420Y018217D02*
X021323Y018217D01*
X021271Y019165D02*
X017374Y019165D01*
X017420Y019283D02*
X023220Y019283D01*
X023220Y019165D02*
X022849Y019165D01*
X022968Y019046D02*
X023220Y019046D01*
X023220Y018928D02*
X022980Y018928D01*
X022980Y018809D02*
X023220Y018809D01*
X023220Y018691D02*
X022980Y018691D01*
X022866Y018572D02*
X023220Y018572D01*
X023220Y018454D02*
X022748Y018454D01*
X023220Y019402D02*
X017420Y019402D01*
X017409Y019520D02*
X021306Y019520D01*
X021187Y019639D02*
X017291Y019639D01*
X015881Y018691D02*
X015840Y018691D01*
X015280Y018691D02*
X015239Y018691D01*
X015280Y018809D02*
X013149Y018809D01*
X013230Y018928D02*
X015280Y018928D01*
X015280Y019046D02*
X015255Y019046D01*
X014865Y019046D02*
X014255Y019046D01*
X014209Y019000D02*
X014420Y019211D01*
X014420Y019509D01*
X014209Y019720D01*
X013911Y019720D01*
X013700Y019509D01*
X013700Y019211D01*
X013911Y019000D01*
X014209Y019000D01*
X014374Y019165D02*
X014746Y019165D01*
X014700Y019283D02*
X014420Y019283D01*
X014420Y019402D02*
X014700Y019402D01*
X014711Y019520D02*
X014409Y019520D01*
X014291Y019639D02*
X014829Y019639D01*
X014881Y018691D02*
X014295Y018691D01*
X014226Y018760D02*
X014080Y018760D01*
X014080Y018380D01*
X014460Y018380D01*
X014460Y018526D01*
X014226Y018760D01*
X014080Y018691D02*
X014040Y018691D01*
X014040Y018760D02*
X013894Y018760D01*
X013660Y018526D01*
X013660Y018380D01*
X014040Y018380D01*
X014040Y018760D01*
X014040Y018572D02*
X014080Y018572D01*
X014080Y018454D02*
X014040Y018454D01*
X014040Y018380D02*
X014080Y018380D01*
X014080Y018340D01*
X014460Y018340D01*
X014460Y018194D01*
X014226Y017960D01*
X014080Y017960D01*
X014080Y018340D01*
X014040Y018340D01*
X014040Y017960D01*
X013894Y017960D01*
X013660Y018194D01*
X013660Y018340D01*
X014040Y018340D01*
X014040Y018380D01*
X014040Y018335D02*
X014080Y018335D01*
X014080Y018217D02*
X014040Y018217D01*
X014040Y018098D02*
X014080Y018098D01*
X014080Y017980D02*
X014040Y017980D01*
X013875Y017980D02*
X012781Y017980D01*
X012813Y018098D02*
X012730Y018098D01*
X012899Y017861D02*
X015180Y017861D01*
X015180Y017743D02*
X013018Y017743D01*
X013030Y017624D02*
X015180Y017624D01*
X015180Y017506D02*
X013030Y017506D01*
X013030Y017387D02*
X015180Y017387D01*
X015180Y017269D02*
X013030Y017269D01*
X013030Y017150D02*
X015180Y017150D01*
X014724Y017032D02*
X013030Y017032D01*
X013030Y016913D02*
X014672Y016913D01*
X014675Y016795D02*
X013030Y016795D01*
X013030Y016676D02*
X014736Y016676D01*
X015180Y016558D02*
X013030Y016558D01*
X013030Y016439D02*
X015180Y016439D01*
X015180Y016321D02*
X013030Y016321D01*
X013030Y016202D02*
X015180Y016202D01*
X015180Y016084D02*
X013030Y016084D01*
X013030Y015965D02*
X015180Y015965D01*
X015180Y015847D02*
X013030Y015847D01*
X013030Y015728D02*
X015180Y015728D01*
X015180Y015610D02*
X013030Y015610D01*
X013030Y015491D02*
X015180Y015491D01*
X015193Y015373D02*
X013030Y015373D01*
X013030Y015254D02*
X015270Y015254D01*
X015388Y015136D02*
X013030Y015136D01*
X013030Y015017D02*
X015507Y015017D01*
X015625Y014899D02*
X013030Y014899D01*
X013030Y014780D02*
X015744Y014780D01*
X015780Y014662D02*
X013030Y014662D01*
X013030Y014543D02*
X015780Y014543D01*
X015780Y014425D02*
X013030Y014425D01*
X015740Y016084D02*
X016827Y016084D01*
X016709Y016202D02*
X015740Y016202D01*
X015740Y016321D02*
X016700Y016321D01*
X016700Y016439D02*
X015740Y016439D01*
X015740Y016558D02*
X016748Y016558D01*
X016867Y016676D02*
X015740Y016676D01*
X015740Y017032D02*
X016879Y017032D01*
X016761Y017150D02*
X015740Y017150D01*
X015740Y017269D02*
X016700Y017269D01*
X016700Y017387D02*
X015740Y017387D01*
X015740Y017506D02*
X016700Y017506D01*
X016815Y017624D02*
X015740Y017624D01*
X015206Y017980D02*
X014245Y017980D01*
X014364Y018098D02*
X014813Y018098D01*
X014700Y018217D02*
X014460Y018217D01*
X014460Y018335D02*
X014700Y018335D01*
X014700Y018454D02*
X014460Y018454D01*
X014414Y018572D02*
X014763Y018572D01*
X013825Y018691D02*
X013239Y018691D01*
X013357Y018572D02*
X013706Y018572D01*
X013660Y018454D02*
X013420Y018454D01*
X013420Y018335D02*
X013660Y018335D01*
X013660Y018217D02*
X013420Y018217D01*
X013307Y018098D02*
X013756Y018098D01*
X013865Y019046D02*
X013255Y019046D01*
X013374Y019165D02*
X013746Y019165D01*
X013700Y019283D02*
X013420Y019283D01*
X013420Y019402D02*
X013700Y019402D01*
X013711Y019520D02*
X013409Y019520D01*
X013291Y019639D02*
X013829Y019639D01*
X012829Y019639D02*
X012291Y019639D01*
X012383Y019520D02*
X012711Y019520D01*
X012700Y019402D02*
X012420Y019402D01*
X012418Y019283D02*
X012700Y019283D01*
X012746Y019165D02*
X012369Y019165D01*
X012243Y019046D02*
X012865Y019046D01*
X014770Y022246D02*
X018320Y022246D01*
X018320Y022364D02*
X014652Y022364D01*
X014920Y023075D02*
X018200Y023075D01*
X018200Y023194D02*
X014976Y023194D01*
X013741Y022483D02*
X013433Y022483D01*
X013315Y022601D02*
X013623Y022601D01*
X013515Y022720D02*
X013196Y022720D01*
X013078Y022838D02*
X013480Y022838D01*
X013480Y022957D02*
X012959Y022957D01*
X012841Y023075D02*
X013480Y023075D01*
X013480Y023194D02*
X012722Y023194D01*
X012604Y023312D02*
X013480Y023312D01*
X013480Y023431D02*
X012439Y023431D01*
X013358Y023786D02*
X013590Y023786D01*
X013476Y023905D02*
X013709Y023905D01*
X013780Y024023D02*
X013535Y024023D01*
X014125Y026749D02*
X009260Y026749D01*
X009260Y026867D02*
X014244Y026867D01*
X014226Y027860D02*
X014080Y027860D01*
X014080Y028240D01*
X014080Y028280D01*
X014460Y028280D01*
X014460Y028426D01*
X014226Y028660D01*
X014080Y028660D01*
X014080Y028280D01*
X014040Y028280D01*
X014040Y028660D01*
X013894Y028660D01*
X013660Y028426D01*
X013660Y028280D01*
X014040Y028280D01*
X014040Y028240D01*
X014080Y028240D01*
X014460Y028240D01*
X014460Y028094D01*
X014226Y027860D01*
X014299Y027934D02*
X014877Y027934D01*
X014911Y027900D02*
X014700Y028111D01*
X014700Y028409D01*
X014860Y028569D01*
X014860Y029277D01*
X014137Y030000D01*
X013911Y030000D01*
X013700Y030211D01*
X013700Y030509D01*
X013911Y030720D01*
X014209Y030720D01*
X014420Y030509D01*
X014420Y030283D01*
X015260Y029443D01*
X015260Y028569D01*
X015420Y028409D01*
X015420Y028111D01*
X015209Y027900D01*
X014911Y027900D01*
X014759Y028052D02*
X014418Y028052D01*
X014460Y028171D02*
X014700Y028171D01*
X014700Y028289D02*
X014460Y028289D01*
X014460Y028408D02*
X014700Y028408D01*
X014817Y028526D02*
X014360Y028526D01*
X014241Y028645D02*
X014860Y028645D01*
X014860Y028763D02*
X010860Y028763D01*
X010860Y028645D02*
X011479Y028645D01*
X011494Y028660D02*
X011260Y028426D01*
X011260Y028280D01*
X011640Y028280D01*
X011640Y028660D01*
X011494Y028660D01*
X011640Y028645D02*
X011680Y028645D01*
X011680Y028660D02*
X011826Y028660D01*
X012060Y028426D01*
X012060Y028280D01*
X011680Y028280D01*
X011680Y028240D01*
X012060Y028240D01*
X012060Y028094D01*
X011826Y027860D01*
X011680Y027860D01*
X011680Y028240D01*
X011640Y028240D01*
X011640Y027860D01*
X011494Y027860D01*
X011260Y028094D01*
X011260Y028240D01*
X011640Y028240D01*
X011640Y028280D01*
X011680Y028280D01*
X011680Y028660D01*
X011680Y028526D02*
X011640Y028526D01*
X011640Y028408D02*
X011680Y028408D01*
X011680Y028289D02*
X011640Y028289D01*
X011640Y028171D02*
X011680Y028171D01*
X011680Y028052D02*
X011640Y028052D01*
X011640Y027934D02*
X011680Y027934D01*
X011899Y027934D02*
X013821Y027934D01*
X013894Y027860D02*
X014040Y027860D01*
X014040Y028240D01*
X013660Y028240D01*
X013660Y028094D01*
X013894Y027860D01*
X014040Y027934D02*
X014080Y027934D01*
X014080Y028052D02*
X014040Y028052D01*
X014040Y028171D02*
X014080Y028171D01*
X014080Y028289D02*
X014040Y028289D01*
X014040Y028408D02*
X014080Y028408D01*
X014080Y028526D02*
X014040Y028526D01*
X014040Y028645D02*
X014080Y028645D01*
X013879Y028645D02*
X011841Y028645D01*
X011960Y028526D02*
X013760Y028526D01*
X013660Y028408D02*
X012060Y028408D01*
X012060Y028289D02*
X013660Y028289D01*
X013660Y028171D02*
X012060Y028171D01*
X012018Y028052D02*
X013702Y028052D01*
X014860Y028882D02*
X010860Y028882D01*
X010860Y029000D02*
X014860Y029000D01*
X014860Y029119D02*
X010860Y029119D01*
X010860Y029237D02*
X014860Y029237D01*
X014782Y029356D02*
X010860Y029356D01*
X010860Y029474D02*
X014663Y029474D01*
X014545Y029593D02*
X010975Y029593D01*
X010860Y029477D02*
X011543Y030160D01*
X012751Y030160D01*
X012911Y030000D01*
X013209Y030000D01*
X013420Y030211D01*
X013420Y030509D01*
X013209Y030720D01*
X012911Y030720D01*
X012751Y030560D01*
X011377Y030560D01*
X011260Y030443D01*
X010460Y029643D01*
X010460Y028569D01*
X010300Y028409D01*
X010300Y028111D01*
X010511Y027900D01*
X010809Y027900D01*
X011020Y028111D01*
X011020Y028409D01*
X010860Y028569D01*
X010860Y029477D01*
X011094Y029711D02*
X014426Y029711D01*
X014308Y029830D02*
X011212Y029830D01*
X011331Y029948D02*
X014189Y029948D01*
X014518Y030185D02*
X017726Y030185D01*
X017700Y030211D02*
X017911Y030000D01*
X018209Y030000D01*
X018420Y030211D01*
X018420Y030509D01*
X018209Y030720D01*
X017911Y030720D01*
X017700Y030509D01*
X017700Y030211D01*
X017700Y030304D02*
X014420Y030304D01*
X014420Y030422D02*
X017700Y030422D01*
X017731Y030541D02*
X014389Y030541D01*
X014270Y030659D02*
X017850Y030659D01*
X017844Y030067D02*
X014636Y030067D01*
X014755Y029948D02*
X020249Y029948D01*
X020212Y029911D02*
X020072Y029669D01*
X020000Y029400D01*
X020000Y029120D01*
X020072Y028851D01*
X020212Y028609D01*
X020409Y028412D01*
X020651Y028272D01*
X020920Y028200D01*
X021200Y028200D01*
X021469Y028272D01*
X021711Y028412D01*
X021908Y028609D01*
X022048Y028851D01*
X022120Y029120D01*
X022120Y029400D01*
X022048Y029669D01*
X021908Y029911D01*
X021711Y030108D01*
X021469Y030248D01*
X021200Y030320D01*
X020920Y030320D01*
X020651Y030248D01*
X020409Y030108D01*
X020212Y029911D01*
X020165Y029830D02*
X014873Y029830D01*
X014992Y029711D02*
X020096Y029711D01*
X020052Y029593D02*
X015110Y029593D01*
X015229Y029474D02*
X020020Y029474D01*
X020000Y029356D02*
X015260Y029356D01*
X015260Y029237D02*
X020000Y029237D01*
X020001Y029119D02*
X015260Y029119D01*
X015260Y029000D02*
X020032Y029000D01*
X020064Y028882D02*
X015260Y028882D01*
X015260Y028763D02*
X020123Y028763D01*
X020191Y028645D02*
X015260Y028645D01*
X015303Y028526D02*
X020295Y028526D01*
X020416Y028408D02*
X015420Y028408D01*
X015420Y028289D02*
X020622Y028289D01*
X021498Y028289D02*
X023220Y028289D01*
X023220Y028171D02*
X015420Y028171D01*
X015361Y028052D02*
X023220Y028052D01*
X023220Y027934D02*
X015243Y027934D01*
X013844Y030067D02*
X013276Y030067D01*
X013394Y030185D02*
X013726Y030185D01*
X013700Y030304D02*
X013420Y030304D01*
X013420Y030422D02*
X013700Y030422D01*
X013731Y030541D02*
X013389Y030541D01*
X013270Y030659D02*
X013850Y030659D01*
X012850Y030659D02*
X009270Y030659D01*
X009389Y030541D02*
X011358Y030541D01*
X011239Y030422D02*
X009420Y030422D01*
X009420Y030304D02*
X011121Y030304D01*
X011002Y030185D02*
X009394Y030185D01*
X009276Y030067D02*
X010884Y030067D01*
X010765Y029948D02*
X009260Y029948D01*
X009260Y029830D02*
X010647Y029830D01*
X010528Y029711D02*
X009260Y029711D01*
X009260Y029593D02*
X010460Y029593D01*
X010460Y029474D02*
X009260Y029474D01*
X009260Y029356D02*
X010460Y029356D01*
X010460Y029237D02*
X009260Y029237D01*
X009260Y029119D02*
X010460Y029119D01*
X010460Y029000D02*
X009260Y029000D01*
X009260Y028882D02*
X010460Y028882D01*
X010460Y028763D02*
X009260Y028763D01*
X009260Y028645D02*
X010460Y028645D01*
X010417Y028526D02*
X009260Y028526D01*
X009260Y028408D02*
X010300Y028408D01*
X010300Y028289D02*
X009260Y028289D01*
X009260Y028171D02*
X010300Y028171D01*
X010359Y028052D02*
X009260Y028052D01*
X009260Y027934D02*
X010477Y027934D01*
X010843Y027934D02*
X011421Y027934D01*
X011302Y028052D02*
X010961Y028052D01*
X011020Y028171D02*
X011260Y028171D01*
X011260Y028289D02*
X011020Y028289D01*
X011020Y028408D02*
X011260Y028408D01*
X011360Y028526D02*
X010903Y028526D01*
X011449Y030067D02*
X012844Y030067D01*
X009260Y027815D02*
X023220Y027815D01*
X023220Y027697D02*
X009260Y027697D01*
X009260Y027578D02*
X023220Y027578D01*
X023220Y027460D02*
X009260Y027460D01*
X009260Y027341D02*
X023220Y027341D01*
X023220Y027223D02*
X009260Y027223D01*
X009260Y027104D02*
X023220Y027104D01*
X023220Y026986D02*
X009260Y026986D01*
X008860Y026986D02*
X008035Y026986D01*
X007988Y027104D02*
X008860Y027104D01*
X008860Y027223D02*
X007869Y027223D01*
X007580Y027223D02*
X007540Y027223D01*
X007540Y027104D02*
X007580Y027104D01*
X007580Y026986D02*
X007540Y026986D01*
X007251Y027223D02*
X006930Y027223D01*
X006930Y027341D02*
X008860Y027341D01*
X008860Y027460D02*
X006930Y027460D01*
X006930Y027578D02*
X008860Y027578D01*
X008860Y027697D02*
X006930Y027697D01*
X006930Y027815D02*
X008860Y027815D01*
X008860Y027934D02*
X006930Y027934D01*
X006930Y028052D02*
X008860Y028052D01*
X008860Y028171D02*
X006930Y028171D01*
X006930Y028289D02*
X008860Y028289D01*
X008860Y028408D02*
X006930Y028408D01*
X006930Y028526D02*
X008860Y028526D01*
X008860Y028645D02*
X006930Y028645D01*
X006930Y028763D02*
X008860Y028763D01*
X008860Y028882D02*
X006930Y028882D01*
X006930Y029000D02*
X008860Y029000D01*
X008860Y029119D02*
X007869Y029119D01*
X007860Y029109D02*
X007911Y029160D01*
X007953Y029219D01*
X007986Y029283D01*
X008009Y029352D01*
X008020Y029424D01*
X008020Y029720D01*
X007600Y029720D01*
X007600Y029800D01*
X007520Y029800D01*
X007520Y030519D01*
X007452Y030509D01*
X007383Y030486D01*
X007319Y030453D01*
X007260Y030411D01*
X007209Y030360D01*
X007167Y030301D01*
X007134Y030237D01*
X007111Y030168D01*
X007100Y030096D01*
X007100Y029800D01*
X007520Y029800D01*
X007520Y029720D01*
X007100Y029720D01*
X007100Y029424D01*
X007111Y029352D01*
X007134Y029283D01*
X007167Y029219D01*
X007209Y029160D01*
X007260Y029109D01*
X007319Y029067D01*
X007383Y029034D01*
X007452Y029011D01*
X007520Y029001D01*
X007520Y029720D01*
X007600Y029720D01*
X007600Y029001D01*
X007668Y029011D01*
X007737Y029034D01*
X007801Y029067D01*
X007860Y029109D01*
X007963Y029237D02*
X008860Y029237D01*
X008860Y029356D02*
X008009Y029356D01*
X008020Y029474D02*
X008860Y029474D01*
X008860Y029593D02*
X008020Y029593D01*
X008020Y029711D02*
X008860Y029711D01*
X008860Y029830D02*
X008020Y029830D01*
X008020Y029800D02*
X008020Y030096D01*
X008009Y030168D01*
X007986Y030237D01*
X007953Y030301D01*
X007911Y030360D01*
X007860Y030411D01*
X007801Y030453D01*
X007737Y030486D01*
X007668Y030509D01*
X007600Y030519D01*
X007600Y029800D01*
X008020Y029800D01*
X008020Y029948D02*
X008860Y029948D01*
X008844Y030067D02*
X008020Y030067D01*
X008003Y030185D02*
X008726Y030185D01*
X008700Y030304D02*
X007952Y030304D01*
X007844Y030422D02*
X008700Y030422D01*
X008731Y030541D02*
X000870Y030541D01*
X000870Y030659D02*
X008850Y030659D01*
X007600Y030422D02*
X007520Y030422D01*
X007520Y030304D02*
X007600Y030304D01*
X007600Y030185D02*
X007520Y030185D01*
X007520Y030067D02*
X007600Y030067D01*
X007600Y029948D02*
X007520Y029948D01*
X007520Y029830D02*
X007600Y029830D01*
X007600Y029711D02*
X007520Y029711D01*
X007520Y029593D02*
X007600Y029593D01*
X007600Y029474D02*
X007520Y029474D01*
X007520Y029356D02*
X007600Y029356D01*
X007600Y029237D02*
X007520Y029237D01*
X007520Y029119D02*
X007600Y029119D01*
X007251Y029119D02*
X006930Y029119D01*
X006930Y029237D02*
X007157Y029237D01*
X007111Y029356D02*
X006971Y029356D01*
X006980Y029474D02*
X007100Y029474D01*
X007100Y029593D02*
X006980Y029593D01*
X006980Y029711D02*
X007100Y029711D01*
X007100Y029830D02*
X006980Y029830D01*
X006980Y029948D02*
X007100Y029948D01*
X007100Y030067D02*
X006980Y030067D01*
X006963Y030185D02*
X007117Y030185D01*
X007168Y030304D02*
X006910Y030304D01*
X006783Y030422D02*
X007276Y030422D01*
X006337Y030422D02*
X000870Y030422D01*
X000870Y030304D02*
X002859Y030304D01*
X002920Y030320D02*
X002651Y030248D01*
X002409Y030108D01*
X002212Y029911D01*
X002072Y029669D01*
X002000Y029400D01*
X002000Y029120D01*
X002072Y028851D01*
X002212Y028609D01*
X002409Y028412D01*
X002651Y028272D01*
X002920Y028200D01*
X003200Y028200D01*
X003469Y028272D01*
X003711Y028412D01*
X003908Y028609D01*
X004048Y028851D01*
X004120Y029120D01*
X004120Y029400D01*
X004048Y029669D01*
X003908Y029911D01*
X003711Y030108D01*
X003469Y030248D01*
X003200Y030320D01*
X002920Y030320D01*
X003261Y030304D02*
X006210Y030304D01*
X006157Y030185D02*
X003578Y030185D01*
X003753Y030067D02*
X006140Y030067D01*
X006140Y029948D02*
X003871Y029948D01*
X003955Y029830D02*
X006140Y029830D01*
X006140Y029711D02*
X004024Y029711D01*
X004068Y029593D02*
X006140Y029593D01*
X006140Y029474D02*
X004100Y029474D01*
X004120Y029356D02*
X006149Y029356D01*
X006190Y029237D02*
X004120Y029237D01*
X004119Y029119D02*
X006190Y029119D01*
X006190Y029000D02*
X004088Y029000D01*
X004056Y028882D02*
X006190Y028882D01*
X006190Y028763D02*
X003997Y028763D01*
X003929Y028645D02*
X006190Y028645D01*
X006190Y028526D02*
X003825Y028526D01*
X003704Y028408D02*
X006190Y028408D01*
X006190Y028289D02*
X003498Y028289D01*
X002622Y028289D02*
X000870Y028289D01*
X000870Y028171D02*
X006190Y028171D01*
X006190Y028052D02*
X000870Y028052D01*
X000870Y027934D02*
X006190Y027934D01*
X006190Y027815D02*
X000870Y027815D01*
X000870Y027697D02*
X006190Y027697D01*
X006190Y027578D02*
X000870Y027578D01*
X000870Y027460D02*
X006190Y027460D01*
X006190Y027341D02*
X000870Y027341D01*
X000870Y028408D02*
X002416Y028408D01*
X002295Y028526D02*
X000870Y028526D01*
X000870Y028645D02*
X002191Y028645D01*
X002123Y028763D02*
X000870Y028763D01*
X000870Y028882D02*
X002064Y028882D01*
X002032Y029000D02*
X000870Y029000D01*
X000870Y029119D02*
X002001Y029119D01*
X002000Y029237D02*
X000870Y029237D01*
X000870Y029356D02*
X002000Y029356D01*
X002020Y029474D02*
X000870Y029474D01*
X000870Y029593D02*
X002052Y029593D01*
X002096Y029711D02*
X000870Y029711D01*
X000870Y029830D02*
X002165Y029830D01*
X002249Y029948D02*
X000870Y029948D01*
X000870Y030067D02*
X002367Y030067D01*
X002542Y030185D02*
X000870Y030185D01*
X000870Y030778D02*
X023220Y030778D01*
X023220Y030659D02*
X018270Y030659D01*
X018389Y030541D02*
X023220Y030541D01*
X023220Y030422D02*
X018420Y030422D01*
X018420Y030304D02*
X020859Y030304D01*
X020542Y030185D02*
X018394Y030185D01*
X018276Y030067D02*
X020367Y030067D01*
X021261Y030304D02*
X023220Y030304D01*
X023220Y030185D02*
X021578Y030185D01*
X021753Y030067D02*
X023220Y030067D01*
X023220Y029948D02*
X021871Y029948D01*
X021955Y029830D02*
X023220Y029830D01*
X023220Y029711D02*
X022024Y029711D01*
X022068Y029593D02*
X023220Y029593D01*
X023220Y029474D02*
X022100Y029474D01*
X022120Y029356D02*
X023220Y029356D01*
X023220Y029237D02*
X022120Y029237D01*
X022119Y029119D02*
X023220Y029119D01*
X023220Y029000D02*
X022088Y029000D01*
X022056Y028882D02*
X023220Y028882D01*
X023220Y028763D02*
X021997Y028763D01*
X021929Y028645D02*
X023220Y028645D01*
X023220Y028526D02*
X021825Y028526D01*
X021704Y028408D02*
X023220Y028408D01*
X023220Y021653D02*
X022163Y021653D01*
X022281Y021535D02*
X023220Y021535D01*
X023220Y021416D02*
X022400Y021416D01*
X022518Y021298D02*
X023220Y021298D01*
X023220Y021179D02*
X022835Y021179D01*
X022953Y021061D02*
X023220Y021061D01*
X023220Y020942D02*
X022980Y020942D01*
X022980Y020824D02*
X023220Y020824D01*
X023220Y020705D02*
X022980Y020705D01*
X022881Y020587D02*
X023220Y020587D01*
X023220Y020468D02*
X022762Y020468D01*
X022783Y020231D02*
X023220Y020231D01*
X023220Y020113D02*
X022901Y020113D01*
X022980Y019994D02*
X023220Y019994D01*
X023220Y019876D02*
X022980Y019876D01*
X022980Y019757D02*
X023220Y019757D01*
X023220Y019639D02*
X022933Y019639D01*
X022814Y019520D02*
X023220Y019520D01*
X023220Y020350D02*
X015840Y020350D01*
X018320Y015610D02*
X021216Y015610D01*
X021335Y015491D02*
X018420Y015491D01*
X018420Y015373D02*
X023220Y015373D01*
X023220Y015491D02*
X022785Y015491D01*
X022904Y015610D02*
X023220Y015610D01*
X023220Y015728D02*
X022980Y015728D01*
X022980Y015847D02*
X023220Y015847D01*
X023220Y015965D02*
X022980Y015965D01*
X022930Y016084D02*
X023220Y016084D01*
X023220Y016202D02*
X022812Y016202D01*
X022852Y016558D02*
X023220Y016558D01*
X023220Y016676D02*
X022970Y016676D01*
X022980Y016795D02*
X023220Y016795D01*
X023220Y016913D02*
X022980Y016913D01*
X022980Y017032D02*
X023220Y017032D01*
X023220Y017150D02*
X022864Y017150D01*
X022760Y015254D02*
X023220Y015254D01*
X023220Y015136D02*
X022878Y015136D01*
X022980Y015017D02*
X023220Y015017D01*
X023220Y014899D02*
X022980Y014899D01*
X022980Y014780D02*
X023220Y014780D01*
X023220Y014662D02*
X022955Y014662D01*
X022837Y014543D02*
X023220Y014543D01*
X023220Y014425D02*
X018420Y014425D01*
X018420Y014306D02*
X023220Y014306D01*
X023220Y014188D02*
X022826Y014188D01*
X022945Y014069D02*
X023220Y014069D01*
X023220Y013951D02*
X022980Y013951D01*
X022980Y013832D02*
X023220Y013832D01*
X023220Y013714D02*
X022980Y013714D01*
X022889Y013595D02*
X023220Y013595D01*
X023220Y013477D02*
X022770Y013477D01*
X021294Y014188D02*
X018397Y014188D01*
X018278Y014069D02*
X021175Y014069D01*
X021283Y014543D02*
X018386Y014543D01*
X018268Y014662D02*
X021165Y014662D01*
X021140Y015017D02*
X018226Y015017D01*
X018345Y015136D02*
X021242Y015136D01*
X021360Y015254D02*
X018420Y015254D01*
X021937Y020587D02*
X022239Y020587D01*
X022140Y020705D02*
X022020Y020705D01*
X022140Y020824D02*
X021600Y020824D01*
X022020Y020942D02*
X022082Y020942D01*
X009813Y018098D02*
X009730Y018098D01*
X007085Y026986D02*
X006979Y026986D01*
X006930Y027104D02*
X007132Y027104D01*
D26*
X009060Y026060D02*
X009960Y025160D01*
X009060Y026060D02*
X009060Y030360D01*
X010660Y029560D02*
X010660Y028260D01*
X010660Y029560D02*
X011460Y030360D01*
X013060Y030360D01*
X014060Y030360D02*
X015060Y029360D01*
X015060Y028260D01*
X015860Y025260D02*
X015860Y024360D01*
X014560Y023060D01*
X016860Y024260D02*
X019160Y024260D01*
X020060Y023360D01*
X017460Y014860D02*
X016060Y014860D01*
X017460Y014860D02*
X017960Y014360D01*
X018060Y014360D01*
X009060Y011860D02*
X006560Y011860D01*
X006060Y011360D01*
D27*
X009060Y008360D02*
X008560Y007860D01*
X008560Y006460D01*
X006960Y004860D01*
X006060Y004860D01*
X009060Y016860D02*
X008860Y017060D01*
X008360Y017060D01*
X007060Y018360D01*
X016560Y008660D02*
X016560Y007860D01*
X018460Y021660D02*
X018560Y021760D01*
X018560Y023060D01*
M02*
