%
M48
M72
T01C0.0197
T02C0.0240
T03C0.0320
T04C0.0360
T05C0.0400
T06C0.0440
T07C0.1300
%
T01
X1060Y9360
X5160Y17160
X5260Y18860
X7860Y16560
X8610Y16610
X8560Y17460
X8960Y17760
X8560Y18060
X9560Y16860
X10260Y16260
X10460Y14860
X12060Y16260
X13460Y14860
X13960Y16260
X14960Y16860
X15960Y16360
X12260Y9960
X10560Y11860
X8160Y9960
X10360Y4060
X10360Y2560
X15460Y9060
X10560Y17960
X1060Y18360
X23060Y18360
X23060Y8360
T02
X16860Y24260
X15860Y25260
X17860Y25260
T03
X18560Y23060
X17060Y19360
X17060Y18360
X17060Y17360
X17060Y16360
X17060Y15360
X17060Y14360
X17060Y13360
X17060Y12360
X17060Y11360
X17060Y10360
X17060Y9360
X17060Y8360
X17060Y7360
X18060Y8360
X18060Y9360
X18060Y10360
X18060Y11360
X18060Y12360
X18060Y13360
X18060Y14360
X18060Y15360
X18060Y16360
X18060Y17360
X18060Y18360
X16060Y18360
X16060Y19360
X15060Y19360
X15060Y18360
X14060Y18360
X14060Y19360
X13060Y19360
X13060Y18360
X12060Y18360
X12060Y19360
X11060Y19360
X11060Y18360
X10060Y18360
X10060Y19360
X9060Y19360
X9060Y18360
X8060Y18360
X8060Y19360
X7060Y19360
X7060Y18360
X7060Y17360
X7060Y16360
X7060Y15360
X7060Y14360
X7060Y13360
X7060Y12360
X7060Y11360
X7060Y10360
X7060Y9360
X7060Y8360
X7060Y7360
X8060Y7360
X8060Y8360
X9060Y8360
X9060Y7360
X10060Y7360
X10060Y8360
X11060Y8360
X11060Y7360
X12060Y7360
X12060Y8360
X13060Y8360
X13060Y7360
X14060Y7360
X14060Y8360
X15060Y8360
X15060Y7360
X16060Y7360
X16060Y8360
X15060Y4860
X15060Y1860
X9060Y1860
X9060Y4860
X6060Y8360
X6060Y9360
X6060Y10360
X6060Y11360
X6060Y12360
X6060Y13360
X6060Y14360
X6060Y15360
X6060Y16360
X6060Y17360
X6060Y18360
X9960Y24160
X9960Y25160
X7560Y26860
X6560Y26860
X9060Y30360
X10660Y28260
X11660Y28260
X13060Y30360
X14060Y30360
X14060Y28260
X15060Y28260
X13060Y25160
X13060Y24160
X14560Y23060
X18060Y30360
T04
X13560Y21960
X10560Y21960
X6060Y4860
X6060Y1860
X17960Y1860
X17960Y4860
T05
X1560Y1860
X1560Y2860
X1560Y3860
X1560Y4860
X1560Y5860
X1560Y6860
X1560Y7860
X1560Y8860
X1560Y9860
X1560Y10860
X1560Y11860
X1560Y12860
X1560Y13860
X1560Y14860
X1560Y15860
X1560Y16860
X1560Y17860
X1560Y18860
X1560Y19860
X1560Y20860
X2560Y20860
X2560Y19860
X2560Y18860
X2560Y17860
X2560Y16860
X2560Y15860
X2560Y14860
X2560Y13860
X2560Y12860
X2560Y11860
X2560Y10860
X2560Y9860
X2560Y8860
X2560Y7860
X2560Y6860
X2560Y5860
X2560Y4860
X2560Y3860
X2560Y2860
X2560Y1860
X5260Y21460
X5260Y22460
X6260Y22460
X6260Y21460
X7260Y21460
X7260Y22460
X8260Y22460
X8260Y21460
X9260Y21460
X9260Y22460
X7560Y29760
X6560Y29760
X16460Y21660
X17460Y21660
X18460Y21660
X21560Y20860
X21560Y19860
X21560Y18860
X21560Y17860
X21560Y16860
X21560Y15860
X21560Y14860
X21560Y13860
X21560Y12860
X21560Y11860
X21560Y10860
X21560Y9860
X21560Y8860
X21560Y7860
X21560Y6860
X21560Y5860
X21560Y4860
X21560Y3860
X21560Y2860
X21560Y1860
X22560Y1860
X22560Y2860
X22560Y3860
X22560Y4860
X22560Y5860
X22560Y6860
X22560Y7860
X22560Y8860
X22560Y9860
X22560Y10860
X22560Y11860
X22560Y12860
X22560Y13860
X22560Y14860
X22560Y15860
X22560Y16860
X22560Y17860
X22560Y18860
X22560Y19860
X22560Y20860
T06
X22060Y23360
X21060Y23360
X20060Y23360
X4060Y23360
X3060Y23360
X2060Y23360
T07
X3060Y29260
X21060Y29260
M30
