G75*
%MOIN*%
%OFA0B0*%
%FSLAX24Y24*%
%IPPOS*%
%LPD*%
%AMOC8*
5,1,8,0,0,1.08239X$1,22.5*
%
%ADD10C,0.0040*%
%ADD11C,0.0060*%
%ADD12C,0.0030*%
%ADD13C,0.0110*%
%ADD14C,0.0050*%
%ADD15R,0.0400X0.0750*%
%ADD16R,0.0700X0.0150*%
%ADD17R,0.0500X0.0100*%
%ADD18R,0.0300X0.0100*%
%ADD19R,0.0100X0.0100*%
%ADD20R,0.0100X0.0050*%
%ADD21R,0.0050X0.0050*%
%ADD22C,0.0020*%
%ADD23R,0.0300X0.0250*%
%ADD24R,0.0500X0.1100*%
%ADD25C,0.0070*%
%ADD26C,0.0100*%
%ADD27C,0.0120*%
%ADD28C,0.0160*%
%ADD29R,0.0340X0.0240*%
%ADD30R,0.0800X0.0200*%
%ADD31R,0.0200X0.0800*%
%ADD32C,0.0080*%
D10*
X000957Y000780D02*
X000880Y000857D01*
X000957Y000780D02*
X001110Y000780D01*
X001187Y000857D01*
X001187Y001010D01*
X001110Y001087D01*
X001033Y001087D01*
X000880Y001010D01*
X000880Y001240D01*
X001187Y001240D01*
X001340Y001240D02*
X001340Y000933D01*
X001494Y000780D01*
X001647Y000933D01*
X001647Y001240D01*
X003180Y001657D02*
X003257Y001580D01*
X003410Y001580D01*
X003487Y001657D01*
X003487Y001810D01*
X003333Y001810D01*
X003180Y001657D02*
X003180Y001964D01*
X003257Y002040D01*
X003410Y002040D01*
X003487Y001964D01*
X003640Y002040D02*
X003947Y001580D01*
X003947Y002040D01*
X004101Y002040D02*
X004331Y002040D01*
X004408Y001964D01*
X004408Y001657D01*
X004331Y001580D01*
X004101Y001580D01*
X004101Y002040D01*
X003640Y002040D02*
X003640Y001580D01*
X003640Y002580D02*
X003640Y003040D01*
X003947Y002580D01*
X003947Y003040D01*
X004101Y003040D02*
X004101Y002580D01*
X004331Y002580D01*
X004408Y002657D01*
X004408Y002964D01*
X004331Y003040D01*
X004101Y003040D01*
X004101Y003580D02*
X004331Y003580D01*
X004408Y003657D01*
X004408Y003964D01*
X004331Y004040D01*
X004101Y004040D01*
X004101Y003580D01*
X003947Y003580D02*
X003947Y004040D01*
X003640Y004040D02*
X003640Y003580D01*
X003487Y003657D02*
X003487Y003810D01*
X003333Y003810D01*
X003180Y003657D02*
X003180Y003964D01*
X003257Y004040D01*
X003410Y004040D01*
X003487Y003964D01*
X003640Y004040D02*
X003947Y003580D01*
X003487Y003657D02*
X003410Y003580D01*
X003257Y003580D01*
X003180Y003657D01*
X003257Y003040D02*
X003180Y002964D01*
X003180Y002657D01*
X003257Y002580D01*
X003410Y002580D01*
X003487Y002657D01*
X003487Y002810D01*
X003333Y002810D01*
X003487Y002964D02*
X003410Y003040D01*
X003257Y003040D01*
X015280Y021180D02*
X015510Y021180D01*
X015433Y021333D01*
X015433Y021410D01*
X015510Y021487D01*
X015663Y021487D01*
X015740Y021410D01*
X015740Y021257D01*
X015663Y021180D01*
X015280Y021180D02*
X015280Y021487D01*
X015280Y021640D02*
X015587Y021640D01*
X015740Y021794D01*
X015587Y021947D01*
X015280Y021947D01*
X016852Y021090D02*
X016852Y020783D01*
X017006Y020630D01*
X017159Y020783D01*
X017159Y021090D01*
X017313Y021090D02*
X017466Y021090D01*
X017389Y021090D02*
X017389Y020630D01*
X017313Y020630D02*
X017466Y020630D01*
X017620Y020707D02*
X017620Y021014D01*
X017696Y021090D01*
X017850Y021090D01*
X017927Y021014D01*
X017927Y020707D01*
X017850Y020630D01*
X017696Y020630D01*
X017620Y020707D01*
X019180Y020945D02*
X019180Y021099D01*
X019256Y021176D01*
X019333Y021176D01*
X019410Y021099D01*
X019487Y021176D01*
X019563Y021176D01*
X019640Y021099D01*
X019640Y020945D01*
X019563Y020869D01*
X019410Y021022D02*
X019410Y021099D01*
X019563Y021329D02*
X019563Y021406D01*
X019640Y021406D01*
X019640Y021329D01*
X019563Y021329D01*
X019563Y021559D02*
X019640Y021636D01*
X019640Y021789D01*
X019563Y021866D01*
X019487Y021866D01*
X019410Y021789D01*
X019410Y021713D01*
X019410Y021789D02*
X019333Y021866D01*
X019256Y021866D01*
X019180Y021789D01*
X019180Y021636D01*
X019256Y021559D01*
X019180Y022020D02*
X019487Y022020D01*
X019640Y022173D01*
X019487Y022327D01*
X019180Y022327D01*
X019180Y020945D02*
X019256Y020869D01*
X020280Y021557D02*
X020280Y021864D01*
X020357Y021940D01*
X020510Y021940D01*
X020587Y021864D01*
X020587Y021710D02*
X020433Y021710D01*
X020587Y021710D02*
X020587Y021557D01*
X020510Y021480D01*
X020357Y021480D01*
X020280Y021557D01*
X020740Y021480D02*
X020740Y021940D01*
X021047Y021480D01*
X021047Y021940D01*
X021201Y021940D02*
X021431Y021940D01*
X021508Y021864D01*
X021508Y021557D01*
X021431Y021480D01*
X021201Y021480D01*
X021201Y021940D01*
X022180Y021940D02*
X022180Y021633D01*
X022333Y021480D01*
X022487Y021633D01*
X022487Y021940D01*
X022640Y021940D02*
X022794Y021940D01*
X022717Y021940D02*
X022717Y021480D01*
X022640Y021480D02*
X022794Y021480D01*
X022947Y021557D02*
X023024Y021480D01*
X023178Y021480D01*
X023254Y021557D01*
X023254Y021864D01*
X023178Y021940D01*
X023024Y021940D01*
X022947Y021864D01*
X022947Y021557D01*
X017257Y027173D02*
X017027Y027404D01*
X016950Y027327D02*
X017257Y027634D01*
X016950Y027634D02*
X016950Y027173D01*
X016797Y027173D02*
X016490Y027173D01*
X016643Y027173D02*
X016643Y027634D01*
X016490Y027480D01*
X008128Y030430D02*
X007975Y030583D01*
X008052Y030583D02*
X007822Y030583D01*
X007822Y030430D02*
X007822Y030890D01*
X008052Y030890D01*
X008128Y030814D01*
X008128Y030660D01*
X008052Y030583D01*
X007668Y030430D02*
X007361Y030430D01*
X007361Y030890D01*
X007668Y030890D01*
X007515Y030660D02*
X007361Y030660D01*
X007208Y030430D02*
X007208Y030890D01*
X007054Y030583D02*
X007208Y030430D01*
X007054Y030583D02*
X006901Y030430D01*
X006901Y030890D01*
X006747Y030814D02*
X006671Y030890D01*
X006517Y030890D01*
X006440Y030814D01*
X006440Y030507D01*
X006517Y030430D01*
X006671Y030430D01*
X006747Y030507D01*
X006747Y030814D01*
X006287Y030814D02*
X006287Y030660D01*
X006210Y030583D01*
X005980Y030583D01*
X005980Y030430D02*
X005980Y030890D01*
X006210Y030890D01*
X006287Y030814D01*
X006340Y024090D02*
X006647Y024090D01*
X006494Y024090D02*
X006494Y023630D01*
X006801Y023630D02*
X006801Y023937D01*
X006954Y024090D01*
X007108Y023937D01*
X007108Y023630D01*
X007261Y023707D02*
X007261Y024014D01*
X007338Y024090D01*
X007491Y024090D01*
X007568Y024014D01*
X007568Y023860D02*
X007415Y023860D01*
X007568Y023860D02*
X007568Y023707D01*
X007491Y023630D01*
X007338Y023630D01*
X007261Y023707D01*
X007108Y023860D02*
X006801Y023860D01*
X006187Y024090D02*
X006033Y024090D01*
X006110Y024090D02*
X006110Y023707D01*
X006033Y023630D01*
X005957Y023630D01*
X005880Y023707D01*
X003454Y021864D02*
X003454Y021557D01*
X003378Y021480D01*
X003224Y021480D01*
X003147Y021557D01*
X003147Y021864D01*
X003224Y021940D01*
X003378Y021940D01*
X003454Y021864D01*
X002994Y021940D02*
X002840Y021940D01*
X002917Y021940D02*
X002917Y021480D01*
X002840Y021480D02*
X002994Y021480D01*
X002687Y021633D02*
X002687Y021940D01*
X002687Y021633D02*
X002533Y021480D01*
X002380Y021633D01*
X002380Y021940D01*
X002008Y021864D02*
X002008Y021557D01*
X001931Y021480D01*
X001701Y021480D01*
X001701Y021940D01*
X001931Y021940D01*
X002008Y021864D01*
X001547Y021940D02*
X001547Y021480D01*
X001240Y021940D01*
X001240Y021480D01*
X001087Y021557D02*
X001087Y021710D01*
X000933Y021710D01*
X000780Y021557D02*
X000857Y021480D01*
X001010Y021480D01*
X001087Y021557D01*
X001087Y021864D02*
X001010Y021940D01*
X000857Y021940D01*
X000780Y021864D01*
X000780Y021557D01*
X019959Y004040D02*
X019959Y003810D01*
X020113Y003887D01*
X020189Y003887D01*
X020266Y003810D01*
X020266Y003657D01*
X020189Y003580D01*
X020036Y003580D01*
X019959Y003657D01*
X019959Y004040D02*
X020266Y004040D01*
X020420Y004040D02*
X020420Y003733D01*
X020573Y003580D01*
X020727Y003733D01*
X020727Y004040D01*
X020727Y003140D02*
X020727Y002833D01*
X020573Y002680D01*
X020420Y002833D01*
X020420Y003140D01*
X020266Y003140D02*
X019959Y003140D01*
X019959Y002910D01*
X020113Y002987D01*
X020189Y002987D01*
X020266Y002910D01*
X020266Y002757D01*
X020189Y002680D01*
X020036Y002680D01*
X019959Y002757D01*
X019959Y002040D02*
X019959Y001810D01*
X020113Y001887D01*
X020189Y001887D01*
X020266Y001810D01*
X020266Y001657D01*
X020189Y001580D01*
X020036Y001580D01*
X019959Y001657D01*
X019959Y002040D02*
X020266Y002040D01*
X020420Y002040D02*
X020420Y001733D01*
X020573Y001580D01*
X020727Y001733D01*
X020727Y002040D01*
X021899Y001164D02*
X021899Y000857D01*
X021976Y000780D01*
X022129Y000780D01*
X022206Y000857D01*
X022206Y001010D01*
X022052Y001010D01*
X021899Y001164D02*
X021976Y001240D01*
X022129Y001240D01*
X022206Y001164D01*
X022359Y001240D02*
X022359Y000780D01*
X022666Y000780D02*
X022359Y001240D01*
X022666Y001240D02*
X022666Y000780D01*
X022820Y000780D02*
X022820Y001240D01*
X023050Y001240D01*
X023127Y001164D01*
X023127Y000857D01*
X023050Y000780D01*
X022820Y000780D01*
D11*
X022810Y001360D02*
X021310Y001360D01*
X021060Y001610D01*
X021060Y002110D01*
X021310Y002360D01*
X022810Y002360D01*
X023060Y002110D01*
X023060Y001610D01*
X022810Y001360D01*
X022810Y002360D02*
X023060Y002610D01*
X023060Y003110D01*
X022810Y003360D01*
X021310Y003360D01*
X021060Y003610D01*
X021060Y004110D01*
X021310Y004360D01*
X022810Y004360D01*
X023060Y004110D01*
X023060Y003610D01*
X022810Y003360D01*
X022810Y004360D02*
X023060Y004610D01*
X023060Y005110D01*
X022810Y005360D01*
X021310Y005360D01*
X021060Y005610D01*
X021060Y006110D01*
X021310Y006360D01*
X022810Y006360D01*
X023060Y006110D01*
X023060Y005610D01*
X022810Y005360D01*
X022810Y006360D02*
X023060Y006610D01*
X023060Y007110D01*
X022810Y007360D01*
X021310Y007360D01*
X021060Y007610D01*
X021060Y008110D01*
X021310Y008360D01*
X022810Y008360D01*
X023060Y008110D01*
X023060Y007610D01*
X022810Y007360D01*
X022810Y008360D02*
X023060Y008610D01*
X023060Y009110D01*
X022810Y009360D01*
X021310Y009360D01*
X021060Y009610D01*
X021060Y010110D01*
X021310Y010360D01*
X022810Y010360D01*
X023060Y010110D01*
X023060Y009610D01*
X022810Y009360D01*
X022810Y010360D02*
X023060Y010610D01*
X023060Y011110D01*
X022810Y011360D01*
X021310Y011360D01*
X021060Y011610D01*
X021060Y012110D01*
X021310Y012360D01*
X022810Y012360D01*
X023060Y012110D01*
X023060Y011610D01*
X022810Y011360D01*
X022810Y012360D02*
X023060Y012610D01*
X023060Y013110D01*
X022810Y013360D01*
X021310Y013360D01*
X021060Y013610D01*
X021060Y014110D01*
X021310Y014360D01*
X022810Y014360D01*
X023060Y014110D01*
X023060Y013610D01*
X022810Y013360D01*
X022810Y014360D02*
X023060Y014610D01*
X023060Y015110D01*
X022810Y015360D01*
X021310Y015360D01*
X021060Y015110D01*
X021060Y014610D01*
X021310Y014360D01*
X021310Y013360D02*
X021060Y013110D01*
X021060Y012610D01*
X021310Y012360D01*
X021310Y011360D02*
X021060Y011110D01*
X021060Y010610D01*
X021310Y010360D01*
X021310Y009360D02*
X021060Y009110D01*
X021060Y008610D01*
X021310Y008360D01*
X021310Y007360D02*
X021060Y007110D01*
X021060Y006610D01*
X021310Y006360D01*
X021310Y005360D02*
X021060Y005110D01*
X021060Y004610D01*
X021310Y004360D01*
X021310Y003360D02*
X021060Y003110D01*
X021060Y002610D01*
X021310Y002360D01*
X018960Y001410D02*
X018960Y005310D01*
X018958Y005327D01*
X018954Y005344D01*
X018947Y005360D01*
X018937Y005374D01*
X018924Y005387D01*
X018910Y005397D01*
X018894Y005404D01*
X018877Y005408D01*
X018860Y005410D01*
X017060Y005410D01*
X017043Y005408D01*
X017026Y005404D01*
X017010Y005397D01*
X016996Y005387D01*
X016983Y005374D01*
X016973Y005360D01*
X016966Y005344D01*
X016962Y005327D01*
X016960Y005310D01*
X016960Y001410D01*
X016962Y001393D01*
X016966Y001376D01*
X016973Y001360D01*
X016983Y001346D01*
X016996Y001333D01*
X017010Y001323D01*
X017026Y001316D01*
X017043Y001312D01*
X017060Y001310D01*
X018860Y001310D01*
X018877Y001312D01*
X018894Y001316D01*
X018910Y001323D01*
X018924Y001333D01*
X018937Y001346D01*
X018947Y001360D01*
X018954Y001376D01*
X018958Y001393D01*
X018960Y001410D01*
X017960Y002310D02*
X017960Y003860D01*
X017960Y004210D02*
X017960Y004410D01*
X018910Y006260D02*
X005210Y006260D01*
X005180Y006262D01*
X005150Y006267D01*
X005121Y006276D01*
X005094Y006289D01*
X005068Y006304D01*
X005044Y006323D01*
X005023Y006344D01*
X005004Y006368D01*
X004989Y006394D01*
X004976Y006421D01*
X004967Y006450D01*
X004962Y006480D01*
X004960Y006510D01*
X004960Y019860D01*
X005560Y020460D01*
X018910Y020460D01*
X018940Y020458D01*
X018970Y020453D01*
X018999Y020444D01*
X019026Y020431D01*
X019052Y020416D01*
X019076Y020397D01*
X019097Y020376D01*
X019116Y020352D01*
X019131Y020326D01*
X019144Y020299D01*
X019153Y020270D01*
X019158Y020240D01*
X019160Y020210D01*
X019160Y006510D01*
X019158Y006480D01*
X019153Y006450D01*
X019144Y006421D01*
X019131Y006394D01*
X019116Y006368D01*
X019097Y006344D01*
X019076Y006323D01*
X019052Y006304D01*
X019026Y006289D01*
X018999Y006276D01*
X018970Y006267D01*
X018940Y006262D01*
X018910Y006260D01*
X017810Y007610D02*
X017810Y008110D01*
X017810Y007610D02*
X017310Y007610D01*
X017210Y006960D02*
X017210Y006760D01*
X016910Y006760D01*
X016910Y006960D01*
X016710Y006760D02*
X016410Y006760D01*
X016410Y007160D01*
X016210Y006960D02*
X016210Y006760D01*
X015910Y006760D01*
X015910Y006960D01*
X015710Y006760D02*
X015710Y007160D01*
X015410Y007160D02*
X015410Y006760D01*
X015710Y006760D01*
X015210Y006760D02*
X015210Y006960D01*
X015210Y006760D02*
X014910Y006760D01*
X014910Y006960D01*
X014710Y006760D02*
X014710Y007160D01*
X014710Y006760D02*
X014410Y006760D01*
X014410Y007160D01*
X014210Y006960D02*
X014210Y006760D01*
X013910Y006760D01*
X013910Y006960D01*
X013710Y006760D02*
X013710Y007160D01*
X013710Y006760D02*
X013410Y006760D01*
X013410Y007160D01*
X013210Y006960D02*
X013210Y006760D01*
X012910Y006760D01*
X012910Y006960D01*
X012710Y006760D02*
X012710Y007160D01*
X012410Y007160D02*
X012410Y006760D01*
X012710Y006760D01*
X012210Y006760D02*
X012210Y006960D01*
X012210Y006760D02*
X011910Y006760D01*
X011910Y006960D01*
X011710Y006760D02*
X011710Y007160D01*
X011410Y007160D02*
X011410Y006760D01*
X011710Y006760D01*
X011210Y006760D02*
X011210Y006960D01*
X011210Y006760D02*
X010910Y006760D01*
X010910Y006960D01*
X010710Y006760D02*
X010710Y007160D01*
X010410Y007160D02*
X010410Y006760D01*
X010710Y006760D01*
X010210Y006760D02*
X010210Y006960D01*
X010210Y006760D02*
X009910Y006760D01*
X009910Y006960D01*
X009710Y006760D02*
X009710Y007160D01*
X009410Y007160D02*
X009410Y006760D01*
X009710Y006760D01*
X009210Y006760D02*
X008910Y006760D01*
X008910Y006960D01*
X008710Y006760D02*
X008710Y007160D01*
X008410Y007160D02*
X008410Y006760D01*
X008710Y006760D01*
X008210Y006760D02*
X008210Y006960D01*
X008210Y006760D02*
X007910Y006760D01*
X007910Y006960D01*
X007710Y006760D02*
X007710Y007160D01*
X007710Y006760D02*
X007410Y006760D01*
X007410Y007160D01*
X007210Y006960D02*
X007210Y006760D01*
X006910Y006760D01*
X006910Y006960D01*
X006810Y007610D02*
X006710Y007610D01*
X005860Y006760D01*
X005460Y007160D01*
X006310Y008010D01*
X006310Y008110D01*
X005860Y008710D02*
X005460Y008710D01*
X005460Y009010D01*
X005860Y009010D01*
X005660Y009210D02*
X005460Y009210D01*
X005460Y009510D01*
X005660Y009510D01*
X005460Y009710D02*
X005460Y010010D01*
X005860Y010010D01*
X005660Y010210D02*
X005460Y010210D01*
X005460Y010510D01*
X005660Y010510D01*
X005460Y010710D02*
X005460Y011010D01*
X005860Y011010D01*
X005660Y011210D02*
X005460Y011210D01*
X005460Y011510D01*
X005660Y011510D01*
X005460Y011710D02*
X005460Y012010D01*
X005860Y012010D01*
X005660Y012210D02*
X005460Y012210D01*
X005460Y012510D01*
X005660Y012510D01*
X005460Y012710D02*
X005460Y013010D01*
X005860Y013010D01*
X005660Y013210D02*
X005460Y013210D01*
X005460Y013510D01*
X005660Y013510D01*
X005460Y013710D02*
X005460Y014010D01*
X005860Y014010D01*
X005660Y014210D02*
X005460Y014210D01*
X005460Y014510D01*
X005660Y014510D01*
X005460Y014710D02*
X005860Y014710D01*
X005860Y015010D02*
X005460Y015010D01*
X005460Y014710D01*
X005460Y015210D02*
X005660Y015210D01*
X005460Y015210D02*
X005460Y015510D01*
X005660Y015510D01*
X005460Y015710D02*
X005460Y016010D01*
X005860Y016010D01*
X005660Y016210D02*
X005460Y016210D01*
X005460Y016510D01*
X005660Y016510D01*
X005460Y016710D02*
X005460Y017010D01*
X005860Y017010D01*
X005660Y017210D02*
X005460Y017210D01*
X005460Y017510D01*
X005660Y017510D01*
X005460Y017710D02*
X005860Y017710D01*
X005860Y018010D02*
X005460Y018010D01*
X005460Y017710D01*
X005460Y018210D02*
X005660Y018210D01*
X005460Y018210D02*
X005460Y018510D01*
X005660Y018510D01*
X006310Y018610D02*
X006810Y019110D01*
X006910Y019760D02*
X006910Y019960D01*
X007210Y019960D01*
X007210Y019760D01*
X007410Y019560D02*
X007410Y019960D01*
X007710Y019960D01*
X007710Y019560D01*
X007910Y019760D02*
X007910Y019960D01*
X008210Y019960D01*
X008210Y019760D01*
X008410Y019960D02*
X008410Y019560D01*
X008710Y019560D02*
X008710Y019960D01*
X008410Y019960D01*
X008910Y019960D02*
X008910Y019760D01*
X008910Y019960D02*
X009210Y019960D01*
X009210Y019760D01*
X009410Y019960D02*
X009410Y019560D01*
X009710Y019560D02*
X009710Y019960D01*
X009410Y019960D01*
X009910Y019960D02*
X009910Y019760D01*
X009910Y019960D02*
X010210Y019960D01*
X010210Y019760D01*
X010410Y019960D02*
X010410Y019560D01*
X010710Y019560D02*
X010710Y019960D01*
X010410Y019960D01*
X010910Y019960D02*
X010910Y019760D01*
X010910Y019960D02*
X011210Y019960D01*
X011210Y019760D01*
X011410Y019960D02*
X011410Y019560D01*
X011710Y019560D02*
X011710Y019960D01*
X011410Y019960D01*
X011910Y019960D02*
X011910Y019760D01*
X011910Y019960D02*
X012210Y019960D01*
X012210Y019760D01*
X012410Y019960D02*
X012410Y019560D01*
X012710Y019560D02*
X012710Y019960D01*
X012410Y019960D01*
X012910Y019960D02*
X012910Y019760D01*
X012910Y019960D02*
X013210Y019960D01*
X013210Y019760D01*
X013410Y019960D02*
X013410Y019560D01*
X013710Y019560D02*
X013710Y019960D01*
X013410Y019960D01*
X013910Y019960D02*
X013910Y019760D01*
X013910Y019960D02*
X014210Y019960D01*
X014210Y019760D01*
X014410Y019960D02*
X014410Y019560D01*
X014710Y019560D02*
X014710Y019960D01*
X014410Y019960D01*
X014910Y019960D02*
X014910Y019760D01*
X014910Y019960D02*
X015210Y019960D01*
X015210Y019760D01*
X015410Y019960D02*
X015410Y019560D01*
X015710Y019560D02*
X015710Y019960D01*
X015410Y019960D01*
X015910Y019960D02*
X015910Y019760D01*
X015910Y019960D02*
X016210Y019960D01*
X016210Y019760D01*
X016410Y019960D02*
X016410Y019560D01*
X016710Y019560D02*
X016710Y019960D01*
X016410Y019960D01*
X016910Y019960D02*
X016910Y019760D01*
X016910Y019960D02*
X017210Y019960D01*
X017210Y019760D01*
X017310Y019110D02*
X017410Y019110D01*
X018260Y019960D01*
X018660Y019560D01*
X017810Y018710D01*
X017810Y018610D01*
X018460Y018510D02*
X018610Y018510D01*
X018610Y018210D01*
X018460Y018210D01*
X018260Y018010D02*
X018660Y018010D01*
X018660Y017710D01*
X018260Y017710D01*
X018460Y017510D02*
X018660Y017510D01*
X018660Y017210D01*
X018460Y017210D01*
X018660Y017010D02*
X018260Y017010D01*
X018260Y016710D02*
X018660Y016710D01*
X018660Y017010D01*
X018660Y016510D02*
X018460Y016510D01*
X018660Y016510D02*
X018660Y016210D01*
X018460Y016210D01*
X018660Y016010D02*
X018260Y016010D01*
X018260Y015710D02*
X018660Y015710D01*
X018660Y016010D01*
X018660Y015510D02*
X018460Y015510D01*
X018660Y015510D02*
X018660Y015210D01*
X018460Y015210D01*
X018260Y015010D02*
X018660Y015010D01*
X018660Y014710D01*
X018260Y014710D01*
X018460Y014510D02*
X018660Y014510D01*
X018660Y014210D01*
X018460Y014210D01*
X018260Y014010D02*
X018660Y014010D01*
X018660Y013710D01*
X018260Y013710D01*
X018460Y013510D02*
X018660Y013510D01*
X018660Y013210D01*
X018460Y013210D01*
X018260Y013010D02*
X018660Y013010D01*
X018660Y012710D01*
X018260Y012710D01*
X018460Y012510D02*
X018660Y012510D01*
X018660Y012210D01*
X018460Y012210D01*
X018660Y012010D02*
X018260Y012010D01*
X018260Y011710D02*
X018660Y011710D01*
X018660Y012010D01*
X018660Y011510D02*
X018460Y011510D01*
X018660Y011510D02*
X018660Y011210D01*
X018460Y011210D01*
X018660Y011010D02*
X018260Y011010D01*
X018260Y010710D02*
X018660Y010710D01*
X018660Y011010D01*
X018660Y010510D02*
X018460Y010510D01*
X018660Y010510D02*
X018660Y010210D01*
X018460Y010210D01*
X018660Y010010D02*
X018260Y010010D01*
X018260Y009710D02*
X018660Y009710D01*
X018660Y010010D01*
X018660Y009510D02*
X018460Y009510D01*
X018660Y009510D02*
X018660Y009210D01*
X018460Y009210D01*
X018660Y009010D02*
X018260Y009010D01*
X018260Y008710D02*
X018660Y008710D01*
X018660Y009010D01*
X018660Y008510D02*
X018460Y008510D01*
X018660Y008510D02*
X018660Y008210D01*
X018460Y008210D01*
X016710Y007160D02*
X016710Y006760D01*
X015560Y005610D02*
X008560Y005610D01*
X008530Y005608D01*
X008500Y005603D01*
X008471Y005594D01*
X008444Y005581D01*
X008418Y005566D01*
X008394Y005547D01*
X008373Y005526D01*
X008354Y005502D01*
X008339Y005476D01*
X008326Y005449D01*
X008317Y005420D01*
X008312Y005390D01*
X008310Y005360D01*
X008310Y001360D01*
X008312Y001330D01*
X008317Y001300D01*
X008326Y001271D01*
X008339Y001244D01*
X008354Y001218D01*
X008373Y001194D01*
X008394Y001173D01*
X008418Y001154D01*
X008444Y001139D01*
X008471Y001126D01*
X008500Y001117D01*
X008530Y001112D01*
X008560Y001110D01*
X015560Y001110D01*
X015590Y001112D01*
X015620Y001117D01*
X015649Y001126D01*
X015676Y001139D01*
X015702Y001154D01*
X015726Y001173D01*
X015747Y001194D01*
X015766Y001218D01*
X015781Y001244D01*
X015794Y001271D01*
X015803Y001300D01*
X015808Y001330D01*
X015810Y001360D01*
X015810Y005360D01*
X015808Y005390D01*
X015803Y005420D01*
X015794Y005449D01*
X015781Y005476D01*
X015766Y005502D01*
X015747Y005526D01*
X015726Y005547D01*
X015702Y005566D01*
X015676Y005581D01*
X015649Y005594D01*
X015620Y005603D01*
X015590Y005608D01*
X015560Y005610D01*
X013060Y004860D02*
X012430Y004860D01*
X011690Y004860D02*
X011060Y004860D01*
X009210Y006760D02*
X009210Y006960D01*
X007060Y005310D02*
X007060Y001410D01*
X007058Y001393D01*
X007054Y001376D01*
X007047Y001360D01*
X007037Y001346D01*
X007024Y001333D01*
X007010Y001323D01*
X006994Y001316D01*
X006977Y001312D01*
X006960Y001310D01*
X005160Y001310D01*
X005143Y001312D01*
X005126Y001316D01*
X005110Y001323D01*
X005096Y001333D01*
X005083Y001346D01*
X005073Y001360D01*
X005066Y001376D01*
X005062Y001393D01*
X005060Y001410D01*
X005060Y005310D01*
X005062Y005327D01*
X005066Y005344D01*
X005073Y005360D01*
X005083Y005374D01*
X005096Y005387D01*
X005110Y005397D01*
X005126Y005404D01*
X005143Y005408D01*
X005160Y005410D01*
X006960Y005410D01*
X006977Y005408D01*
X006994Y005404D01*
X007010Y005397D01*
X007024Y005387D01*
X007037Y005374D01*
X007047Y005360D01*
X007054Y005344D01*
X007058Y005327D01*
X007060Y005310D01*
X006060Y004410D02*
X006060Y004210D01*
X006060Y003860D02*
X006060Y002310D01*
X003060Y002110D02*
X003060Y001610D01*
X002810Y001360D01*
X001310Y001360D01*
X001060Y001610D01*
X001060Y002110D01*
X001310Y002360D01*
X002810Y002360D01*
X003060Y002110D01*
X002810Y002360D02*
X003060Y002610D01*
X003060Y003110D01*
X002810Y003360D01*
X001310Y003360D01*
X001060Y003610D01*
X001060Y004110D01*
X001310Y004360D01*
X002810Y004360D01*
X003060Y004110D01*
X003060Y003610D01*
X002810Y003360D01*
X002810Y004360D02*
X003060Y004610D01*
X003060Y005110D01*
X002810Y005360D01*
X001310Y005360D01*
X001060Y005610D01*
X001060Y006110D01*
X001310Y006360D01*
X002810Y006360D01*
X003060Y006110D01*
X003060Y005610D01*
X002810Y005360D01*
X002810Y006360D02*
X003060Y006610D01*
X003060Y007110D01*
X002810Y007360D01*
X001310Y007360D01*
X001060Y007610D01*
X001060Y008110D01*
X001310Y008360D01*
X002810Y008360D01*
X003060Y008110D01*
X003060Y007610D01*
X002810Y007360D01*
X002810Y008360D02*
X003060Y008610D01*
X003060Y009110D01*
X002810Y009360D01*
X001310Y009360D01*
X001060Y009610D01*
X001060Y010110D01*
X001310Y010360D01*
X002810Y010360D01*
X003060Y010110D01*
X003060Y009610D01*
X002810Y009360D01*
X002810Y010360D02*
X003060Y010610D01*
X003060Y011110D01*
X002810Y011360D01*
X001310Y011360D01*
X001060Y011610D01*
X001060Y012110D01*
X001310Y012360D01*
X002810Y012360D01*
X003060Y012110D01*
X003060Y011610D01*
X002810Y011360D01*
X002810Y012360D02*
X003060Y012610D01*
X003060Y013110D01*
X002810Y013360D01*
X001310Y013360D01*
X001060Y013610D01*
X001060Y014110D01*
X001310Y014360D01*
X002810Y014360D01*
X003060Y014110D01*
X003060Y013610D01*
X002810Y013360D01*
X002810Y014360D02*
X003060Y014610D01*
X003060Y015110D01*
X002810Y015360D01*
X001310Y015360D01*
X001060Y015110D01*
X001060Y014610D01*
X001310Y014360D01*
X001310Y013360D02*
X001060Y013110D01*
X001060Y012610D01*
X001310Y012360D01*
X001310Y011360D02*
X001060Y011110D01*
X001060Y010610D01*
X001310Y010360D01*
X001310Y009360D02*
X001060Y009110D01*
X001060Y008610D01*
X001310Y008360D01*
X001310Y007360D02*
X001060Y007110D01*
X001060Y006610D01*
X001310Y006360D01*
X001310Y005360D02*
X001060Y005110D01*
X001060Y004610D01*
X001310Y004360D01*
X001310Y003360D02*
X001060Y003110D01*
X001060Y002610D01*
X001310Y002360D01*
X005460Y008210D02*
X005460Y008510D01*
X005660Y008510D01*
X005660Y008210D02*
X005460Y008210D01*
X005460Y009710D02*
X005860Y009710D01*
X005860Y010710D02*
X005460Y010710D01*
X005460Y011710D02*
X005860Y011710D01*
X005860Y012710D02*
X005460Y012710D01*
X005460Y013710D02*
X005860Y013710D01*
X005860Y015710D02*
X005460Y015710D01*
X005460Y016710D02*
X005860Y016710D01*
X003060Y016610D02*
X002810Y016360D01*
X001310Y016360D01*
X001060Y016110D01*
X001060Y015610D01*
X001310Y015360D01*
X001310Y016360D02*
X001060Y016610D01*
X001060Y017110D01*
X001310Y017360D01*
X002810Y017360D01*
X003060Y017110D01*
X003060Y016610D01*
X002810Y016360D02*
X003060Y016110D01*
X003060Y015610D01*
X002810Y015360D01*
X002810Y017360D02*
X003060Y017610D01*
X003060Y018110D01*
X002810Y018360D01*
X001310Y018360D01*
X001060Y018110D01*
X001060Y017610D01*
X001310Y017360D01*
X001310Y018360D02*
X001060Y018610D01*
X001060Y019110D01*
X001310Y019360D01*
X002810Y019360D01*
X003060Y019110D01*
X003060Y018610D01*
X002810Y018360D01*
X002810Y019360D02*
X003060Y019610D01*
X003060Y020110D01*
X002810Y020360D01*
X001310Y020360D01*
X001060Y020110D01*
X001060Y019610D01*
X001310Y019360D01*
X001310Y020360D02*
X001060Y020610D01*
X001060Y021110D01*
X001310Y021360D01*
X002810Y021360D01*
X003060Y021110D01*
X003060Y020610D01*
X002810Y020360D01*
X004760Y021210D02*
X004760Y022710D01*
X005010Y022960D01*
X005510Y022960D01*
X005760Y022710D01*
X005760Y021210D01*
X006010Y020960D01*
X006510Y020960D01*
X006760Y021210D01*
X006760Y022710D01*
X007010Y022960D01*
X007510Y022960D01*
X007760Y022710D01*
X007760Y021210D01*
X008010Y020960D01*
X008510Y020960D01*
X008760Y021210D01*
X009010Y020960D01*
X009510Y020960D01*
X009760Y021210D01*
X009760Y022710D01*
X009510Y022960D01*
X009010Y022960D01*
X008760Y022710D01*
X008760Y021210D01*
X007760Y021210D02*
X007510Y020960D01*
X007010Y020960D01*
X006760Y021210D01*
X006760Y022710D02*
X006510Y022960D01*
X006010Y022960D01*
X005760Y022710D01*
X005760Y021210D02*
X005510Y020960D01*
X005010Y020960D01*
X004760Y021210D01*
X005110Y024360D02*
X005110Y029260D01*
X004760Y029260D01*
X004760Y029860D01*
X005110Y029860D01*
X005110Y030610D01*
X001010Y030610D01*
X001010Y029860D01*
X001360Y029860D01*
X001360Y029260D01*
X001010Y029260D01*
X001010Y024360D01*
X005110Y024360D01*
X006010Y026710D02*
X006010Y027010D01*
X005860Y026860D02*
X006160Y026860D01*
X005710Y026860D02*
X005712Y026933D01*
X005718Y027006D01*
X005728Y027078D01*
X005742Y027150D01*
X005759Y027221D01*
X005781Y027291D01*
X005806Y027360D01*
X005835Y027427D01*
X005867Y027492D01*
X005903Y027556D01*
X005943Y027618D01*
X005985Y027677D01*
X006031Y027734D01*
X006080Y027788D01*
X006132Y027840D01*
X006186Y027889D01*
X006243Y027935D01*
X006302Y027977D01*
X006364Y028017D01*
X006428Y028053D01*
X006493Y028085D01*
X006560Y028114D01*
X006629Y028139D01*
X006699Y028161D01*
X006770Y028178D01*
X006842Y028192D01*
X006914Y028202D01*
X006987Y028208D01*
X007060Y028210D01*
X007133Y028208D01*
X007206Y028202D01*
X007278Y028192D01*
X007350Y028178D01*
X007421Y028161D01*
X007491Y028139D01*
X007560Y028114D01*
X007627Y028085D01*
X007692Y028053D01*
X007756Y028017D01*
X007818Y027977D01*
X007877Y027935D01*
X007934Y027889D01*
X007988Y027840D01*
X008040Y027788D01*
X008089Y027734D01*
X008135Y027677D01*
X008177Y027618D01*
X008217Y027556D01*
X008253Y027492D01*
X008285Y027427D01*
X008314Y027360D01*
X008339Y027291D01*
X008361Y027221D01*
X008378Y027150D01*
X008392Y027078D01*
X008402Y027006D01*
X008408Y026933D01*
X008410Y026860D01*
X008408Y026787D01*
X008402Y026714D01*
X008392Y026642D01*
X008378Y026570D01*
X008361Y026499D01*
X008339Y026429D01*
X008314Y026360D01*
X008285Y026293D01*
X008253Y026228D01*
X008217Y026164D01*
X008177Y026102D01*
X008135Y026043D01*
X008089Y025986D01*
X008040Y025932D01*
X007988Y025880D01*
X007934Y025831D01*
X007877Y025785D01*
X007818Y025743D01*
X007756Y025703D01*
X007692Y025667D01*
X007627Y025635D01*
X007560Y025606D01*
X007491Y025581D01*
X007421Y025559D01*
X007350Y025542D01*
X007278Y025528D01*
X007206Y025518D01*
X007133Y025512D01*
X007060Y025510D01*
X006987Y025512D01*
X006914Y025518D01*
X006842Y025528D01*
X006770Y025542D01*
X006699Y025559D01*
X006629Y025581D01*
X006560Y025606D01*
X006493Y025635D01*
X006428Y025667D01*
X006364Y025703D01*
X006302Y025743D01*
X006243Y025785D01*
X006186Y025831D01*
X006132Y025880D01*
X006080Y025932D01*
X006031Y025986D01*
X005985Y026043D01*
X005943Y026102D01*
X005903Y026164D01*
X005867Y026228D01*
X005835Y026293D01*
X005806Y026360D01*
X005781Y026429D01*
X005759Y026499D01*
X005742Y026570D01*
X005728Y026642D01*
X005718Y026714D01*
X005712Y026787D01*
X005710Y026860D01*
X006248Y028390D02*
X006462Y028604D01*
X006462Y029031D01*
X006310Y029260D02*
X006060Y029510D01*
X006060Y030010D01*
X006310Y030260D01*
X006810Y030260D01*
X007060Y030010D01*
X007310Y030260D01*
X007810Y030260D01*
X008060Y030010D01*
X008060Y029510D01*
X007810Y029260D01*
X007310Y029260D01*
X007060Y029510D01*
X006810Y029260D01*
X006310Y029260D01*
X006035Y029031D02*
X006035Y028604D01*
X006248Y028390D01*
X005817Y028710D02*
X005390Y028710D01*
X005604Y028497D02*
X005604Y028924D01*
X007060Y029510D02*
X007060Y030010D01*
X007397Y029031D02*
X007290Y028924D01*
X007290Y028497D01*
X007397Y028390D01*
X007610Y028390D01*
X007717Y028497D01*
X007717Y028710D01*
X007504Y028710D01*
X007717Y028924D02*
X007610Y029031D01*
X007397Y029031D01*
X007935Y029031D02*
X007935Y028390D01*
X008362Y028390D02*
X008362Y029031D01*
X008579Y029031D02*
X008899Y029031D01*
X009006Y028924D01*
X009006Y028497D01*
X008899Y028390D01*
X008579Y028390D01*
X008579Y029031D01*
X007935Y029031D02*
X008362Y028390D01*
X009810Y030010D02*
X009810Y030710D01*
X009812Y030727D01*
X009816Y030744D01*
X009823Y030760D01*
X009833Y030774D01*
X009846Y030787D01*
X009860Y030797D01*
X009876Y030804D01*
X009893Y030808D01*
X009910Y030810D01*
X010060Y030810D01*
X010110Y030760D01*
X012010Y030760D01*
X012060Y030810D01*
X012210Y030810D01*
X012227Y030808D01*
X012244Y030804D01*
X012260Y030797D01*
X012274Y030787D01*
X012287Y030774D01*
X012297Y030760D01*
X012304Y030744D01*
X012308Y030727D01*
X012310Y030710D01*
X012310Y030010D01*
X012308Y029993D01*
X012304Y029976D01*
X012297Y029960D01*
X012287Y029946D01*
X012274Y029933D01*
X012260Y029923D01*
X012244Y029916D01*
X012227Y029912D01*
X012210Y029910D01*
X012060Y029910D01*
X012010Y029960D01*
X010110Y029960D01*
X010060Y029910D01*
X009910Y029910D01*
X009893Y029912D01*
X009876Y029916D01*
X009860Y029923D01*
X009846Y029933D01*
X009833Y029946D01*
X009823Y029960D01*
X009816Y029976D01*
X009812Y029993D01*
X009810Y030010D01*
X010160Y028260D02*
X010162Y028323D01*
X010168Y028385D01*
X010178Y028447D01*
X010191Y028509D01*
X010209Y028569D01*
X010230Y028628D01*
X010255Y028686D01*
X010284Y028742D01*
X010316Y028796D01*
X010351Y028848D01*
X010389Y028897D01*
X010431Y028945D01*
X010475Y028989D01*
X010523Y029031D01*
X010572Y029069D01*
X010624Y029104D01*
X010678Y029136D01*
X010734Y029165D01*
X010792Y029190D01*
X010851Y029211D01*
X010911Y029229D01*
X010973Y029242D01*
X011035Y029252D01*
X011097Y029258D01*
X011160Y029260D01*
X011223Y029258D01*
X011285Y029252D01*
X011347Y029242D01*
X011409Y029229D01*
X011469Y029211D01*
X011528Y029190D01*
X011586Y029165D01*
X011642Y029136D01*
X011696Y029104D01*
X011748Y029069D01*
X011797Y029031D01*
X011845Y028989D01*
X011889Y028945D01*
X011931Y028897D01*
X011969Y028848D01*
X012004Y028796D01*
X012036Y028742D01*
X012065Y028686D01*
X012090Y028628D01*
X012111Y028569D01*
X012129Y028509D01*
X012142Y028447D01*
X012152Y028385D01*
X012158Y028323D01*
X012160Y028260D01*
X012158Y028197D01*
X012152Y028135D01*
X012142Y028073D01*
X012129Y028011D01*
X012111Y027951D01*
X012090Y027892D01*
X012065Y027834D01*
X012036Y027778D01*
X012004Y027724D01*
X011969Y027672D01*
X011931Y027623D01*
X011889Y027575D01*
X011845Y027531D01*
X011797Y027489D01*
X011748Y027451D01*
X011696Y027416D01*
X011642Y027384D01*
X011586Y027355D01*
X011528Y027330D01*
X011469Y027309D01*
X011409Y027291D01*
X011347Y027278D01*
X011285Y027268D01*
X011223Y027262D01*
X011160Y027260D01*
X011097Y027262D01*
X011035Y027268D01*
X010973Y027278D01*
X010911Y027291D01*
X010851Y027309D01*
X010792Y027330D01*
X010734Y027355D01*
X010678Y027384D01*
X010624Y027416D01*
X010572Y027451D01*
X010523Y027489D01*
X010475Y027531D01*
X010431Y027575D01*
X010389Y027623D01*
X010351Y027672D01*
X010316Y027724D01*
X010284Y027778D01*
X010255Y027834D01*
X010230Y027892D01*
X010209Y027951D01*
X010191Y028011D01*
X010178Y028073D01*
X010168Y028135D01*
X010162Y028197D01*
X010160Y028260D01*
X009960Y025860D02*
X009960Y025560D01*
X009810Y025710D02*
X010110Y025710D01*
X008610Y024660D02*
X008612Y024733D01*
X008618Y024806D01*
X008628Y024878D01*
X008642Y024950D01*
X008659Y025021D01*
X008681Y025091D01*
X008706Y025160D01*
X008735Y025227D01*
X008767Y025292D01*
X008803Y025356D01*
X008843Y025418D01*
X008885Y025477D01*
X008931Y025534D01*
X008980Y025588D01*
X009032Y025640D01*
X009086Y025689D01*
X009143Y025735D01*
X009202Y025777D01*
X009264Y025817D01*
X009328Y025853D01*
X009393Y025885D01*
X009460Y025914D01*
X009529Y025939D01*
X009599Y025961D01*
X009670Y025978D01*
X009742Y025992D01*
X009814Y026002D01*
X009887Y026008D01*
X009960Y026010D01*
X010033Y026008D01*
X010106Y026002D01*
X010178Y025992D01*
X010250Y025978D01*
X010321Y025961D01*
X010391Y025939D01*
X010460Y025914D01*
X010527Y025885D01*
X010592Y025853D01*
X010656Y025817D01*
X010718Y025777D01*
X010777Y025735D01*
X010834Y025689D01*
X010888Y025640D01*
X010940Y025588D01*
X010989Y025534D01*
X011035Y025477D01*
X011077Y025418D01*
X011117Y025356D01*
X011153Y025292D01*
X011185Y025227D01*
X011214Y025160D01*
X011239Y025091D01*
X011261Y025021D01*
X011278Y024950D01*
X011292Y024878D01*
X011302Y024806D01*
X011308Y024733D01*
X011310Y024660D01*
X011308Y024587D01*
X011302Y024514D01*
X011292Y024442D01*
X011278Y024370D01*
X011261Y024299D01*
X011239Y024229D01*
X011214Y024160D01*
X011185Y024093D01*
X011153Y024028D01*
X011117Y023964D01*
X011077Y023902D01*
X011035Y023843D01*
X010989Y023786D01*
X010940Y023732D01*
X010888Y023680D01*
X010834Y023631D01*
X010777Y023585D01*
X010718Y023543D01*
X010656Y023503D01*
X010592Y023467D01*
X010527Y023435D01*
X010460Y023406D01*
X010391Y023381D01*
X010321Y023359D01*
X010250Y023342D01*
X010178Y023328D01*
X010106Y023318D01*
X010033Y023312D01*
X009960Y023310D01*
X009887Y023312D01*
X009814Y023318D01*
X009742Y023328D01*
X009670Y023342D01*
X009599Y023359D01*
X009529Y023381D01*
X009460Y023406D01*
X009393Y023435D01*
X009328Y023467D01*
X009264Y023503D01*
X009202Y023543D01*
X009143Y023585D01*
X009086Y023631D01*
X009032Y023680D01*
X008980Y023732D01*
X008931Y023786D01*
X008885Y023843D01*
X008843Y023902D01*
X008803Y023964D01*
X008767Y024028D01*
X008735Y024093D01*
X008706Y024160D01*
X008681Y024229D01*
X008659Y024299D01*
X008642Y024370D01*
X008628Y024442D01*
X008618Y024514D01*
X008612Y024587D01*
X008610Y024660D01*
X008510Y022960D02*
X008010Y022960D01*
X007760Y022710D01*
X008510Y022960D02*
X008760Y022710D01*
X010010Y022860D02*
X010010Y021060D01*
X010012Y021043D01*
X010016Y021026D01*
X010023Y021010D01*
X010033Y020996D01*
X010046Y020983D01*
X010060Y020973D01*
X010076Y020966D01*
X010093Y020962D01*
X010110Y020960D01*
X014010Y020960D01*
X014027Y020962D01*
X014044Y020966D01*
X014060Y020973D01*
X014074Y020983D01*
X014087Y020996D01*
X014097Y021010D01*
X014104Y021026D01*
X014108Y021043D01*
X014110Y021060D01*
X014110Y022860D01*
X014108Y022877D01*
X014104Y022894D01*
X014097Y022910D01*
X014087Y022924D01*
X014074Y022937D01*
X014060Y022947D01*
X014044Y022954D01*
X014027Y022958D01*
X014010Y022960D01*
X010110Y022960D01*
X010093Y022958D01*
X010076Y022954D01*
X010060Y022947D01*
X010046Y022937D01*
X010033Y022924D01*
X010023Y022910D01*
X010016Y022894D01*
X010012Y022877D01*
X010010Y022860D01*
X011010Y021960D02*
X012560Y021960D01*
X012910Y021960D02*
X013110Y021960D01*
X011710Y024660D02*
X011712Y024733D01*
X011718Y024806D01*
X011728Y024878D01*
X011742Y024950D01*
X011759Y025021D01*
X011781Y025091D01*
X011806Y025160D01*
X011835Y025227D01*
X011867Y025292D01*
X011903Y025356D01*
X011943Y025418D01*
X011985Y025477D01*
X012031Y025534D01*
X012080Y025588D01*
X012132Y025640D01*
X012186Y025689D01*
X012243Y025735D01*
X012302Y025777D01*
X012364Y025817D01*
X012428Y025853D01*
X012493Y025885D01*
X012560Y025914D01*
X012629Y025939D01*
X012699Y025961D01*
X012770Y025978D01*
X012842Y025992D01*
X012914Y026002D01*
X012987Y026008D01*
X013060Y026010D01*
X013133Y026008D01*
X013206Y026002D01*
X013278Y025992D01*
X013350Y025978D01*
X013421Y025961D01*
X013491Y025939D01*
X013560Y025914D01*
X013627Y025885D01*
X013692Y025853D01*
X013756Y025817D01*
X013818Y025777D01*
X013877Y025735D01*
X013934Y025689D01*
X013988Y025640D01*
X014040Y025588D01*
X014089Y025534D01*
X014135Y025477D01*
X014177Y025418D01*
X014217Y025356D01*
X014253Y025292D01*
X014285Y025227D01*
X014314Y025160D01*
X014339Y025091D01*
X014361Y025021D01*
X014378Y024950D01*
X014392Y024878D01*
X014402Y024806D01*
X014408Y024733D01*
X014410Y024660D01*
X014408Y024587D01*
X014402Y024514D01*
X014392Y024442D01*
X014378Y024370D01*
X014361Y024299D01*
X014339Y024229D01*
X014314Y024160D01*
X014285Y024093D01*
X014253Y024028D01*
X014217Y023964D01*
X014177Y023902D01*
X014135Y023843D01*
X014089Y023786D01*
X014040Y023732D01*
X013988Y023680D01*
X013934Y023631D01*
X013877Y023585D01*
X013818Y023543D01*
X013756Y023503D01*
X013692Y023467D01*
X013627Y023435D01*
X013560Y023406D01*
X013491Y023381D01*
X013421Y023359D01*
X013350Y023342D01*
X013278Y023328D01*
X013206Y023318D01*
X013133Y023312D01*
X013060Y023310D01*
X012987Y023312D01*
X012914Y023318D01*
X012842Y023328D01*
X012770Y023342D01*
X012699Y023359D01*
X012629Y023381D01*
X012560Y023406D01*
X012493Y023435D01*
X012428Y023467D01*
X012364Y023503D01*
X012302Y023543D01*
X012243Y023585D01*
X012186Y023631D01*
X012132Y023680D01*
X012080Y023732D01*
X012031Y023786D01*
X011985Y023843D01*
X011943Y023902D01*
X011903Y023964D01*
X011867Y024028D01*
X011835Y024093D01*
X011806Y024160D01*
X011781Y024229D01*
X011759Y024299D01*
X011742Y024370D01*
X011728Y024442D01*
X011718Y024514D01*
X011712Y024587D01*
X011710Y024660D01*
X012910Y025710D02*
X013210Y025710D01*
X013060Y025860D02*
X013060Y025560D01*
X013560Y028260D02*
X013562Y028323D01*
X013568Y028385D01*
X013578Y028447D01*
X013591Y028509D01*
X013609Y028569D01*
X013630Y028628D01*
X013655Y028686D01*
X013684Y028742D01*
X013716Y028796D01*
X013751Y028848D01*
X013789Y028897D01*
X013831Y028945D01*
X013875Y028989D01*
X013923Y029031D01*
X013972Y029069D01*
X014024Y029104D01*
X014078Y029136D01*
X014134Y029165D01*
X014192Y029190D01*
X014251Y029211D01*
X014311Y029229D01*
X014373Y029242D01*
X014435Y029252D01*
X014497Y029258D01*
X014560Y029260D01*
X014623Y029258D01*
X014685Y029252D01*
X014747Y029242D01*
X014809Y029229D01*
X014869Y029211D01*
X014928Y029190D01*
X014986Y029165D01*
X015042Y029136D01*
X015096Y029104D01*
X015148Y029069D01*
X015197Y029031D01*
X015245Y028989D01*
X015289Y028945D01*
X015331Y028897D01*
X015369Y028848D01*
X015404Y028796D01*
X015436Y028742D01*
X015465Y028686D01*
X015490Y028628D01*
X015511Y028569D01*
X015529Y028509D01*
X015542Y028447D01*
X015552Y028385D01*
X015558Y028323D01*
X015560Y028260D01*
X015558Y028197D01*
X015552Y028135D01*
X015542Y028073D01*
X015529Y028011D01*
X015511Y027951D01*
X015490Y027892D01*
X015465Y027834D01*
X015436Y027778D01*
X015404Y027724D01*
X015369Y027672D01*
X015331Y027623D01*
X015289Y027575D01*
X015245Y027531D01*
X015197Y027489D01*
X015148Y027451D01*
X015096Y027416D01*
X015042Y027384D01*
X014986Y027355D01*
X014928Y027330D01*
X014869Y027309D01*
X014809Y027291D01*
X014747Y027278D01*
X014685Y027268D01*
X014623Y027262D01*
X014560Y027260D01*
X014497Y027262D01*
X014435Y027268D01*
X014373Y027278D01*
X014311Y027291D01*
X014251Y027309D01*
X014192Y027330D01*
X014134Y027355D01*
X014078Y027384D01*
X014024Y027416D01*
X013972Y027451D01*
X013923Y027489D01*
X013875Y027531D01*
X013831Y027575D01*
X013789Y027623D01*
X013751Y027672D01*
X013716Y027724D01*
X013684Y027778D01*
X013655Y027834D01*
X013630Y027892D01*
X013609Y027951D01*
X013591Y028011D01*
X013578Y028073D01*
X013568Y028135D01*
X013562Y028197D01*
X013560Y028260D01*
X014810Y030010D02*
X014810Y030710D01*
X014812Y030727D01*
X014816Y030744D01*
X014823Y030760D01*
X014833Y030774D01*
X014846Y030787D01*
X014860Y030797D01*
X014876Y030804D01*
X014893Y030808D01*
X014910Y030810D01*
X015060Y030810D01*
X015110Y030760D01*
X017010Y030760D01*
X017060Y030810D01*
X017210Y030810D01*
X017227Y030808D01*
X017244Y030804D01*
X017260Y030797D01*
X017274Y030787D01*
X017287Y030774D01*
X017297Y030760D01*
X017304Y030744D01*
X017308Y030727D01*
X017310Y030710D01*
X017310Y030010D01*
X017308Y029993D01*
X017304Y029976D01*
X017297Y029960D01*
X017287Y029946D01*
X017274Y029933D01*
X017260Y029923D01*
X017244Y029916D01*
X017227Y029912D01*
X017210Y029910D01*
X017060Y029910D01*
X017010Y029960D01*
X015110Y029960D01*
X015060Y029910D01*
X014910Y029910D01*
X014893Y029912D01*
X014876Y029916D01*
X014860Y029923D01*
X014846Y029933D01*
X014833Y029946D01*
X014823Y029960D01*
X014816Y029976D01*
X014812Y029993D01*
X014810Y030010D01*
X016301Y025260D02*
X016303Y025307D01*
X016309Y025353D01*
X016319Y025399D01*
X016332Y025444D01*
X016349Y025487D01*
X016370Y025529D01*
X016394Y025569D01*
X016422Y025607D01*
X016453Y025643D01*
X016486Y025675D01*
X016522Y025705D01*
X016560Y025732D01*
X016601Y025755D01*
X016643Y025775D01*
X016687Y025792D01*
X016732Y025804D01*
X016778Y025813D01*
X016825Y025818D01*
X016872Y025819D01*
X016918Y025816D01*
X016965Y025809D01*
X017010Y025798D01*
X017055Y025784D01*
X017098Y025766D01*
X017139Y025744D01*
X017179Y025719D01*
X017216Y025691D01*
X017251Y025659D01*
X017283Y025625D01*
X017312Y025589D01*
X017338Y025550D01*
X017361Y025509D01*
X017380Y025466D01*
X017395Y025422D01*
X017407Y025376D01*
X017415Y025330D01*
X017419Y025283D01*
X017419Y025237D01*
X017415Y025190D01*
X017407Y025144D01*
X017395Y025098D01*
X017380Y025054D01*
X017361Y025011D01*
X017338Y024970D01*
X017312Y024931D01*
X017283Y024895D01*
X017251Y024861D01*
X017216Y024829D01*
X017179Y024801D01*
X017140Y024776D01*
X017098Y024754D01*
X017055Y024736D01*
X017010Y024722D01*
X016965Y024711D01*
X016918Y024704D01*
X016872Y024701D01*
X016825Y024702D01*
X016778Y024707D01*
X016732Y024716D01*
X016687Y024728D01*
X016643Y024745D01*
X016601Y024765D01*
X016560Y024788D01*
X016522Y024815D01*
X016486Y024845D01*
X016453Y024877D01*
X016422Y024913D01*
X016394Y024951D01*
X016370Y024991D01*
X016349Y025033D01*
X016332Y025076D01*
X016319Y025121D01*
X016309Y025167D01*
X016303Y025213D01*
X016301Y025260D01*
X015360Y025260D02*
X015362Y025337D01*
X015368Y025414D01*
X015378Y025491D01*
X015392Y025567D01*
X015409Y025642D01*
X015431Y025716D01*
X015456Y025789D01*
X015486Y025861D01*
X015518Y025931D01*
X015555Y025999D01*
X015594Y026065D01*
X015637Y026129D01*
X015684Y026191D01*
X015733Y026250D01*
X015786Y026307D01*
X015841Y026361D01*
X015899Y026412D01*
X015960Y026460D01*
X016023Y026505D01*
X016088Y026546D01*
X016155Y026584D01*
X016224Y026619D01*
X016295Y026649D01*
X016367Y026677D01*
X016441Y026700D01*
X016515Y026720D01*
X016591Y026736D01*
X016667Y026748D01*
X016744Y026756D01*
X016821Y026760D01*
X016899Y026760D01*
X016976Y026756D01*
X017053Y026748D01*
X017129Y026736D01*
X017205Y026720D01*
X017279Y026700D01*
X017353Y026677D01*
X017425Y026649D01*
X017496Y026619D01*
X017565Y026584D01*
X017632Y026546D01*
X017697Y026505D01*
X017760Y026460D01*
X017821Y026412D01*
X017879Y026361D01*
X017934Y026307D01*
X017987Y026250D01*
X018036Y026191D01*
X018083Y026129D01*
X018126Y026065D01*
X018165Y025999D01*
X018202Y025931D01*
X018234Y025861D01*
X018264Y025789D01*
X018289Y025716D01*
X018311Y025642D01*
X018328Y025567D01*
X018342Y025491D01*
X018352Y025414D01*
X018358Y025337D01*
X018360Y025260D01*
X018358Y025183D01*
X018352Y025106D01*
X018342Y025029D01*
X018328Y024953D01*
X018311Y024878D01*
X018289Y024804D01*
X018264Y024731D01*
X018234Y024659D01*
X018202Y024589D01*
X018165Y024521D01*
X018126Y024455D01*
X018083Y024391D01*
X018036Y024329D01*
X017987Y024270D01*
X017934Y024213D01*
X017879Y024159D01*
X017821Y024108D01*
X017760Y024060D01*
X017697Y024015D01*
X017632Y023974D01*
X017565Y023936D01*
X017496Y023901D01*
X017425Y023871D01*
X017353Y023843D01*
X017279Y023820D01*
X017205Y023800D01*
X017129Y023784D01*
X017053Y023772D01*
X016976Y023764D01*
X016899Y023760D01*
X016821Y023760D01*
X016744Y023764D01*
X016667Y023772D01*
X016591Y023784D01*
X016515Y023800D01*
X016441Y023820D01*
X016367Y023843D01*
X016295Y023871D01*
X016224Y023901D01*
X016155Y023936D01*
X016088Y023974D01*
X016023Y024015D01*
X015960Y024060D01*
X015899Y024108D01*
X015841Y024159D01*
X015786Y024213D01*
X015733Y024270D01*
X015684Y024329D01*
X015637Y024391D01*
X015594Y024455D01*
X015555Y024521D01*
X015518Y024589D01*
X015486Y024659D01*
X015456Y024731D01*
X015431Y024804D01*
X015409Y024878D01*
X015392Y024953D01*
X015378Y025029D01*
X015368Y025106D01*
X015362Y025183D01*
X015360Y025260D01*
X015410Y023510D02*
X015560Y023510D01*
X015610Y023460D01*
X017510Y023460D01*
X017560Y023510D01*
X017710Y023510D01*
X017727Y023508D01*
X017744Y023504D01*
X017760Y023497D01*
X017774Y023487D01*
X017787Y023474D01*
X017797Y023460D01*
X017804Y023444D01*
X017808Y023427D01*
X017810Y023410D01*
X017810Y022710D01*
X017808Y022693D01*
X017804Y022676D01*
X017797Y022660D01*
X017787Y022646D01*
X017774Y022633D01*
X017760Y022623D01*
X017744Y022616D01*
X017727Y022612D01*
X017710Y022610D01*
X017560Y022610D01*
X017510Y022660D01*
X015610Y022660D01*
X015560Y022610D01*
X015410Y022610D01*
X015393Y022612D01*
X015376Y022616D01*
X015360Y022623D01*
X015346Y022633D01*
X015333Y022646D01*
X015323Y022660D01*
X015316Y022676D01*
X015312Y022693D01*
X015310Y022710D01*
X015310Y023410D01*
X015312Y023427D01*
X015316Y023444D01*
X015323Y023460D01*
X015333Y023474D01*
X015346Y023487D01*
X015360Y023497D01*
X015376Y023504D01*
X015393Y023508D01*
X015410Y023510D01*
X016210Y022160D02*
X015960Y021910D01*
X015960Y021410D01*
X016210Y021160D01*
X016710Y021160D01*
X016960Y021410D01*
X017210Y021160D01*
X017710Y021160D01*
X017960Y021410D01*
X018210Y021160D01*
X018710Y021160D01*
X018960Y021410D01*
X018960Y021910D01*
X018710Y022160D01*
X018210Y022160D01*
X017960Y021910D01*
X017960Y021410D01*
X017960Y021910D02*
X017710Y022160D01*
X017210Y022160D01*
X016960Y021910D01*
X016960Y021410D01*
X016960Y021910D02*
X016710Y022160D01*
X016210Y022160D01*
X019010Y024360D02*
X019010Y029260D01*
X019360Y029260D01*
X019360Y029860D01*
X019010Y029860D01*
X019010Y030610D01*
X023110Y030610D01*
X023110Y029860D01*
X022760Y029860D01*
X022760Y029260D01*
X023110Y029260D01*
X023110Y024360D01*
X019010Y024360D01*
X021310Y021360D02*
X022810Y021360D01*
X023060Y021110D01*
X023060Y020610D01*
X022810Y020360D01*
X021310Y020360D01*
X021060Y020110D01*
X021060Y019610D01*
X021310Y019360D01*
X022810Y019360D01*
X023060Y019110D01*
X023060Y018610D01*
X022810Y018360D01*
X021310Y018360D01*
X021060Y018110D01*
X021060Y017610D01*
X021310Y017360D01*
X022810Y017360D01*
X023060Y017110D01*
X023060Y016610D01*
X022810Y016360D01*
X021310Y016360D01*
X021060Y016110D01*
X021060Y015610D01*
X021310Y015360D01*
X021310Y016360D02*
X021060Y016610D01*
X021060Y017110D01*
X021310Y017360D01*
X021310Y018360D02*
X021060Y018610D01*
X021060Y019110D01*
X021310Y019360D01*
X021310Y020360D02*
X021060Y020610D01*
X021060Y021110D01*
X021310Y021360D01*
X022810Y020360D02*
X023060Y020110D01*
X023060Y019610D01*
X022810Y019360D01*
X022810Y018360D02*
X023060Y018110D01*
X023060Y017610D01*
X022810Y017360D01*
X022810Y016360D02*
X023060Y016110D01*
X023060Y015610D01*
X022810Y015360D01*
X015060Y015610D02*
X014310Y016360D01*
X015060Y016360D01*
X015060Y015610D01*
X012560Y014860D02*
X012562Y014923D01*
X012568Y014985D01*
X012578Y015047D01*
X012591Y015109D01*
X012609Y015169D01*
X012630Y015228D01*
X012655Y015286D01*
X012684Y015342D01*
X012716Y015396D01*
X012751Y015448D01*
X012789Y015497D01*
X012831Y015545D01*
X012875Y015589D01*
X012923Y015631D01*
X012972Y015669D01*
X013024Y015704D01*
X013078Y015736D01*
X013134Y015765D01*
X013192Y015790D01*
X013251Y015811D01*
X013311Y015829D01*
X013373Y015842D01*
X013435Y015852D01*
X013497Y015858D01*
X013560Y015860D01*
X013623Y015858D01*
X013685Y015852D01*
X013747Y015842D01*
X013809Y015829D01*
X013869Y015811D01*
X013928Y015790D01*
X013986Y015765D01*
X014042Y015736D01*
X014096Y015704D01*
X014148Y015669D01*
X014197Y015631D01*
X014245Y015589D01*
X014289Y015545D01*
X014331Y015497D01*
X014369Y015448D01*
X014404Y015396D01*
X014436Y015342D01*
X014465Y015286D01*
X014490Y015228D01*
X014511Y015169D01*
X014529Y015109D01*
X014542Y015047D01*
X014552Y014985D01*
X014558Y014923D01*
X014560Y014860D01*
X014558Y014797D01*
X014552Y014735D01*
X014542Y014673D01*
X014529Y014611D01*
X014511Y014551D01*
X014490Y014492D01*
X014465Y014434D01*
X014436Y014378D01*
X014404Y014324D01*
X014369Y014272D01*
X014331Y014223D01*
X014289Y014175D01*
X014245Y014131D01*
X014197Y014089D01*
X014148Y014051D01*
X014096Y014016D01*
X014042Y013984D01*
X013986Y013955D01*
X013928Y013930D01*
X013869Y013909D01*
X013809Y013891D01*
X013747Y013878D01*
X013685Y013868D01*
X013623Y013862D01*
X013560Y013860D01*
X013497Y013862D01*
X013435Y013868D01*
X013373Y013878D01*
X013311Y013891D01*
X013251Y013909D01*
X013192Y013930D01*
X013134Y013955D01*
X013078Y013984D01*
X013024Y014016D01*
X012972Y014051D01*
X012923Y014089D01*
X012875Y014131D01*
X012831Y014175D01*
X012789Y014223D01*
X012751Y014272D01*
X012716Y014324D01*
X012684Y014378D01*
X012655Y014434D01*
X012630Y014492D01*
X012609Y014551D01*
X012591Y014611D01*
X012578Y014673D01*
X012568Y014735D01*
X012562Y014797D01*
X012560Y014860D01*
X012560Y015860D02*
X011560Y015860D01*
X012060Y016360D01*
X012560Y015860D01*
X009560Y014860D02*
X009562Y014923D01*
X009568Y014985D01*
X009578Y015047D01*
X009591Y015109D01*
X009609Y015169D01*
X009630Y015228D01*
X009655Y015286D01*
X009684Y015342D01*
X009716Y015396D01*
X009751Y015448D01*
X009789Y015497D01*
X009831Y015545D01*
X009875Y015589D01*
X009923Y015631D01*
X009972Y015669D01*
X010024Y015704D01*
X010078Y015736D01*
X010134Y015765D01*
X010192Y015790D01*
X010251Y015811D01*
X010311Y015829D01*
X010373Y015842D01*
X010435Y015852D01*
X010497Y015858D01*
X010560Y015860D01*
X010623Y015858D01*
X010685Y015852D01*
X010747Y015842D01*
X010809Y015829D01*
X010869Y015811D01*
X010928Y015790D01*
X010986Y015765D01*
X011042Y015736D01*
X011096Y015704D01*
X011148Y015669D01*
X011197Y015631D01*
X011245Y015589D01*
X011289Y015545D01*
X011331Y015497D01*
X011369Y015448D01*
X011404Y015396D01*
X011436Y015342D01*
X011465Y015286D01*
X011490Y015228D01*
X011511Y015169D01*
X011529Y015109D01*
X011542Y015047D01*
X011552Y014985D01*
X011558Y014923D01*
X011560Y014860D01*
X011558Y014797D01*
X011552Y014735D01*
X011542Y014673D01*
X011529Y014611D01*
X011511Y014551D01*
X011490Y014492D01*
X011465Y014434D01*
X011436Y014378D01*
X011404Y014324D01*
X011369Y014272D01*
X011331Y014223D01*
X011289Y014175D01*
X011245Y014131D01*
X011197Y014089D01*
X011148Y014051D01*
X011096Y014016D01*
X011042Y013984D01*
X010986Y013955D01*
X010928Y013930D01*
X010869Y013909D01*
X010809Y013891D01*
X010747Y013878D01*
X010685Y013868D01*
X010623Y013862D01*
X010560Y013860D01*
X010497Y013862D01*
X010435Y013868D01*
X010373Y013878D01*
X010311Y013891D01*
X010251Y013909D01*
X010192Y013930D01*
X010134Y013955D01*
X010078Y013984D01*
X010024Y014016D01*
X009972Y014051D01*
X009923Y014089D01*
X009875Y014131D01*
X009831Y014175D01*
X009789Y014223D01*
X009751Y014272D01*
X009716Y014324D01*
X009684Y014378D01*
X009655Y014434D01*
X009630Y014492D01*
X009609Y014551D01*
X009591Y014611D01*
X009578Y014673D01*
X009568Y014735D01*
X009562Y014797D01*
X009560Y014860D01*
X009060Y015610D02*
X009810Y016360D01*
X009060Y016360D01*
X009060Y015610D01*
X009560Y011860D02*
X009562Y011923D01*
X009568Y011985D01*
X009578Y012047D01*
X009591Y012109D01*
X009609Y012169D01*
X009630Y012228D01*
X009655Y012286D01*
X009684Y012342D01*
X009716Y012396D01*
X009751Y012448D01*
X009789Y012497D01*
X009831Y012545D01*
X009875Y012589D01*
X009923Y012631D01*
X009972Y012669D01*
X010024Y012704D01*
X010078Y012736D01*
X010134Y012765D01*
X010192Y012790D01*
X010251Y012811D01*
X010311Y012829D01*
X010373Y012842D01*
X010435Y012852D01*
X010497Y012858D01*
X010560Y012860D01*
X010623Y012858D01*
X010685Y012852D01*
X010747Y012842D01*
X010809Y012829D01*
X010869Y012811D01*
X010928Y012790D01*
X010986Y012765D01*
X011042Y012736D01*
X011096Y012704D01*
X011148Y012669D01*
X011197Y012631D01*
X011245Y012589D01*
X011289Y012545D01*
X011331Y012497D01*
X011369Y012448D01*
X011404Y012396D01*
X011436Y012342D01*
X011465Y012286D01*
X011490Y012228D01*
X011511Y012169D01*
X011529Y012109D01*
X011542Y012047D01*
X011552Y011985D01*
X011558Y011923D01*
X011560Y011860D01*
X011558Y011797D01*
X011552Y011735D01*
X011542Y011673D01*
X011529Y011611D01*
X011511Y011551D01*
X011490Y011492D01*
X011465Y011434D01*
X011436Y011378D01*
X011404Y011324D01*
X011369Y011272D01*
X011331Y011223D01*
X011289Y011175D01*
X011245Y011131D01*
X011197Y011089D01*
X011148Y011051D01*
X011096Y011016D01*
X011042Y010984D01*
X010986Y010955D01*
X010928Y010930D01*
X010869Y010909D01*
X010809Y010891D01*
X010747Y010878D01*
X010685Y010868D01*
X010623Y010862D01*
X010560Y010860D01*
X010497Y010862D01*
X010435Y010868D01*
X010373Y010878D01*
X010311Y010891D01*
X010251Y010909D01*
X010192Y010930D01*
X010134Y010955D01*
X010078Y010984D01*
X010024Y011016D01*
X009972Y011051D01*
X009923Y011089D01*
X009875Y011131D01*
X009831Y011175D01*
X009789Y011223D01*
X009751Y011272D01*
X009716Y011324D01*
X009684Y011378D01*
X009655Y011434D01*
X009630Y011492D01*
X009609Y011551D01*
X009591Y011611D01*
X009578Y011673D01*
X009568Y011735D01*
X009562Y011797D01*
X009560Y011860D01*
X009060Y011110D02*
X009810Y010360D01*
X009060Y010360D01*
X009060Y011110D01*
X012560Y011860D02*
X012562Y011923D01*
X012568Y011985D01*
X012578Y012047D01*
X012591Y012109D01*
X012609Y012169D01*
X012630Y012228D01*
X012655Y012286D01*
X012684Y012342D01*
X012716Y012396D01*
X012751Y012448D01*
X012789Y012497D01*
X012831Y012545D01*
X012875Y012589D01*
X012923Y012631D01*
X012972Y012669D01*
X013024Y012704D01*
X013078Y012736D01*
X013134Y012765D01*
X013192Y012790D01*
X013251Y012811D01*
X013311Y012829D01*
X013373Y012842D01*
X013435Y012852D01*
X013497Y012858D01*
X013560Y012860D01*
X013623Y012858D01*
X013685Y012852D01*
X013747Y012842D01*
X013809Y012829D01*
X013869Y012811D01*
X013928Y012790D01*
X013986Y012765D01*
X014042Y012736D01*
X014096Y012704D01*
X014148Y012669D01*
X014197Y012631D01*
X014245Y012589D01*
X014289Y012545D01*
X014331Y012497D01*
X014369Y012448D01*
X014404Y012396D01*
X014436Y012342D01*
X014465Y012286D01*
X014490Y012228D01*
X014511Y012169D01*
X014529Y012109D01*
X014542Y012047D01*
X014552Y011985D01*
X014558Y011923D01*
X014560Y011860D01*
X014558Y011797D01*
X014552Y011735D01*
X014542Y011673D01*
X014529Y011611D01*
X014511Y011551D01*
X014490Y011492D01*
X014465Y011434D01*
X014436Y011378D01*
X014404Y011324D01*
X014369Y011272D01*
X014331Y011223D01*
X014289Y011175D01*
X014245Y011131D01*
X014197Y011089D01*
X014148Y011051D01*
X014096Y011016D01*
X014042Y010984D01*
X013986Y010955D01*
X013928Y010930D01*
X013869Y010909D01*
X013809Y010891D01*
X013747Y010878D01*
X013685Y010868D01*
X013623Y010862D01*
X013560Y010860D01*
X013497Y010862D01*
X013435Y010868D01*
X013373Y010878D01*
X013311Y010891D01*
X013251Y010909D01*
X013192Y010930D01*
X013134Y010955D01*
X013078Y010984D01*
X013024Y011016D01*
X012972Y011051D01*
X012923Y011089D01*
X012875Y011131D01*
X012831Y011175D01*
X012789Y011223D01*
X012751Y011272D01*
X012716Y011324D01*
X012684Y011378D01*
X012655Y011434D01*
X012630Y011492D01*
X012609Y011551D01*
X012591Y011611D01*
X012578Y011673D01*
X012568Y011735D01*
X012562Y011797D01*
X012560Y011860D01*
X014310Y010360D02*
X015060Y011110D01*
X015060Y010360D01*
X014310Y010360D01*
X020350Y029260D02*
X020352Y029313D01*
X020358Y029366D01*
X020368Y029418D01*
X020382Y029469D01*
X020399Y029519D01*
X020420Y029568D01*
X020445Y029615D01*
X020473Y029660D01*
X020505Y029703D01*
X020540Y029743D01*
X020577Y029780D01*
X020617Y029815D01*
X020660Y029847D01*
X020705Y029875D01*
X020752Y029900D01*
X020801Y029921D01*
X020851Y029938D01*
X020902Y029952D01*
X020954Y029962D01*
X021007Y029968D01*
X021060Y029970D01*
X021113Y029968D01*
X021166Y029962D01*
X021218Y029952D01*
X021269Y029938D01*
X021319Y029921D01*
X021368Y029900D01*
X021415Y029875D01*
X021460Y029847D01*
X021503Y029815D01*
X021543Y029780D01*
X021580Y029743D01*
X021615Y029703D01*
X021647Y029660D01*
X021675Y029615D01*
X021700Y029568D01*
X021721Y029519D01*
X021738Y029469D01*
X021752Y029418D01*
X021762Y029366D01*
X021768Y029313D01*
X021770Y029260D01*
X021768Y029207D01*
X021762Y029154D01*
X021752Y029102D01*
X021738Y029051D01*
X021721Y029001D01*
X021700Y028952D01*
X021675Y028905D01*
X021647Y028860D01*
X021615Y028817D01*
X021580Y028777D01*
X021543Y028740D01*
X021503Y028705D01*
X021460Y028673D01*
X021415Y028645D01*
X021368Y028620D01*
X021319Y028599D01*
X021269Y028582D01*
X021218Y028568D01*
X021166Y028558D01*
X021113Y028552D01*
X021060Y028550D01*
X021007Y028552D01*
X020954Y028558D01*
X020902Y028568D01*
X020851Y028582D01*
X020801Y028599D01*
X020752Y028620D01*
X020705Y028645D01*
X020660Y028673D01*
X020617Y028705D01*
X020577Y028740D01*
X020540Y028777D01*
X020505Y028817D01*
X020473Y028860D01*
X020445Y028905D01*
X020420Y028952D01*
X020399Y029001D01*
X020382Y029051D01*
X020368Y029102D01*
X020358Y029154D01*
X020352Y029207D01*
X020350Y029260D01*
X002350Y029260D02*
X002352Y029313D01*
X002358Y029366D01*
X002368Y029418D01*
X002382Y029469D01*
X002399Y029519D01*
X002420Y029568D01*
X002445Y029615D01*
X002473Y029660D01*
X002505Y029703D01*
X002540Y029743D01*
X002577Y029780D01*
X002617Y029815D01*
X002660Y029847D01*
X002705Y029875D01*
X002752Y029900D01*
X002801Y029921D01*
X002851Y029938D01*
X002902Y029952D01*
X002954Y029962D01*
X003007Y029968D01*
X003060Y029970D01*
X003113Y029968D01*
X003166Y029962D01*
X003218Y029952D01*
X003269Y029938D01*
X003319Y029921D01*
X003368Y029900D01*
X003415Y029875D01*
X003460Y029847D01*
X003503Y029815D01*
X003543Y029780D01*
X003580Y029743D01*
X003615Y029703D01*
X003647Y029660D01*
X003675Y029615D01*
X003700Y029568D01*
X003721Y029519D01*
X003738Y029469D01*
X003752Y029418D01*
X003762Y029366D01*
X003768Y029313D01*
X003770Y029260D01*
X003768Y029207D01*
X003762Y029154D01*
X003752Y029102D01*
X003738Y029051D01*
X003721Y029001D01*
X003700Y028952D01*
X003675Y028905D01*
X003647Y028860D01*
X003615Y028817D01*
X003580Y028777D01*
X003543Y028740D01*
X003503Y028705D01*
X003460Y028673D01*
X003415Y028645D01*
X003368Y028620D01*
X003319Y028599D01*
X003269Y028582D01*
X003218Y028568D01*
X003166Y028558D01*
X003113Y028552D01*
X003060Y028550D01*
X003007Y028552D01*
X002954Y028558D01*
X002902Y028568D01*
X002851Y028582D01*
X002801Y028599D01*
X002752Y028620D01*
X002705Y028645D01*
X002660Y028673D01*
X002617Y028705D01*
X002577Y028740D01*
X002540Y028777D01*
X002505Y028817D01*
X002473Y028860D01*
X002445Y028905D01*
X002420Y028952D01*
X002399Y029001D01*
X002382Y029051D01*
X002368Y029102D01*
X002358Y029154D01*
X002352Y029207D01*
X002350Y029260D01*
D12*
X004691Y020845D02*
X004885Y020845D01*
X004788Y020845D02*
X004788Y020555D01*
X004986Y020603D02*
X005034Y020555D01*
X005131Y020555D01*
X005179Y020603D01*
X005280Y020555D02*
X005280Y020845D01*
X005179Y020797D02*
X005131Y020845D01*
X005034Y020845D01*
X004986Y020797D01*
X004986Y020603D01*
X005280Y020652D02*
X005474Y020845D01*
X005329Y020700D02*
X005474Y020555D01*
X005888Y020555D02*
X005888Y020845D01*
X005791Y020845D02*
X005985Y020845D01*
X006086Y020845D02*
X006231Y020845D01*
X006279Y020797D01*
X006279Y020603D01*
X006231Y020555D01*
X006086Y020555D01*
X006086Y020845D01*
X006380Y020797D02*
X006380Y020603D01*
X006429Y020555D01*
X006525Y020555D01*
X006574Y020603D01*
X006574Y020797D01*
X006525Y020845D01*
X006429Y020845D01*
X006380Y020797D01*
X006791Y020845D02*
X006985Y020845D01*
X006888Y020845D02*
X006888Y020555D01*
X007086Y020555D02*
X007086Y020845D01*
X007182Y020748D01*
X007279Y020845D01*
X007279Y020555D01*
X007380Y020603D02*
X007429Y020555D01*
X007525Y020555D01*
X007574Y020603D01*
X007574Y020652D01*
X007525Y020700D01*
X007429Y020700D01*
X007380Y020748D01*
X007380Y020797D01*
X007429Y020845D01*
X007525Y020845D01*
X007574Y020797D01*
X008889Y020845D02*
X009083Y020845D01*
X008986Y020845D02*
X008986Y020555D01*
X009184Y020555D02*
X009329Y020555D01*
X009377Y020603D01*
X009377Y020797D01*
X009329Y020845D01*
X009184Y020845D01*
X009184Y020555D01*
X009479Y020555D02*
X009575Y020555D01*
X009527Y020555D02*
X009527Y020845D01*
X009479Y020845D02*
X009575Y020845D01*
X004545Y019820D02*
X004545Y019723D01*
X004497Y019675D01*
X004400Y019675D02*
X004352Y019772D01*
X004352Y019820D01*
X004400Y019868D01*
X004497Y019868D01*
X004545Y019820D01*
X004400Y019675D02*
X004255Y019675D01*
X004255Y019868D01*
X003845Y019820D02*
X003555Y019820D01*
X003700Y019675D01*
X003700Y019868D01*
X003748Y018868D02*
X003700Y018820D01*
X003700Y018675D01*
X003797Y018675D01*
X003845Y018723D01*
X003845Y018820D01*
X003797Y018868D01*
X003748Y018868D01*
X003603Y018772D02*
X003700Y018675D01*
X003603Y018772D02*
X003555Y018868D01*
X004255Y018820D02*
X004303Y018868D01*
X004352Y018868D01*
X004400Y018820D01*
X004400Y018723D01*
X004352Y018675D01*
X004303Y018675D01*
X004255Y018723D01*
X004255Y018820D01*
X004400Y018820D02*
X004448Y018868D01*
X004497Y018868D01*
X004545Y018820D01*
X004545Y018723D01*
X004497Y018675D01*
X004448Y018675D01*
X004400Y018723D01*
X004303Y018163D02*
X004497Y018163D01*
X004545Y018115D01*
X004545Y018018D01*
X004497Y017970D01*
X004303Y018163D01*
X004255Y018115D01*
X004255Y018018D01*
X004303Y017970D01*
X004497Y017970D01*
X004545Y017868D02*
X004545Y017675D01*
X004545Y017772D02*
X004255Y017772D01*
X004352Y017675D01*
X003845Y017723D02*
X003845Y017820D01*
X003797Y017868D01*
X003603Y017868D01*
X003555Y017820D01*
X003555Y017723D01*
X003603Y017675D01*
X003652Y017675D01*
X003700Y017723D01*
X003700Y017868D01*
X003845Y017723D02*
X003797Y017675D01*
X003845Y017063D02*
X003845Y016870D01*
X003845Y016966D02*
X003555Y016966D01*
X003652Y016870D01*
X003845Y016768D02*
X003845Y016575D01*
X003845Y016672D02*
X003555Y016672D01*
X003652Y016575D01*
X003700Y016063D02*
X003797Y016063D01*
X003845Y016015D01*
X003845Y015918D01*
X003797Y015870D01*
X003700Y015870D02*
X003652Y015966D01*
X003652Y016015D01*
X003700Y016063D01*
X003555Y016063D02*
X003555Y015870D01*
X003700Y015870D01*
X003845Y015768D02*
X003845Y015575D01*
X003845Y015672D02*
X003555Y015672D01*
X003652Y015575D01*
X003603Y015163D02*
X003555Y015163D01*
X003555Y014970D01*
X003555Y014772D02*
X003845Y014772D01*
X003845Y014868D02*
X003845Y014675D01*
X003652Y014675D02*
X003555Y014772D01*
X003797Y014970D02*
X003845Y014970D01*
X003797Y014970D02*
X003603Y015163D01*
X004255Y015115D02*
X004303Y015163D01*
X004352Y015163D01*
X004400Y015115D01*
X004400Y015018D01*
X004352Y014970D01*
X004303Y014970D01*
X004255Y015018D01*
X004255Y015115D01*
X004400Y015115D02*
X004448Y015163D01*
X004497Y015163D01*
X004545Y015115D01*
X004545Y015018D01*
X004497Y014970D01*
X004448Y014970D01*
X004400Y015018D01*
X004545Y014868D02*
X004545Y014675D01*
X004545Y014772D02*
X004255Y014772D01*
X004352Y014675D01*
X004545Y014163D02*
X004545Y013970D01*
X004545Y014066D02*
X004255Y014066D01*
X004352Y013970D01*
X004352Y013868D02*
X004303Y013868D01*
X004255Y013820D01*
X004255Y013723D01*
X004303Y013675D01*
X004352Y013868D02*
X004545Y013675D01*
X004545Y013868D01*
X003845Y013868D02*
X003845Y013675D01*
X003652Y013868D01*
X003603Y013868D01*
X003555Y013820D01*
X003555Y013723D01*
X003603Y013675D01*
X003603Y013970D02*
X003555Y014018D01*
X003555Y014115D01*
X003603Y014163D01*
X003797Y013970D01*
X003845Y014018D01*
X003845Y014115D01*
X003797Y014163D01*
X003603Y014163D01*
X003603Y013970D02*
X003797Y013970D01*
X003845Y013163D02*
X003845Y012970D01*
X003652Y013163D01*
X003603Y013163D01*
X003555Y013115D01*
X003555Y013018D01*
X003603Y012970D01*
X003603Y012868D02*
X003555Y012820D01*
X003555Y012723D01*
X003603Y012675D01*
X003603Y012868D02*
X003652Y012868D01*
X003845Y012675D01*
X003845Y012868D01*
X004255Y012820D02*
X004255Y012723D01*
X004303Y012675D01*
X004255Y012820D02*
X004303Y012868D01*
X004352Y012868D01*
X004545Y012675D01*
X004545Y012868D01*
X004400Y012970D02*
X004255Y013115D01*
X004545Y013115D01*
X004400Y013163D02*
X004400Y012970D01*
X004303Y012163D02*
X004497Y011970D01*
X004545Y011970D01*
X004545Y011868D02*
X004545Y011675D01*
X004352Y011868D01*
X004303Y011868D01*
X004255Y011820D01*
X004255Y011723D01*
X004303Y011675D01*
X004255Y011970D02*
X004255Y012163D01*
X004303Y012163D01*
X003845Y012115D02*
X003845Y012018D01*
X003797Y011970D01*
X003700Y011970D02*
X003652Y012066D01*
X003652Y012115D01*
X003700Y012163D01*
X003797Y012163D01*
X003845Y012115D01*
X003700Y011970D02*
X003555Y011970D01*
X003555Y012163D01*
X003603Y011868D02*
X003555Y011820D01*
X003555Y011723D01*
X003603Y011675D01*
X003603Y011868D02*
X003652Y011868D01*
X003845Y011675D01*
X003845Y011868D01*
X003797Y011163D02*
X003845Y011115D01*
X003845Y011018D01*
X003797Y010970D01*
X003748Y010970D01*
X003700Y011018D01*
X003700Y011115D01*
X003748Y011163D01*
X003797Y011163D01*
X003700Y011115D02*
X003652Y011163D01*
X003603Y011163D01*
X003555Y011115D01*
X003555Y011018D01*
X003603Y010970D01*
X003652Y010970D01*
X003700Y011018D01*
X003652Y010868D02*
X003603Y010868D01*
X003555Y010820D01*
X003555Y010723D01*
X003603Y010675D01*
X003652Y010868D02*
X003845Y010675D01*
X003845Y010868D01*
X004255Y010820D02*
X004255Y010723D01*
X004303Y010675D01*
X004255Y010820D02*
X004303Y010868D01*
X004352Y010868D01*
X004545Y010675D01*
X004545Y010868D01*
X004497Y010970D02*
X004545Y011018D01*
X004545Y011115D01*
X004497Y011163D01*
X004303Y011163D01*
X004255Y011115D01*
X004255Y011018D01*
X004303Y010970D01*
X004352Y010970D01*
X004400Y011018D01*
X004400Y011163D01*
X004545Y010063D02*
X004545Y009870D01*
X004545Y009966D02*
X004255Y009966D01*
X004352Y009870D01*
X004352Y009768D02*
X004303Y009768D01*
X004255Y009720D01*
X004255Y009623D01*
X004303Y009575D01*
X004400Y009672D02*
X004400Y009720D01*
X004448Y009768D01*
X004497Y009768D01*
X004545Y009720D01*
X004545Y009623D01*
X004497Y009575D01*
X004400Y009720D02*
X004352Y009768D01*
X003845Y009720D02*
X003845Y009623D01*
X003797Y009575D01*
X003700Y009672D02*
X003700Y009720D01*
X003748Y009768D01*
X003797Y009768D01*
X003845Y009720D01*
X003700Y009720D02*
X003652Y009768D01*
X003603Y009768D01*
X003555Y009720D01*
X003555Y009623D01*
X003603Y009575D01*
X003603Y009870D02*
X003555Y009918D01*
X003555Y010015D01*
X003603Y010063D01*
X003797Y009870D01*
X003845Y009918D01*
X003845Y010015D01*
X003797Y010063D01*
X003603Y010063D01*
X003603Y009870D02*
X003797Y009870D01*
X003797Y009163D02*
X003845Y009115D01*
X003845Y009018D01*
X003797Y008970D01*
X003797Y008868D02*
X003845Y008820D01*
X003845Y008723D01*
X003797Y008675D01*
X003700Y008772D02*
X003700Y008820D01*
X003748Y008868D01*
X003797Y008868D01*
X003700Y008820D02*
X003652Y008868D01*
X003603Y008868D01*
X003555Y008820D01*
X003555Y008723D01*
X003603Y008675D01*
X003603Y008970D02*
X003555Y009018D01*
X003555Y009115D01*
X003603Y009163D01*
X003652Y009163D01*
X003700Y009115D01*
X003748Y009163D01*
X003797Y009163D01*
X003700Y009115D02*
X003700Y009066D01*
X004255Y009115D02*
X004400Y008970D01*
X004400Y009163D01*
X004545Y009115D02*
X004255Y009115D01*
X004303Y008868D02*
X004352Y008868D01*
X004400Y008820D01*
X004448Y008868D01*
X004497Y008868D01*
X004545Y008820D01*
X004545Y008723D01*
X004497Y008675D01*
X004400Y008772D02*
X004400Y008820D01*
X004303Y008868D02*
X004255Y008820D01*
X004255Y008723D01*
X004303Y008675D01*
X004255Y008063D02*
X004303Y007966D01*
X004400Y007870D01*
X004400Y008015D01*
X004448Y008063D01*
X004497Y008063D01*
X004545Y008015D01*
X004545Y007918D01*
X004497Y007870D01*
X004400Y007870D01*
X004448Y007768D02*
X004497Y007768D01*
X004545Y007720D01*
X004545Y007623D01*
X004497Y007575D01*
X004400Y007672D02*
X004400Y007720D01*
X004448Y007768D01*
X004400Y007720D02*
X004352Y007768D01*
X004303Y007768D01*
X004255Y007720D01*
X004255Y007623D01*
X004303Y007575D01*
X003845Y007623D02*
X003797Y007575D01*
X003845Y007623D02*
X003845Y007720D01*
X003797Y007768D01*
X003748Y007768D01*
X003700Y007720D01*
X003700Y007672D01*
X003700Y007720D02*
X003652Y007768D01*
X003603Y007768D01*
X003555Y007720D01*
X003555Y007623D01*
X003603Y007575D01*
X003555Y007870D02*
X003700Y007870D01*
X003652Y007966D01*
X003652Y008015D01*
X003700Y008063D01*
X003797Y008063D01*
X003845Y008015D01*
X003845Y007918D01*
X003797Y007870D01*
X003555Y007870D02*
X003555Y008063D01*
X003555Y007063D02*
X003603Y007063D01*
X003797Y006870D01*
X003845Y006870D01*
X003797Y006768D02*
X003845Y006720D01*
X003845Y006623D01*
X003797Y006575D01*
X003700Y006672D02*
X003700Y006720D01*
X003748Y006768D01*
X003797Y006768D01*
X003700Y006720D02*
X003652Y006768D01*
X003603Y006768D01*
X003555Y006720D01*
X003555Y006623D01*
X003603Y006575D01*
X003555Y006870D02*
X003555Y007063D01*
X004255Y007015D02*
X004255Y006918D01*
X004303Y006870D01*
X004352Y006870D01*
X004400Y006918D01*
X004400Y007063D01*
X004497Y007063D02*
X004303Y007063D01*
X004255Y007015D01*
X004497Y007063D02*
X004545Y007015D01*
X004545Y006918D01*
X004497Y006870D01*
X004497Y006768D02*
X004545Y006720D01*
X004545Y006623D01*
X004497Y006575D01*
X004400Y006672D02*
X004400Y006720D01*
X004448Y006768D01*
X004497Y006768D01*
X004400Y006720D02*
X004352Y006768D01*
X004303Y006768D01*
X004255Y006720D01*
X004255Y006623D01*
X004303Y006575D01*
X004545Y006063D02*
X004545Y005870D01*
X004545Y005966D02*
X004255Y005966D01*
X004352Y005870D01*
X004400Y005768D02*
X004400Y005575D01*
X004255Y005720D01*
X004545Y005720D01*
X004497Y005263D02*
X004545Y005215D01*
X004545Y005118D01*
X004497Y005070D01*
X004400Y005070D02*
X004352Y005166D01*
X004352Y005215D01*
X004400Y005263D01*
X004497Y005263D01*
X004400Y005070D02*
X004255Y005070D01*
X004255Y005263D01*
X004400Y004968D02*
X004400Y004775D01*
X004255Y004920D01*
X004545Y004920D01*
X003845Y004920D02*
X003555Y004920D01*
X003700Y004775D01*
X003700Y004968D01*
X003700Y005070D02*
X003555Y005215D01*
X003845Y005215D01*
X003700Y005263D02*
X003700Y005070D01*
X003700Y005575D02*
X003700Y005768D01*
X003797Y005870D02*
X003603Y006063D01*
X003797Y006063D01*
X003845Y006015D01*
X003845Y005918D01*
X003797Y005870D01*
X003603Y005870D01*
X003555Y005918D01*
X003555Y006015D01*
X003603Y006063D01*
X003555Y005720D02*
X003700Y005575D01*
X003845Y005720D02*
X003555Y005720D01*
X005445Y003258D02*
X005445Y003064D01*
X005445Y003161D02*
X005155Y003161D01*
X005252Y003064D01*
X005155Y002963D02*
X005155Y002770D01*
X005445Y002770D01*
X005445Y002963D01*
X005300Y002866D02*
X005300Y002770D01*
X005397Y002668D02*
X005203Y002668D01*
X005155Y002620D01*
X005155Y002523D01*
X005203Y002475D01*
X005397Y002475D01*
X005445Y002523D01*
X005445Y002620D01*
X005397Y002668D01*
X004545Y015575D02*
X004545Y015768D01*
X004545Y015672D02*
X004255Y015672D01*
X004352Y015575D01*
X004400Y015870D02*
X004303Y015966D01*
X004255Y016063D01*
X004400Y016015D02*
X004400Y015870D01*
X004497Y015870D01*
X004545Y015918D01*
X004545Y016015D01*
X004497Y016063D01*
X004448Y016063D01*
X004400Y016015D01*
X004352Y016575D02*
X004255Y016672D01*
X004545Y016672D01*
X004545Y016768D02*
X004545Y016575D01*
X004545Y016870D02*
X004352Y017063D01*
X004303Y017063D01*
X004255Y017015D01*
X004255Y016918D01*
X004303Y016870D01*
X004545Y016870D02*
X004545Y017063D01*
X019655Y016970D02*
X019655Y017163D01*
X019703Y017163D01*
X019897Y016970D01*
X019945Y016970D01*
X019703Y016868D02*
X019897Y016675D01*
X019945Y016675D01*
X019703Y016868D02*
X019655Y016868D01*
X019655Y016675D01*
X019655Y016163D02*
X019655Y015970D01*
X019800Y015970D01*
X019752Y016066D01*
X019752Y016115D01*
X019800Y016163D01*
X019897Y016163D01*
X019945Y016115D01*
X019945Y016018D01*
X019897Y015970D01*
X019703Y015868D02*
X019897Y015675D01*
X019945Y015675D01*
X019703Y015868D02*
X019655Y015868D01*
X019655Y015675D01*
X019703Y015163D02*
X019655Y015115D01*
X019655Y015018D01*
X019703Y014970D01*
X019703Y014868D02*
X019897Y014675D01*
X019945Y014675D01*
X019897Y014970D02*
X019945Y015018D01*
X019945Y015115D01*
X019897Y015163D01*
X019848Y015163D01*
X019800Y015115D01*
X019800Y015066D01*
X019800Y015115D02*
X019752Y015163D01*
X019703Y015163D01*
X019703Y014868D02*
X019655Y014868D01*
X019655Y014675D01*
X019703Y014163D02*
X019655Y014115D01*
X019655Y014018D01*
X019703Y013970D01*
X019752Y013970D01*
X019800Y014018D01*
X019800Y014163D01*
X019897Y014163D02*
X019703Y014163D01*
X019897Y014163D02*
X019945Y014115D01*
X019945Y014018D01*
X019897Y013970D01*
X019897Y013868D02*
X019848Y013868D01*
X019800Y013820D01*
X019800Y013675D01*
X019897Y013675D01*
X019945Y013723D01*
X019945Y013820D01*
X019897Y013868D01*
X019703Y013772D02*
X019800Y013675D01*
X019703Y013772D02*
X019655Y013868D01*
X019655Y013163D02*
X019703Y013163D01*
X019897Y012970D01*
X019945Y012970D01*
X019897Y012868D02*
X019848Y012868D01*
X019800Y012820D01*
X019800Y012675D01*
X019897Y012675D01*
X019945Y012723D01*
X019945Y012820D01*
X019897Y012868D01*
X019703Y012772D02*
X019800Y012675D01*
X019703Y012772D02*
X019655Y012868D01*
X019655Y012970D02*
X019655Y013163D01*
X020355Y013115D02*
X020403Y013163D01*
X020452Y013163D01*
X020500Y013115D01*
X020500Y013018D01*
X020452Y012970D01*
X020403Y012970D01*
X020355Y013018D01*
X020355Y013115D01*
X020500Y013115D02*
X020548Y013163D01*
X020597Y013163D01*
X020645Y013115D01*
X020645Y013018D01*
X020597Y012970D01*
X020548Y012970D01*
X020500Y013018D01*
X020548Y012868D02*
X020500Y012820D01*
X020500Y012675D01*
X020597Y012675D01*
X020645Y012723D01*
X020645Y012820D01*
X020597Y012868D01*
X020548Y012868D01*
X020403Y012772D02*
X020500Y012675D01*
X020403Y012772D02*
X020355Y012868D01*
X020355Y012163D02*
X020355Y011970D01*
X020500Y011970D01*
X020452Y012066D01*
X020452Y012115D01*
X020500Y012163D01*
X020597Y012163D01*
X020645Y012115D01*
X020645Y012018D01*
X020597Y011970D01*
X020597Y011868D02*
X020548Y011868D01*
X020500Y011820D01*
X020500Y011675D01*
X020597Y011675D01*
X020645Y011723D01*
X020645Y011820D01*
X020597Y011868D01*
X020403Y011772D02*
X020500Y011675D01*
X020403Y011772D02*
X020355Y011868D01*
X019945Y011820D02*
X019897Y011868D01*
X019848Y011868D01*
X019800Y011820D01*
X019800Y011675D01*
X019897Y011675D01*
X019945Y011723D01*
X019945Y011820D01*
X019800Y011675D02*
X019703Y011772D01*
X019655Y011868D01*
X019800Y011970D02*
X019655Y012115D01*
X019945Y012115D01*
X019800Y012163D02*
X019800Y011970D01*
X019945Y011163D02*
X019945Y010970D01*
X019945Y011066D02*
X019655Y011066D01*
X019752Y010970D01*
X019848Y010868D02*
X019800Y010820D01*
X019800Y010675D01*
X019897Y010675D01*
X019945Y010723D01*
X019945Y010820D01*
X019897Y010868D01*
X019848Y010868D01*
X019703Y010772D02*
X019800Y010675D01*
X019703Y010772D02*
X019655Y010868D01*
X019703Y010163D02*
X019752Y010163D01*
X019800Y010115D01*
X019800Y010018D01*
X019752Y009970D01*
X019703Y009970D01*
X019655Y010018D01*
X019655Y010115D01*
X019703Y010163D01*
X019800Y010115D02*
X019848Y010163D01*
X019897Y010163D01*
X019945Y010115D01*
X019945Y010018D01*
X019897Y009970D01*
X019848Y009970D01*
X019800Y010018D01*
X019800Y009868D02*
X019897Y009868D01*
X019945Y009820D01*
X019945Y009723D01*
X019897Y009675D01*
X019800Y009675D02*
X019752Y009772D01*
X019752Y009820D01*
X019800Y009868D01*
X019655Y009868D02*
X019655Y009675D01*
X019800Y009675D01*
X019848Y009163D02*
X019800Y009115D01*
X019800Y008970D01*
X019897Y008970D01*
X019945Y009018D01*
X019945Y009115D01*
X019897Y009163D01*
X019848Y009163D01*
X019703Y009066D02*
X019800Y008970D01*
X019800Y008868D02*
X019897Y008868D01*
X019945Y008820D01*
X019945Y008723D01*
X019897Y008675D01*
X019800Y008675D02*
X019752Y008772D01*
X019752Y008820D01*
X019800Y008868D01*
X019655Y008868D02*
X019655Y008675D01*
X019800Y008675D01*
X019703Y009066D02*
X019655Y009163D01*
X020355Y009163D02*
X020403Y009163D01*
X020597Y008970D01*
X020645Y008970D01*
X020597Y008868D02*
X020645Y008820D01*
X020645Y008723D01*
X020597Y008675D01*
X020500Y008675D02*
X020452Y008772D01*
X020452Y008820D01*
X020500Y008868D01*
X020597Y008868D01*
X020500Y008675D02*
X020355Y008675D01*
X020355Y008868D01*
X020355Y008970D02*
X020355Y009163D01*
X020500Y009675D02*
X020403Y009772D01*
X020355Y009868D01*
X020403Y009970D02*
X020355Y010018D01*
X020355Y010115D01*
X020403Y010163D01*
X020597Y009970D01*
X020645Y010018D01*
X020645Y010115D01*
X020597Y010163D01*
X020403Y010163D01*
X020403Y009970D02*
X020597Y009970D01*
X020597Y009868D02*
X020548Y009868D01*
X020500Y009820D01*
X020500Y009675D01*
X020597Y009675D01*
X020645Y009723D01*
X020645Y009820D01*
X020597Y009868D01*
X020597Y010675D02*
X020645Y010723D01*
X020645Y010820D01*
X020597Y010868D01*
X020548Y010868D01*
X020500Y010820D01*
X020500Y010675D01*
X020597Y010675D01*
X020500Y010675D02*
X020403Y010772D01*
X020355Y010868D01*
X020403Y010970D02*
X020355Y011018D01*
X020355Y011115D01*
X020403Y011163D01*
X020452Y011163D01*
X020500Y011115D01*
X020548Y011163D01*
X020597Y011163D01*
X020645Y011115D01*
X020645Y011018D01*
X020597Y010970D01*
X020500Y011066D02*
X020500Y011115D01*
X020597Y013675D02*
X020403Y013868D01*
X020355Y013868D01*
X020355Y013675D01*
X020597Y013675D02*
X020645Y013675D01*
X020597Y013970D02*
X020403Y014163D01*
X020597Y014163D01*
X020645Y014115D01*
X020645Y014018D01*
X020597Y013970D01*
X020403Y013970D01*
X020355Y014018D01*
X020355Y014115D01*
X020403Y014163D01*
X020355Y014675D02*
X020355Y014868D01*
X020403Y014868D01*
X020597Y014675D01*
X020645Y014675D01*
X020500Y014970D02*
X020355Y015115D01*
X020645Y015115D01*
X020500Y015163D02*
X020500Y014970D01*
X020597Y015675D02*
X020645Y015675D01*
X020597Y015675D02*
X020403Y015868D01*
X020355Y015868D01*
X020355Y015675D01*
X020500Y015970D02*
X020403Y016066D01*
X020355Y016163D01*
X020500Y016115D02*
X020500Y015970D01*
X020597Y015970D01*
X020645Y016018D01*
X020645Y016115D01*
X020597Y016163D01*
X020548Y016163D01*
X020500Y016115D01*
X020597Y016675D02*
X020645Y016675D01*
X020597Y016675D02*
X020403Y016868D01*
X020355Y016868D01*
X020355Y016675D01*
X020403Y016970D02*
X020452Y016970D01*
X020500Y017018D01*
X020500Y017163D01*
X020597Y017163D02*
X020403Y017163D01*
X020355Y017115D01*
X020355Y017018D01*
X020403Y016970D01*
X020597Y016970D02*
X020645Y017018D01*
X020645Y017115D01*
X020597Y017163D01*
X020597Y017675D02*
X020548Y017675D01*
X020500Y017723D01*
X020500Y017820D01*
X020548Y017868D01*
X020597Y017868D01*
X020645Y017820D01*
X020645Y017723D01*
X020597Y017675D01*
X020500Y017723D02*
X020452Y017675D01*
X020403Y017675D01*
X020355Y017723D01*
X020355Y017820D01*
X020403Y017868D01*
X020452Y017868D01*
X020500Y017820D01*
X020452Y017970D02*
X020500Y018018D01*
X020500Y018163D01*
X020597Y018163D02*
X020403Y018163D01*
X020355Y018115D01*
X020355Y018018D01*
X020403Y017970D01*
X020452Y017970D01*
X020597Y017970D02*
X020645Y018018D01*
X020645Y018115D01*
X020597Y018163D01*
X019945Y018115D02*
X019945Y018018D01*
X019897Y017970D01*
X019703Y018163D01*
X019897Y018163D01*
X019945Y018115D01*
X019897Y017970D02*
X019703Y017970D01*
X019655Y018018D01*
X019655Y018115D01*
X019703Y018163D01*
X019703Y017868D02*
X019655Y017820D01*
X019655Y017723D01*
X019703Y017675D01*
X019752Y017675D01*
X019800Y017723D01*
X019800Y017820D01*
X019848Y017868D01*
X019897Y017868D01*
X019945Y017820D01*
X019945Y017723D01*
X019897Y017675D01*
X019848Y017675D01*
X019800Y017723D01*
X019800Y017820D02*
X019752Y017868D01*
X019703Y017868D01*
X019800Y008163D02*
X019800Y007970D01*
X019655Y008115D01*
X019945Y008115D01*
X019897Y007868D02*
X019945Y007820D01*
X019945Y007723D01*
X019897Y007675D01*
X019800Y007675D02*
X019752Y007772D01*
X019752Y007820D01*
X019800Y007868D01*
X019897Y007868D01*
X019800Y007675D02*
X019655Y007675D01*
X019655Y007868D01*
X019945Y007163D02*
X019945Y006970D01*
X019945Y007066D02*
X019655Y007066D01*
X019752Y006970D01*
X019800Y006868D02*
X019897Y006868D01*
X019945Y006820D01*
X019945Y006723D01*
X019897Y006675D01*
X019800Y006675D02*
X019752Y006772D01*
X019752Y006820D01*
X019800Y006868D01*
X019655Y006868D02*
X019655Y006675D01*
X019800Y006675D01*
X019800Y006163D02*
X019800Y006018D01*
X019752Y005970D01*
X019703Y005970D01*
X019655Y006018D01*
X019655Y006115D01*
X019703Y006163D01*
X019897Y006163D01*
X019945Y006115D01*
X019945Y006018D01*
X019897Y005970D01*
X019800Y005868D02*
X019800Y005675D01*
X019655Y005820D01*
X019945Y005820D01*
X020355Y005868D02*
X020355Y005675D01*
X020500Y005675D01*
X020452Y005772D01*
X020452Y005820D01*
X020500Y005868D01*
X020597Y005868D01*
X020645Y005820D01*
X020645Y005723D01*
X020597Y005675D01*
X020597Y005970D02*
X020403Y005970D01*
X020355Y006018D01*
X020355Y006115D01*
X020403Y006163D01*
X020597Y005970D01*
X020645Y006018D01*
X020645Y006115D01*
X020597Y006163D01*
X020403Y006163D01*
X020355Y006675D02*
X020500Y006675D01*
X020452Y006772D01*
X020452Y006820D01*
X020500Y006868D01*
X020597Y006868D01*
X020645Y006820D01*
X020645Y006723D01*
X020597Y006675D01*
X020355Y006675D02*
X020355Y006868D01*
X020403Y006970D02*
X020355Y007018D01*
X020355Y007115D01*
X020403Y007163D01*
X020452Y007163D01*
X020645Y006970D01*
X020645Y007163D01*
X020597Y007675D02*
X020645Y007723D01*
X020645Y007820D01*
X020597Y007868D01*
X020500Y007868D01*
X020452Y007820D01*
X020452Y007772D01*
X020500Y007675D01*
X020355Y007675D01*
X020355Y007868D01*
X020355Y007970D02*
X020500Y007970D01*
X020452Y008066D01*
X020452Y008115D01*
X020500Y008163D01*
X020597Y008163D01*
X020645Y008115D01*
X020645Y008018D01*
X020597Y007970D01*
X020355Y007970D02*
X020355Y008163D01*
X020403Y005163D02*
X020452Y005163D01*
X020500Y005115D01*
X020500Y005018D01*
X020452Y004970D01*
X020403Y004970D01*
X020355Y005018D01*
X020355Y005115D01*
X020403Y005163D01*
X020500Y005115D02*
X020548Y005163D01*
X020597Y005163D01*
X020645Y005115D01*
X020645Y005018D01*
X020597Y004970D01*
X020548Y004970D01*
X020500Y005018D01*
X020500Y004868D02*
X020500Y004675D01*
X020355Y004820D01*
X020645Y004820D01*
X019945Y004820D02*
X019655Y004820D01*
X019800Y004675D01*
X019800Y004868D01*
X019800Y004970D02*
X019800Y005115D01*
X019848Y005163D01*
X019897Y005163D01*
X019945Y005115D01*
X019945Y005018D01*
X019897Y004970D01*
X019800Y004970D01*
X019703Y005066D01*
X019655Y005163D01*
D13*
X009556Y027215D02*
X009360Y027412D01*
X009360Y027806D01*
X009109Y027806D02*
X008715Y027806D01*
X008715Y027510D01*
X008912Y027609D01*
X009010Y027609D01*
X009109Y027510D01*
X009109Y027313D01*
X009010Y027215D01*
X008813Y027215D01*
X008715Y027313D01*
X009556Y027215D02*
X009753Y027412D01*
X009753Y027806D01*
X016015Y028213D02*
X016113Y028115D01*
X016310Y028115D01*
X016409Y028213D01*
X016409Y028312D01*
X016310Y028410D01*
X016212Y028410D01*
X016310Y028410D02*
X016409Y028509D01*
X016409Y028607D01*
X016310Y028706D01*
X016113Y028706D01*
X016015Y028607D01*
X016660Y028213D02*
X016660Y028115D01*
X016758Y028115D01*
X016758Y028213D01*
X016660Y028213D01*
X016982Y028213D02*
X017080Y028115D01*
X017277Y028115D01*
X017375Y028213D01*
X017375Y028312D01*
X017277Y028410D01*
X017179Y028410D01*
X017277Y028410D02*
X017375Y028509D01*
X017375Y028607D01*
X017277Y028706D01*
X017080Y028706D01*
X016982Y028607D01*
X017626Y028706D02*
X017626Y028312D01*
X017823Y028115D01*
X018020Y028312D01*
X018020Y028706D01*
D14*
X017541Y029235D02*
X017391Y029235D01*
X017316Y029310D01*
X017616Y029610D01*
X017616Y029310D01*
X017541Y029235D01*
X017316Y029310D02*
X017316Y029610D01*
X017391Y029685D01*
X017541Y029685D01*
X017616Y029610D01*
X017156Y029610D02*
X017156Y029310D01*
X017081Y029235D01*
X016930Y029235D01*
X016855Y029310D01*
X017156Y029610D01*
X017081Y029685D01*
X016930Y029685D01*
X016855Y029610D01*
X016855Y029310D01*
X016695Y029235D02*
X016395Y029235D01*
X016695Y029535D01*
X016695Y029610D01*
X016620Y029685D01*
X016470Y029685D01*
X016395Y029610D01*
X013446Y026735D02*
X013446Y026435D01*
X013220Y026435D01*
X013145Y026510D01*
X013145Y026735D01*
X012985Y026435D02*
X012685Y026435D01*
X012835Y026435D02*
X012835Y026885D01*
X012685Y026735D01*
X010506Y026635D02*
X010506Y026335D01*
X010281Y026335D01*
X010206Y026410D01*
X010206Y026635D01*
X010046Y026710D02*
X009745Y026410D01*
X009745Y026335D01*
X009510Y026335D02*
X009510Y026785D01*
X009285Y026560D01*
X009585Y026560D01*
X009745Y026785D02*
X010046Y026785D01*
X010046Y026710D01*
X009640Y029235D02*
X009490Y029235D01*
X009415Y029310D01*
X009715Y029610D01*
X009715Y029310D01*
X009640Y029235D01*
X009415Y029310D02*
X009415Y029610D01*
X009490Y029685D01*
X009640Y029685D01*
X009715Y029610D01*
X009254Y029610D02*
X009254Y029310D01*
X009179Y029235D01*
X009029Y029235D01*
X008954Y029310D01*
X009254Y029610D01*
X009179Y029685D01*
X009029Y029685D01*
X008954Y029610D01*
X008954Y029310D01*
X008794Y029235D02*
X008494Y029235D01*
X008794Y029535D01*
X008794Y029610D01*
X008719Y029685D01*
X008569Y029685D01*
X008494Y029610D01*
X007166Y025135D02*
X007166Y024835D01*
X006941Y024835D01*
X006866Y024910D01*
X006866Y025135D01*
X006706Y025210D02*
X006706Y024910D01*
X006631Y024835D01*
X006481Y024835D01*
X006406Y024910D01*
X006706Y025210D01*
X006631Y025285D01*
X006481Y025285D01*
X006406Y025210D01*
X006406Y024910D01*
X006246Y024835D02*
X005945Y024835D01*
X006246Y025135D01*
X006246Y025210D01*
X006171Y025285D01*
X006020Y025285D01*
X005945Y025210D01*
X005785Y025210D02*
X005710Y025285D01*
X005560Y025285D01*
X005485Y025210D01*
X005785Y025135D02*
X005485Y024835D01*
X005785Y024835D01*
X005785Y025135D02*
X005785Y025210D01*
X010493Y021385D02*
X010644Y021535D01*
X010644Y021085D01*
X010794Y021085D02*
X010493Y021085D01*
X010954Y021160D02*
X011254Y021460D01*
X011254Y021160D01*
X011179Y021085D01*
X011029Y021085D01*
X010954Y021160D01*
X010954Y021460D01*
X011029Y021535D01*
X011179Y021535D01*
X011254Y021460D01*
X011414Y021460D02*
X011414Y021160D01*
X011714Y021460D01*
X011714Y021160D01*
X011639Y021085D01*
X011489Y021085D01*
X011414Y021160D01*
X011414Y021460D02*
X011489Y021535D01*
X011639Y021535D01*
X011714Y021460D01*
X011875Y021385D02*
X011875Y021085D01*
X012175Y021085D02*
X012175Y021310D01*
X012100Y021385D01*
X011875Y021385D01*
X017995Y023435D02*
X018295Y023435D01*
X018145Y023435D02*
X018145Y023885D01*
X017995Y023735D01*
X018455Y023810D02*
X018530Y023885D01*
X018681Y023885D01*
X018756Y023810D01*
X018756Y023735D01*
X018455Y023435D01*
X018756Y023435D01*
X018916Y023510D02*
X019216Y023810D01*
X019216Y023510D01*
X019141Y023435D01*
X018991Y023435D01*
X018916Y023510D01*
X018916Y023810D01*
X018991Y023885D01*
X019141Y023885D01*
X019216Y023810D01*
X020410Y020944D02*
X020365Y020899D01*
X020365Y020809D01*
X020410Y020764D01*
X020365Y020649D02*
X020545Y020469D01*
X020500Y020514D02*
X020635Y020649D01*
X020635Y020764D02*
X020455Y020944D01*
X020410Y020944D01*
X020635Y020944D02*
X020635Y020764D01*
X020635Y020469D02*
X020365Y020469D01*
X020635Y020354D02*
X020635Y020174D01*
X020365Y020174D01*
X020410Y020060D02*
X020365Y020015D01*
X020365Y019925D01*
X020410Y019880D01*
X020590Y019880D01*
X020635Y019925D01*
X020635Y020015D01*
X020590Y020060D01*
X020590Y019765D02*
X020500Y019765D01*
X020500Y019675D01*
X020590Y019585D02*
X020635Y019630D01*
X020635Y019720D01*
X020590Y019765D01*
X020590Y019585D02*
X020410Y019585D01*
X020365Y019630D01*
X020365Y019720D01*
X020410Y019765D01*
X020035Y019720D02*
X019990Y019765D01*
X019900Y019765D01*
X019900Y019675D01*
X019810Y019585D02*
X019990Y019585D01*
X020035Y019630D01*
X020035Y019720D01*
X019990Y019880D02*
X020035Y019925D01*
X020035Y020015D01*
X019990Y020060D01*
X020035Y020174D02*
X020035Y020354D01*
X020035Y020469D02*
X019765Y020469D01*
X019765Y020604D01*
X019810Y020649D01*
X019900Y020649D01*
X019945Y020604D01*
X019945Y020469D01*
X019945Y020559D02*
X020035Y020649D01*
X020035Y020174D02*
X019765Y020174D01*
X019810Y020060D02*
X019765Y020015D01*
X019765Y019925D01*
X019810Y019880D01*
X019990Y019880D01*
X019810Y019765D02*
X019765Y019720D01*
X019765Y019630D01*
X019810Y019585D01*
X019635Y019549D02*
X019500Y019414D01*
X019545Y019369D02*
X019365Y019549D01*
X019455Y019664D02*
X019365Y019754D01*
X019635Y019754D01*
X019635Y019664D02*
X019635Y019844D01*
X019635Y019369D02*
X019365Y019369D01*
X019635Y019254D02*
X019635Y019074D01*
X019365Y019074D01*
X019410Y018960D02*
X019365Y018915D01*
X019365Y018825D01*
X019410Y018780D01*
X019590Y018780D01*
X019635Y018825D01*
X019635Y018915D01*
X019590Y018960D01*
X019590Y018665D02*
X019500Y018665D01*
X019500Y018575D01*
X019590Y018485D02*
X019635Y018530D01*
X019635Y018620D01*
X019590Y018665D01*
X019590Y018485D02*
X019410Y018485D01*
X019365Y018530D01*
X019365Y018620D01*
X019410Y018665D01*
X020365Y018620D02*
X020410Y018665D01*
X020590Y018665D01*
X020635Y018620D01*
X020635Y018530D01*
X020590Y018485D01*
X020410Y018485D01*
X020365Y018530D01*
X020365Y018620D01*
X020365Y018780D02*
X020635Y018780D01*
X020635Y018960D01*
X020635Y019074D02*
X020635Y019254D01*
X020635Y019164D02*
X020365Y019164D01*
X020455Y019074D01*
X020365Y018960D02*
X020365Y018780D01*
X020500Y018780D02*
X020500Y018870D01*
X014350Y009485D02*
X014125Y009260D01*
X014425Y009260D01*
X014350Y009035D02*
X014350Y009485D01*
X013964Y009410D02*
X013964Y009335D01*
X013889Y009260D01*
X013739Y009260D01*
X013664Y009335D01*
X013664Y009410D01*
X013739Y009485D01*
X013889Y009485D01*
X013964Y009410D01*
X013889Y009260D02*
X013964Y009185D01*
X013964Y009110D01*
X013889Y009035D01*
X013739Y009035D01*
X013664Y009110D01*
X013664Y009185D01*
X013739Y009260D01*
X013504Y009185D02*
X013504Y009110D01*
X013429Y009035D01*
X013279Y009035D01*
X013204Y009110D01*
X013279Y009260D02*
X013204Y009335D01*
X013204Y009410D01*
X013279Y009485D01*
X013429Y009485D01*
X013504Y009410D01*
X013429Y009260D02*
X013504Y009185D01*
X013429Y009260D02*
X013279Y009260D01*
X013044Y009260D02*
X012743Y009260D01*
X012583Y009185D02*
X012583Y009110D01*
X012508Y009035D01*
X012358Y009035D01*
X012283Y009110D01*
X012283Y009185D01*
X012358Y009260D01*
X012508Y009260D01*
X012583Y009185D01*
X012508Y009260D02*
X012583Y009335D01*
X012583Y009410D01*
X012508Y009485D01*
X012358Y009485D01*
X012283Y009410D01*
X012283Y009335D01*
X012358Y009260D01*
X012123Y009335D02*
X012123Y009410D01*
X012048Y009485D01*
X011898Y009485D01*
X011823Y009410D01*
X012123Y009335D02*
X011823Y009035D01*
X012123Y009035D01*
X011662Y009035D02*
X011362Y009035D01*
X011512Y009035D02*
X011512Y009485D01*
X011362Y009335D01*
X011202Y009410D02*
X010902Y009110D01*
X010902Y009035D01*
X010742Y009035D02*
X010742Y009485D01*
X010592Y009335D01*
X010441Y009485D01*
X010441Y009035D01*
X010281Y009260D02*
X010206Y009185D01*
X009981Y009185D01*
X009981Y009035D02*
X009981Y009485D01*
X010206Y009485D01*
X010281Y009410D01*
X010281Y009260D01*
X009821Y009035D02*
X009521Y009035D01*
X009521Y009485D01*
X009821Y009485D01*
X009671Y009260D02*
X009521Y009260D01*
X010902Y009485D02*
X011202Y009485D01*
X011202Y009410D01*
X007635Y003975D02*
X007410Y003975D01*
X007335Y003900D01*
X007335Y003675D01*
X007635Y003675D01*
X007560Y003514D02*
X007635Y003439D01*
X007635Y003289D01*
X007560Y003214D01*
X007260Y003514D01*
X007560Y003514D01*
X007560Y003214D02*
X007260Y003214D01*
X007185Y003289D01*
X007185Y003439D01*
X007260Y003514D01*
X007260Y003054D02*
X007185Y002979D01*
X007185Y002829D01*
X007260Y002754D01*
X007560Y002754D01*
X007260Y003054D01*
X007560Y003054D01*
X007635Y002979D01*
X007635Y002829D01*
X007560Y002754D01*
X007635Y002594D02*
X007635Y002293D01*
X007635Y002444D02*
X007185Y002444D01*
X007335Y002293D01*
X009085Y003140D02*
X009160Y003065D01*
X009310Y003065D01*
X009385Y003140D01*
X009385Y003290D01*
X009310Y003365D01*
X009235Y003365D01*
X009085Y003290D01*
X009085Y003515D01*
X009385Y003515D01*
X009545Y003440D02*
X009620Y003515D01*
X009771Y003515D01*
X009846Y003440D01*
X009545Y003140D01*
X009620Y003065D01*
X009771Y003065D01*
X009846Y003140D01*
X009846Y003440D01*
X010006Y003515D02*
X010006Y003065D01*
X010306Y003065D02*
X010306Y003515D01*
X010156Y003365D01*
X010006Y003515D01*
X010466Y003515D02*
X010466Y003065D01*
X010466Y003290D02*
X010766Y003290D01*
X010927Y003365D02*
X011227Y003365D01*
X010927Y003065D01*
X011227Y003065D01*
X010766Y003065D02*
X010766Y003515D01*
X009545Y003440D02*
X009545Y003140D01*
X009685Y001685D02*
X009685Y001235D01*
X009535Y001235D02*
X009835Y001235D01*
X009535Y001535D02*
X009685Y001685D01*
X016385Y002485D02*
X016835Y002485D01*
X016835Y002335D02*
X016835Y002635D01*
X016760Y002795D02*
X016835Y002870D01*
X016835Y003021D01*
X016760Y003096D01*
X016460Y003096D01*
X016760Y002795D01*
X016460Y002795D01*
X016385Y002870D01*
X016385Y003021D01*
X016460Y003096D01*
X016460Y003256D02*
X016385Y003331D01*
X016385Y003481D01*
X016460Y003556D01*
X016760Y003256D01*
X016835Y003331D01*
X016835Y003481D01*
X016760Y003556D01*
X016460Y003556D01*
X016535Y003716D02*
X016535Y003941D01*
X016610Y004016D01*
X016835Y004016D01*
X016835Y003716D02*
X016535Y003716D01*
X016460Y003256D02*
X016760Y003256D01*
X016385Y002485D02*
X016535Y002335D01*
X017910Y006635D02*
X017835Y006710D01*
X017835Y006785D01*
X017910Y006860D01*
X018060Y006860D01*
X018135Y006785D01*
X018135Y006710D01*
X018060Y006635D01*
X017910Y006635D01*
X017910Y006860D02*
X017835Y006935D01*
X017835Y007010D01*
X017910Y007085D01*
X018060Y007085D01*
X018135Y007010D01*
X018135Y006935D01*
X018060Y006860D01*
X018295Y006860D02*
X018596Y006860D01*
X018521Y006635D02*
X018521Y007085D01*
X018295Y006860D01*
D15*
X012060Y015585D03*
D16*
X012060Y015935D03*
D17*
X012060Y016060D03*
D18*
X012060Y016160D03*
D19*
X012060Y016260D03*
D20*
X012460Y015885D03*
X011660Y015885D03*
D21*
X011685Y015935D03*
X011785Y016035D03*
X011885Y016135D03*
X011985Y016235D03*
X012135Y016235D03*
X012235Y016135D03*
X012335Y016035D03*
X012435Y015935D03*
D22*
X019260Y024610D02*
X019260Y027860D01*
X022860Y027860D01*
X022860Y024610D01*
X019260Y024610D01*
X004860Y024610D02*
X004860Y027860D01*
X001260Y027860D01*
X001260Y024610D01*
X004860Y024610D01*
D23*
X004060Y023135D03*
X003060Y023135D03*
X002060Y023135D03*
X020060Y023135D03*
X021060Y023135D03*
X022060Y023135D03*
D24*
X022060Y023810D03*
X021060Y023810D03*
X020060Y023810D03*
X004060Y023810D03*
X003060Y023810D03*
X002060Y023810D03*
D25*
X002172Y025095D02*
X002067Y025200D01*
X002067Y025305D01*
X002172Y025410D01*
X002382Y025410D01*
X002487Y025305D01*
X002487Y025200D01*
X002382Y025095D01*
X002172Y025095D01*
X002172Y025410D02*
X002067Y025515D01*
X002067Y025620D01*
X002172Y025726D01*
X002382Y025726D01*
X002487Y025620D01*
X002487Y025515D01*
X002382Y025410D01*
X002711Y025200D02*
X003132Y025620D01*
X003132Y025200D01*
X003027Y025095D01*
X002816Y025095D01*
X002711Y025200D01*
X002711Y025620D01*
X002816Y025726D01*
X003027Y025726D01*
X003132Y025620D01*
X003356Y025726D02*
X003356Y025410D01*
X003566Y025515D01*
X003671Y025515D01*
X003776Y025410D01*
X003776Y025200D01*
X003671Y025095D01*
X003461Y025095D01*
X003356Y025200D01*
X003356Y025726D02*
X003776Y025726D01*
X004000Y025726D02*
X004421Y025726D01*
X004211Y025726D02*
X004211Y025095D01*
X001843Y025620D02*
X001422Y025200D01*
X001422Y025095D01*
X001422Y025726D02*
X001843Y025726D01*
X001843Y025620D01*
X019667Y025820D02*
X019772Y025926D01*
X019982Y025926D01*
X020087Y025820D01*
X020087Y025715D01*
X019982Y025610D01*
X020087Y025505D01*
X020087Y025400D01*
X019982Y025295D01*
X019772Y025295D01*
X019667Y025400D01*
X019877Y025610D02*
X019982Y025610D01*
X020311Y025715D02*
X020522Y025926D01*
X020522Y025295D01*
X020732Y025295D02*
X020311Y025295D01*
X020956Y025295D02*
X020956Y025400D01*
X021376Y025820D01*
X021376Y025926D01*
X020956Y025926D01*
X021600Y025926D02*
X022021Y025926D01*
X021811Y025926D02*
X021811Y025295D01*
D26*
X013560Y027510D02*
X013603Y027456D01*
X013649Y027404D01*
X013698Y027355D01*
X013750Y027308D01*
X013804Y027265D01*
X013860Y027224D01*
X013919Y027187D01*
X013979Y027153D01*
X014042Y027123D01*
X014105Y027096D01*
X014171Y027072D01*
X014237Y027052D01*
X014305Y027036D01*
X014373Y027024D01*
X014442Y027016D01*
X014511Y027011D01*
X014581Y027010D01*
X014650Y027013D01*
X014719Y027020D01*
X014787Y027031D01*
X014855Y027045D01*
X014922Y027064D01*
X014988Y027086D01*
X015053Y027111D01*
X015116Y027140D01*
X015177Y027173D01*
X015236Y027209D01*
X015293Y027248D01*
X015349Y027290D01*
X015401Y027335D01*
X015451Y027383D01*
X015498Y027434D01*
X015543Y027488D01*
X015584Y027543D01*
X015622Y027601D01*
X015657Y027661D01*
X015689Y027723D01*
X015717Y027786D01*
X015741Y027851D01*
X015762Y027917D01*
X015779Y027985D01*
X015793Y028053D01*
X015802Y028122D01*
X015808Y028191D01*
X015810Y028260D01*
X015808Y028329D01*
X015802Y028398D01*
X015793Y028467D01*
X015779Y028535D01*
X015762Y028603D01*
X015741Y028669D01*
X015717Y028734D01*
X015689Y028797D01*
X015657Y028859D01*
X015622Y028919D01*
X015584Y028977D01*
X015543Y029032D01*
X015498Y029086D01*
X015451Y029137D01*
X015401Y029185D01*
X015349Y029230D01*
X015293Y029272D01*
X015236Y029311D01*
X015177Y029347D01*
X015116Y029380D01*
X015053Y029409D01*
X014988Y029434D01*
X014922Y029456D01*
X014855Y029475D01*
X014787Y029489D01*
X014719Y029500D01*
X014650Y029507D01*
X014581Y029510D01*
X014511Y029509D01*
X014442Y029504D01*
X014373Y029496D01*
X014305Y029484D01*
X014237Y029468D01*
X014171Y029448D01*
X014105Y029424D01*
X014042Y029397D01*
X013979Y029367D01*
X013919Y029333D01*
X013860Y029296D01*
X013804Y029255D01*
X013750Y029212D01*
X013698Y029165D01*
X013649Y029116D01*
X013603Y029064D01*
X013560Y029010D01*
X012160Y029010D02*
X012117Y029064D01*
X012071Y029116D01*
X012022Y029165D01*
X011970Y029212D01*
X011916Y029255D01*
X011860Y029296D01*
X011801Y029333D01*
X011741Y029367D01*
X011678Y029397D01*
X011615Y029424D01*
X011549Y029448D01*
X011483Y029468D01*
X011415Y029484D01*
X011347Y029496D01*
X011278Y029504D01*
X011209Y029509D01*
X011139Y029510D01*
X011070Y029507D01*
X011001Y029500D01*
X010933Y029489D01*
X010865Y029475D01*
X010798Y029456D01*
X010732Y029434D01*
X010667Y029409D01*
X010604Y029380D01*
X010543Y029347D01*
X010484Y029311D01*
X010427Y029272D01*
X010371Y029230D01*
X010319Y029185D01*
X010269Y029137D01*
X010222Y029086D01*
X010177Y029032D01*
X010136Y028977D01*
X010098Y028919D01*
X010063Y028859D01*
X010031Y028797D01*
X010003Y028734D01*
X009979Y028669D01*
X009958Y028603D01*
X009941Y028535D01*
X009927Y028467D01*
X009918Y028398D01*
X009912Y028329D01*
X009910Y028260D01*
X009912Y028191D01*
X009918Y028122D01*
X009927Y028053D01*
X009941Y027985D01*
X009958Y027917D01*
X009979Y027851D01*
X010003Y027786D01*
X010031Y027723D01*
X010063Y027661D01*
X010098Y027601D01*
X010136Y027543D01*
X010177Y027488D01*
X010222Y027434D01*
X010269Y027383D01*
X010319Y027335D01*
X010371Y027290D01*
X010427Y027248D01*
X010484Y027209D01*
X010543Y027173D01*
X010604Y027140D01*
X010667Y027111D01*
X010732Y027086D01*
X010798Y027064D01*
X010865Y027045D01*
X010933Y027031D01*
X011001Y027020D01*
X011070Y027013D01*
X011139Y027010D01*
X011209Y027011D01*
X011278Y027016D01*
X011347Y027024D01*
X011415Y027036D01*
X011483Y027052D01*
X011549Y027072D01*
X011615Y027096D01*
X011678Y027123D01*
X011741Y027153D01*
X011801Y027187D01*
X011860Y027224D01*
X011916Y027265D01*
X011970Y027308D01*
X012022Y027355D01*
X012071Y027404D01*
X012117Y027456D01*
X012160Y027510D01*
X015560Y005860D02*
X008560Y005860D01*
X008516Y005858D01*
X008473Y005852D01*
X008431Y005843D01*
X008389Y005830D01*
X008349Y005813D01*
X008310Y005793D01*
X008273Y005770D01*
X008239Y005743D01*
X008206Y005714D01*
X008177Y005681D01*
X008150Y005647D01*
X008127Y005610D01*
X008107Y005571D01*
X008090Y005531D01*
X008077Y005489D01*
X008068Y005447D01*
X008062Y005404D01*
X008060Y005360D01*
X008060Y000860D01*
X015560Y000860D01*
X015604Y000862D01*
X015647Y000868D01*
X015689Y000877D01*
X015731Y000890D01*
X015771Y000907D01*
X015810Y000927D01*
X015847Y000950D01*
X015881Y000977D01*
X015914Y001006D01*
X015943Y001039D01*
X015970Y001073D01*
X015993Y001110D01*
X016013Y001149D01*
X016030Y001189D01*
X016043Y001231D01*
X016052Y001273D01*
X016058Y001316D01*
X016060Y001360D01*
X016060Y005360D01*
X016058Y005404D01*
X016052Y005447D01*
X016043Y005489D01*
X016030Y005531D01*
X016013Y005571D01*
X015993Y005610D01*
X015970Y005647D01*
X015943Y005681D01*
X015914Y005714D01*
X015881Y005743D01*
X015847Y005770D01*
X015810Y005793D01*
X015771Y005813D01*
X015731Y005830D01*
X015689Y005843D01*
X015647Y005852D01*
X015604Y005858D01*
X015560Y005860D01*
D27*
X012430Y005360D02*
X012430Y004860D01*
X012430Y004360D01*
X012180Y004360D02*
X012180Y005360D01*
X011930Y005360D01*
X011930Y004360D01*
X012180Y004360D01*
X011690Y004360D02*
X011690Y004860D01*
X011690Y005360D01*
D28*
X006560Y004210D02*
X006060Y004210D01*
X005560Y004210D01*
X005560Y003860D02*
X006060Y003860D01*
X006560Y003860D01*
X017460Y003860D02*
X017960Y003860D01*
X018460Y003860D01*
X018460Y004210D02*
X017960Y004210D01*
X017460Y004210D01*
X012910Y021460D02*
X012910Y021960D01*
X012910Y022460D01*
X012560Y022460D02*
X012560Y021960D01*
X012560Y021460D01*
D29*
X015140Y023060D03*
X017980Y023060D03*
X017480Y030360D03*
X014640Y030360D03*
X012480Y030360D03*
X009640Y030360D03*
D30*
X016860Y025260D03*
D31*
X016860Y025260D03*
D32*
X013560Y027510D02*
X013560Y029010D01*
X012160Y029010D02*
X012160Y027510D01*
M02*
