G75*
%MOIN*%
%OFA0B0*%
%FSLAX24Y24*%
%IPPOS*%
%LPD*%
%AMOC8*
5,1,8,0,0,1.08239X$1,22.5*
%
%ADD10C,0.0000*%
D10*
X000660Y000560D02*
X000660Y031056D01*
X023430Y031056D01*
X023430Y000560D01*
X000660Y000560D01*
X002410Y029260D02*
X002412Y029310D01*
X002418Y029360D01*
X002428Y029410D01*
X002441Y029458D01*
X002458Y029506D01*
X002479Y029552D01*
X002503Y029596D01*
X002531Y029638D01*
X002562Y029678D01*
X002596Y029715D01*
X002633Y029750D01*
X002672Y029781D01*
X002713Y029810D01*
X002757Y029835D01*
X002803Y029857D01*
X002850Y029875D01*
X002898Y029889D01*
X002947Y029900D01*
X002997Y029907D01*
X003047Y029910D01*
X003098Y029909D01*
X003148Y029904D01*
X003198Y029895D01*
X003246Y029883D01*
X003294Y029866D01*
X003340Y029846D01*
X003385Y029823D01*
X003428Y029796D01*
X003468Y029766D01*
X003506Y029733D01*
X003541Y029697D01*
X003574Y029658D01*
X003603Y029617D01*
X003629Y029574D01*
X003652Y029529D01*
X003671Y029482D01*
X003686Y029434D01*
X003698Y029385D01*
X003706Y029335D01*
X003710Y029285D01*
X003710Y029235D01*
X003706Y029185D01*
X003698Y029135D01*
X003686Y029086D01*
X003671Y029038D01*
X003652Y028991D01*
X003629Y028946D01*
X003603Y028903D01*
X003574Y028862D01*
X003541Y028823D01*
X003506Y028787D01*
X003468Y028754D01*
X003428Y028724D01*
X003385Y028697D01*
X003340Y028674D01*
X003294Y028654D01*
X003246Y028637D01*
X003198Y028625D01*
X003148Y028616D01*
X003098Y028611D01*
X003047Y028610D01*
X002997Y028613D01*
X002947Y028620D01*
X002898Y028631D01*
X002850Y028645D01*
X002803Y028663D01*
X002757Y028685D01*
X002713Y028710D01*
X002672Y028739D01*
X002633Y028770D01*
X002596Y028805D01*
X002562Y028842D01*
X002531Y028882D01*
X002503Y028924D01*
X002479Y028968D01*
X002458Y029014D01*
X002441Y029062D01*
X002428Y029110D01*
X002418Y029160D01*
X002412Y029210D01*
X002410Y029260D01*
X020410Y029260D02*
X020412Y029310D01*
X020418Y029360D01*
X020428Y029410D01*
X020441Y029458D01*
X020458Y029506D01*
X020479Y029552D01*
X020503Y029596D01*
X020531Y029638D01*
X020562Y029678D01*
X020596Y029715D01*
X020633Y029750D01*
X020672Y029781D01*
X020713Y029810D01*
X020757Y029835D01*
X020803Y029857D01*
X020850Y029875D01*
X020898Y029889D01*
X020947Y029900D01*
X020997Y029907D01*
X021047Y029910D01*
X021098Y029909D01*
X021148Y029904D01*
X021198Y029895D01*
X021246Y029883D01*
X021294Y029866D01*
X021340Y029846D01*
X021385Y029823D01*
X021428Y029796D01*
X021468Y029766D01*
X021506Y029733D01*
X021541Y029697D01*
X021574Y029658D01*
X021603Y029617D01*
X021629Y029574D01*
X021652Y029529D01*
X021671Y029482D01*
X021686Y029434D01*
X021698Y029385D01*
X021706Y029335D01*
X021710Y029285D01*
X021710Y029235D01*
X021706Y029185D01*
X021698Y029135D01*
X021686Y029086D01*
X021671Y029038D01*
X021652Y028991D01*
X021629Y028946D01*
X021603Y028903D01*
X021574Y028862D01*
X021541Y028823D01*
X021506Y028787D01*
X021468Y028754D01*
X021428Y028724D01*
X021385Y028697D01*
X021340Y028674D01*
X021294Y028654D01*
X021246Y028637D01*
X021198Y028625D01*
X021148Y028616D01*
X021098Y028611D01*
X021047Y028610D01*
X020997Y028613D01*
X020947Y028620D01*
X020898Y028631D01*
X020850Y028645D01*
X020803Y028663D01*
X020757Y028685D01*
X020713Y028710D01*
X020672Y028739D01*
X020633Y028770D01*
X020596Y028805D01*
X020562Y028842D01*
X020531Y028882D01*
X020503Y028924D01*
X020479Y028968D01*
X020458Y029014D01*
X020441Y029062D01*
X020428Y029110D01*
X020418Y029160D01*
X020412Y029210D01*
X020410Y029260D01*
M02*
